<svg width="90" height="38" viewBox="0 0 90 38" fill="none" xmlns="http://www.w3.org/2000/svg">
<path d="M1 36.1286C3.0944 35.0877 9.1312 31.9204 13.32 30.0057C17.5088 28.091 21.4512 26.9358 25.64 24.8657C29.8288 22.7956 33.7712 19.1344 37.96 17.8289C42.1488 16.5233 46.0912 17.0658 50.28 17.1859C54.4688 17.306 58.4112 19.3135 62.6 18.5354C66.7888 17.7573 70.7312 15.6593 74.92 12.6087C79.1088 9.55803 86.9056 3.04311 89 1V36.1999H1V36.1286Z" fill="url(#paint0_linear_335_496)" fill-opacity="0.3"/>
<path d="M1 36.2C3.0944 35.1591 9.1312 31.9204 13.32 30.0057C17.5088 28.091 21.4512 26.9358 25.64 24.8657C29.8288 22.7956 33.7712 19.1344 37.96 17.8289C42.1488 16.5233 46.0912 17.0658 50.28 17.1859C54.4688 17.306 58.4112 19.3135 62.6 18.5354C66.7888 17.7573 70.7312 15.6593 74.92 12.6087C79.1088 9.55803 86.9056 3.04311 89 1" stroke="#FFA730" stroke-width="2"/>
<defs>
<linearGradient id="paint0_linear_335_496" x1="45" y1="1" x2="45" y2="36.1999" gradientUnits="userSpaceOnUse">
<stop stop-color="#FFA730"/>
<stop offset="1" stop-color="#FFA730" stop-opacity="0"/>
</linearGradient>
</defs>
</svg>
