<svg width="337" height="180" viewBox="0 0 337 180" fill="none" xmlns="http://www.w3.org/2000/svg">
<path d="M336.745 11C329.868 12.1352 316.116 12.0299 302.363 16.6761C288.61 21.3223 281.734 31.1219 267.981 34.2311C254.229 37.3403 247.352 28.1306 233.6 32.222C219.847 36.3134 212.971 51.62 199.218 54.6882C185.465 57.7564 178.589 39.456 164.836 47.563C151.084 55.6699 144.207 83.2384 130.455 95.2228C116.702 107.207 109.826 110.993 96.0731 107.485C82.3205 103.977 75.4442 75.5725 61.6915 77.6838C47.9388 79.7952 34.1862 109.97 27.3098 118.042L27.0001 158H336.745V11Z" fill="#264092" fill-opacity="0.1"/>
<path d="M336.745 11C329.868 12.1352 316.116 12.0299 302.363 16.6761C288.61 21.3223 281.734 31.1219 267.981 34.2311C254.229 37.3403 247.352 28.1306 233.6 32.222C219.847 36.3134 212.971 51.62 199.218 54.6882C185.465 57.7563 178.589 39.456 164.836 47.563C151.084 55.6699 144.207 83.2384 130.455 95.2228C116.702 107.207 109.826 110.993 96.0731 107.485C82.3205 103.977 75.4441 75.5725 61.6915 77.6838C47.9388 79.7952 34.1862 109.97 27.3098 118.042" stroke="#264092" stroke-width="2"/>
<rect x="27" y="6" width="310" height="0.793617" fill="black" fill-opacity="0.08"/>
<rect x="27" y="36" width="310" height="0.793617" fill="black" fill-opacity="0.08"/>
<rect x="27" y="66" width="310" height="0.793617" fill="black" fill-opacity="0.08"/>
<rect x="27" y="96" width="310" height="0.793617" fill="black" fill-opacity="0.08"/>
<rect x="27" y="126" width="310" height="0.793617" fill="black" fill-opacity="0.08"/>
<rect x="27" y="156" width="310" height="0.793617" fill="black" fill-opacity="0.08"/>
<path d="M27.56 176.064C27.2293 176.064 26.92 175.995 26.632 175.856C26.344 175.717 26.1093 175.517 25.928 175.256L26.392 174.712C26.5467 174.925 26.72 175.091 26.912 175.208C27.1093 175.32 27.3253 175.376 27.56 175.376C28.2 175.376 28.52 174.997 28.52 174.24V171.096H26.496V170.4H29.312V174.2C29.312 174.824 29.1627 175.291 28.864 175.6C28.5707 175.909 28.136 176.064 27.56 176.064ZM33.4616 176V175.104L33.4216 174.936V173.408C33.4216 173.083 33.3256 172.832 33.1336 172.656C32.9469 172.475 32.6642 172.384 32.2856 172.384C32.0349 172.384 31.7896 172.427 31.5496 172.512C31.3096 172.592 31.1069 172.701 30.9416 172.84L30.6216 172.264C30.8402 172.088 31.1016 171.955 31.4056 171.864C31.7149 171.768 32.0376 171.72 32.3736 171.72C32.9549 171.72 33.4029 171.861 33.7176 172.144C34.0322 172.427 34.1896 172.859 34.1896 173.44V176H33.4616ZM32.0696 176.048C31.7549 176.048 31.4776 175.995 31.2376 175.888C31.0029 175.781 30.8216 175.635 30.6936 175.448C30.5656 175.256 30.5016 175.04 30.5016 174.8C30.5016 174.571 30.5549 174.363 30.6616 174.176C30.7736 173.989 30.9522 173.84 31.1976 173.728C31.4482 173.616 31.7842 173.56 32.2056 173.56H33.5496V174.112H32.2376C31.8536 174.112 31.5949 174.176 31.4616 174.304C31.3282 174.432 31.2616 174.587 31.2616 174.768C31.2616 174.976 31.3442 175.144 31.5096 175.272C31.6749 175.395 31.9042 175.456 32.1976 175.456C32.4856 175.456 32.7362 175.392 32.9496 175.264C33.1682 175.136 33.3256 174.949 33.4216 174.704L33.5736 175.232C33.4722 175.483 33.2936 175.683 33.0376 175.832C32.7816 175.976 32.4589 176.048 32.0696 176.048ZM37.8748 171.72C38.2215 171.72 38.5255 171.787 38.7868 171.92C39.0535 172.053 39.2615 172.256 39.4108 172.528C39.5601 172.8 39.6348 173.144 39.6348 173.56V176H38.8668V173.648C38.8668 173.237 38.7655 172.928 38.5628 172.72C38.3655 172.512 38.0855 172.408 37.7228 172.408C37.4508 172.408 37.2135 172.461 37.0108 172.568C36.8081 172.675 36.6508 172.832 36.5388 173.04C36.4321 173.248 36.3788 173.507 36.3788 173.816V176H35.6108V171.76H36.3468V172.904L36.2268 172.6C36.3655 172.323 36.5788 172.107 36.8668 171.952C37.1548 171.797 37.4908 171.72 37.8748 171.72Z" fill="black" fill-opacity="0.6"/>
<path d="M52.56 173.048H55.448V173.736H52.56V173.048ZM52.64 176H51.84V170.4H55.792V171.096H52.64V176ZM58.5613 176.048C58.108 176.048 57.708 175.955 57.3613 175.768C57.02 175.581 56.7533 175.325 56.5613 175C56.3746 174.675 56.2813 174.301 56.2813 173.88C56.2813 173.459 56.372 173.085 56.5533 172.76C56.74 172.435 56.9933 172.181 57.3133 172C57.6386 171.813 58.004 171.72 58.4093 171.72C58.82 171.72 59.1826 171.811 59.4973 171.992C59.812 172.173 60.0573 172.429 60.2333 172.76C60.4146 173.085 60.5053 173.467 60.5053 173.904C60.5053 173.936 60.5026 173.973 60.4973 174.016C60.4973 174.059 60.4946 174.099 60.4893 174.136H56.8813V173.584H60.0893L59.7773 173.776C59.7826 173.504 59.7266 173.261 59.6093 173.048C59.492 172.835 59.3293 172.669 59.1213 172.552C58.9186 172.429 58.6813 172.368 58.4093 172.368C58.1426 172.368 57.9053 172.429 57.6973 172.552C57.4893 172.669 57.3266 172.837 57.2093 173.056C57.092 173.269 57.0333 173.515 57.0333 173.792V173.92C57.0333 174.203 57.0973 174.456 57.2253 174.68C57.3586 174.899 57.5426 175.069 57.7773 175.192C58.012 175.315 58.2813 175.376 58.5853 175.376C58.836 175.376 59.0626 175.333 59.2653 175.248C59.4733 175.163 59.6546 175.035 59.8093 174.864L60.2333 175.36C60.0413 175.584 59.8013 175.755 59.5133 175.872C59.2306 175.989 58.9133 176.048 58.5613 176.048ZM63.8198 176.048C63.4571 176.048 63.1291 175.968 62.8358 175.808C62.5478 175.643 62.3184 175.4 62.1478 175.08C61.9824 174.76 61.8997 174.36 61.8997 173.88C61.8997 173.4 61.9851 173 62.1558 172.68C62.3318 172.36 62.5638 172.12 62.8518 171.96C63.1451 171.8 63.4678 171.72 63.8198 171.72C64.2358 171.72 64.6038 171.811 64.9238 171.992C65.2438 172.173 65.4971 172.427 65.6838 172.752C65.8704 173.072 65.9638 173.448 65.9638 173.88C65.9638 174.312 65.8704 174.691 65.6838 175.016C65.4971 175.341 65.2438 175.595 64.9238 175.776C64.6038 175.957 64.2358 176.048 63.8198 176.048ZM61.5718 176V170.064H62.3398V172.888L62.2598 173.872L62.3078 174.856V176H61.5718ZM63.7558 175.376C64.0278 175.376 64.2704 175.315 64.4838 175.192C64.7024 175.069 64.8731 174.896 64.9958 174.672C65.1238 174.443 65.1878 174.179 65.1878 173.88C65.1878 173.576 65.1238 173.315 64.9958 173.096C64.8731 172.872 64.7024 172.699 64.4838 172.576C64.2704 172.453 64.0278 172.392 63.7558 172.392C63.4891 172.392 63.2464 172.453 63.0278 172.576C62.8144 172.699 62.6438 172.872 62.5158 173.096C62.3931 173.315 62.3318 173.576 62.3318 173.88C62.3318 174.179 62.3931 174.443 62.5158 174.672C62.6438 174.896 62.8144 175.069 63.0278 175.192C63.2464 175.315 63.4891 175.376 63.7558 175.376Z" fill="black" fill-opacity="0.6"/>
<path d="M78.84 176V170.4H79.496L82.008 174.632H81.656L84.136 170.4H84.792L84.8 176H84.032L84.024 171.608H84.208L82 175.32H81.632L79.408 171.608H79.608V176H78.84ZM89.0006 176V175.104L88.9606 174.936V173.408C88.9606 173.083 88.8646 172.832 88.6726 172.656C88.486 172.475 88.2033 172.384 87.8246 172.384C87.574 172.384 87.3286 172.427 87.0886 172.512C86.8486 172.592 86.646 172.701 86.4806 172.84L86.1606 172.264C86.3793 172.088 86.6406 171.955 86.9446 171.864C87.254 171.768 87.5766 171.72 87.9126 171.72C88.494 171.72 88.942 171.861 89.2566 172.144C89.5713 172.427 89.7286 172.859 89.7286 173.44V176H89.0006ZM87.6086 176.048C87.294 176.048 87.0166 175.995 86.7766 175.888C86.542 175.781 86.3606 175.635 86.2326 175.448C86.1046 175.256 86.0406 175.04 86.0406 174.8C86.0406 174.571 86.094 174.363 86.2006 174.176C86.3126 173.989 86.4913 173.84 86.7366 173.728C86.9873 173.616 87.3233 173.56 87.7446 173.56H89.0886V174.112H87.7766C87.3926 174.112 87.134 174.176 87.0006 174.304C86.8673 174.432 86.8006 174.587 86.8006 174.768C86.8006 174.976 86.8833 175.144 87.0486 175.272C87.214 175.395 87.4433 175.456 87.7366 175.456C88.0246 175.456 88.2753 175.392 88.4886 175.264C88.7073 175.136 88.8646 174.949 88.9606 174.704L89.1126 175.232C89.0113 175.483 88.8326 175.683 88.5766 175.832C88.3206 175.976 87.998 176.048 87.6086 176.048ZM91.1499 176V171.76H91.8859V172.912L91.8139 172.624C91.9312 172.331 92.1285 172.107 92.4059 171.952C92.6832 171.797 93.0245 171.72 93.4299 171.72V172.464C93.3979 172.459 93.3659 172.456 93.3339 172.456C93.3072 172.456 93.2805 172.456 93.2539 172.456C92.8432 172.456 92.5179 172.579 92.2779 172.824C92.0379 173.069 91.9179 173.424 91.9179 173.888V176H91.1499Z" fill="black" fill-opacity="0.6"/>
<path d="M104.992 176L107.528 170.4H108.32L110.864 176H110.024L107.76 170.848H108.08L105.816 176H104.992ZM106.072 174.6L106.288 173.96H109.44L109.672 174.6H106.072ZM113.835 176.048C113.483 176.048 113.161 175.968 112.867 175.808C112.579 175.643 112.347 175.4 112.171 175.08C112.001 174.76 111.915 174.36 111.915 173.88C111.915 173.4 111.998 173 112.163 172.68C112.334 172.36 112.563 172.12 112.851 171.96C113.145 171.8 113.473 171.72 113.835 171.72C114.251 171.72 114.619 171.811 114.939 171.992C115.259 172.173 115.513 172.427 115.699 172.752C115.886 173.072 115.979 173.448 115.979 173.88C115.979 174.312 115.886 174.691 115.699 175.016C115.513 175.341 115.259 175.595 114.939 175.776C114.619 175.957 114.251 176.048 113.835 176.048ZM111.587 177.552V171.76H112.323V172.904L112.275 173.888L112.355 174.872V177.552H111.587ZM113.771 175.376C114.043 175.376 114.286 175.315 114.499 175.192C114.718 175.069 114.889 174.896 115.011 174.672C115.139 174.443 115.203 174.179 115.203 173.88C115.203 173.576 115.139 173.315 115.011 173.096C114.889 172.872 114.718 172.699 114.499 172.576C114.286 172.453 114.043 172.392 113.771 172.392C113.505 172.392 113.262 172.453 113.043 172.576C112.83 172.699 112.659 172.872 112.531 173.096C112.409 173.315 112.347 173.576 112.347 173.88C112.347 174.179 112.409 174.443 112.531 174.672C112.659 174.896 112.83 175.069 113.043 175.192C113.262 175.315 113.505 175.376 113.771 175.376ZM117.041 176V171.76H117.777V172.912L117.705 172.624C117.822 172.331 118.019 172.107 118.297 171.952C118.574 171.797 118.915 171.72 119.321 171.72V172.464C119.289 172.459 119.257 172.456 119.225 172.456C119.198 172.456 119.171 172.456 119.145 172.456C118.734 172.456 118.409 172.579 118.169 172.824C117.929 173.069 117.809 173.424 117.809 173.888V176H117.041Z" fill="black" fill-opacity="0.6"/>
<path d="M131.84 176V170.4H132.496L135.008 174.632H134.656L137.136 170.4H137.792L137.8 176H137.032L137.024 171.608H137.208L135 175.32H134.632L132.408 171.608H132.608V176H131.84ZM142.001 176V175.104L141.961 174.936V173.408C141.961 173.083 141.865 172.832 141.673 172.656C141.486 172.475 141.203 172.384 140.825 172.384C140.574 172.384 140.329 172.427 140.089 172.512C139.849 172.592 139.646 172.701 139.481 172.84L139.161 172.264C139.379 172.088 139.641 171.955 139.945 171.864C140.254 171.768 140.577 171.72 140.913 171.72C141.494 171.72 141.942 171.861 142.257 172.144C142.571 172.427 142.729 172.859 142.729 173.44V176H142.001ZM140.609 176.048C140.294 176.048 140.017 175.995 139.777 175.888C139.542 175.781 139.361 175.635 139.233 175.448C139.105 175.256 139.041 175.04 139.041 174.8C139.041 174.571 139.094 174.363 139.201 174.176C139.313 173.989 139.491 173.84 139.737 173.728C139.987 173.616 140.323 173.56 140.745 173.56H142.089V174.112H140.777C140.393 174.112 140.134 174.176 140.001 174.304C139.867 174.432 139.801 174.587 139.801 174.768C139.801 174.976 139.883 175.144 140.049 175.272C140.214 175.395 140.443 175.456 140.737 175.456C141.025 175.456 141.275 175.392 141.489 175.264C141.707 175.136 141.865 174.949 141.961 174.704L142.113 175.232C142.011 175.483 141.833 175.683 141.577 175.832C141.321 175.976 140.998 176.048 140.609 176.048ZM144.256 177.6C144.053 177.6 143.856 177.565 143.664 177.496C143.472 177.432 143.306 177.336 143.168 177.208L143.496 176.632C143.602 176.733 143.72 176.811 143.848 176.864C143.976 176.917 144.112 176.944 144.256 176.944C144.442 176.944 144.597 176.896 144.72 176.8C144.842 176.704 144.957 176.533 145.064 176.288L145.328 175.704L145.408 175.608L147.072 171.76H147.824L145.768 176.424C145.645 176.723 145.506 176.957 145.352 177.128C145.202 177.299 145.037 177.419 144.856 177.488C144.674 177.563 144.474 177.6 144.256 177.6ZM145.264 176.136L143.328 171.76H144.128L145.776 175.536L145.264 176.136Z" fill="black" fill-opacity="0.6"/>
<path d="M161.56 176.064C161.229 176.064 160.92 175.995 160.632 175.856C160.344 175.717 160.109 175.517 159.928 175.256L160.392 174.712C160.547 174.925 160.72 175.091 160.912 175.208C161.109 175.32 161.325 175.376 161.56 175.376C162.2 175.376 162.52 174.997 162.52 174.24V171.096H160.496V170.4H163.312V174.2C163.312 174.824 163.163 175.291 162.864 175.6C162.571 175.909 162.136 176.064 161.56 176.064ZM166.614 176.048C166.251 176.048 165.931 175.981 165.654 175.848C165.382 175.715 165.168 175.512 165.014 175.24C164.864 174.963 164.79 174.616 164.79 174.2V171.76H165.558V174.112C165.558 174.528 165.656 174.84 165.854 175.048C166.056 175.256 166.339 175.36 166.702 175.36C166.968 175.36 167.2 175.307 167.398 175.2C167.595 175.088 167.747 174.928 167.854 174.72C167.96 174.507 168.014 174.251 168.014 173.952V171.76H168.782V176H168.054V174.856L168.174 175.16C168.035 175.443 167.827 175.661 167.55 175.816C167.272 175.971 166.96 176.048 166.614 176.048ZM172.508 171.72C172.854 171.72 173.158 171.787 173.42 171.92C173.686 172.053 173.894 172.256 174.044 172.528C174.193 172.8 174.268 173.144 174.268 173.56V176H173.5V173.648C173.5 173.237 173.398 172.928 173.196 172.72C172.998 172.512 172.718 172.408 172.356 172.408C172.084 172.408 171.846 172.461 171.644 172.568C171.441 172.675 171.284 172.832 171.172 173.04C171.065 173.248 171.012 173.507 171.012 173.816V176H170.244V171.76H170.98V172.904L170.86 172.6C170.998 172.323 171.212 172.107 171.5 171.952C171.788 171.797 172.124 171.72 172.508 171.72Z" fill="black" fill-opacity="0.6"/>
<path d="M187.56 176.064C187.229 176.064 186.92 175.995 186.632 175.856C186.344 175.717 186.109 175.517 185.928 175.256L186.392 174.712C186.547 174.925 186.72 175.091 186.912 175.208C187.109 175.32 187.325 175.376 187.56 175.376C188.2 175.376 188.52 174.997 188.52 174.24V171.096H186.496V170.4H189.312V174.2C189.312 174.824 189.163 175.291 188.864 175.6C188.571 175.909 188.136 176.064 187.56 176.064ZM192.614 176.048C192.251 176.048 191.931 175.981 191.654 175.848C191.382 175.715 191.168 175.512 191.014 175.24C190.864 174.963 190.79 174.616 190.79 174.2V171.76H191.558V174.112C191.558 174.528 191.656 174.84 191.854 175.048C192.056 175.256 192.339 175.36 192.702 175.36C192.968 175.36 193.2 175.307 193.398 175.2C193.595 175.088 193.747 174.928 193.854 174.72C193.96 174.507 194.014 174.251 194.014 173.952V171.76H194.782V176H194.054V174.856L194.174 175.16C194.035 175.443 193.827 175.661 193.55 175.816C193.272 175.971 192.96 176.048 192.614 176.048ZM196.244 176V170.064H197.012V176H196.244Z" fill="black" fill-opacity="0.6"/>
<path d="M207.992 176L210.528 170.4H211.32L213.864 176H213.024L210.76 170.848H211.08L208.816 176H207.992ZM209.072 174.6L209.288 173.96H212.44L212.672 174.6H209.072ZM216.293 176.048C215.931 176.048 215.611 175.981 215.333 175.848C215.061 175.715 214.848 175.512 214.693 175.24C214.544 174.963 214.469 174.616 214.469 174.2V171.76H215.237V174.112C215.237 174.528 215.336 174.84 215.533 175.048C215.736 175.256 216.019 175.36 216.381 175.36C216.648 175.36 216.88 175.307 217.077 175.2C217.275 175.088 217.427 174.928 217.533 174.72C217.64 174.507 217.693 174.251 217.693 173.952V171.76H218.461V176H217.733V174.856L217.853 175.16C217.715 175.443 217.507 175.661 217.229 175.816C216.952 175.971 216.64 176.048 216.293 176.048ZM221.779 177.6C221.39 177.6 221.011 177.544 220.643 177.432C220.281 177.325 219.985 177.171 219.755 176.968L220.123 176.376C220.321 176.547 220.563 176.68 220.851 176.776C221.139 176.877 221.441 176.928 221.755 176.928C222.257 176.928 222.625 176.811 222.859 176.576C223.094 176.341 223.211 175.984 223.211 175.504V174.608L223.291 173.768L223.251 172.92V171.76H223.979V175.424C223.979 176.171 223.793 176.72 223.419 177.072C223.046 177.424 222.499 177.6 221.779 177.6ZM221.683 175.824C221.273 175.824 220.905 175.739 220.579 175.568C220.259 175.392 220.003 175.149 219.811 174.84C219.625 174.531 219.531 174.173 219.531 173.768C219.531 173.357 219.625 173 219.811 172.696C220.003 172.387 220.259 172.147 220.579 171.976C220.905 171.805 221.273 171.72 221.683 171.72C222.046 171.72 222.377 171.795 222.675 171.944C222.974 172.088 223.211 172.312 223.387 172.616C223.569 172.92 223.659 173.304 223.659 173.768C223.659 174.227 223.569 174.608 223.387 174.912C223.211 175.216 222.974 175.445 222.675 175.6C222.377 175.749 222.046 175.824 221.683 175.824ZM221.771 175.152C222.054 175.152 222.305 175.093 222.523 174.976C222.742 174.859 222.913 174.696 223.035 174.488C223.163 174.28 223.227 174.04 223.227 173.768C223.227 173.496 223.163 173.256 223.035 173.048C222.913 172.84 222.742 172.68 222.523 172.568C222.305 172.451 222.054 172.392 221.771 172.392C221.489 172.392 221.235 172.451 221.011 172.568C220.793 172.68 220.619 172.84 220.491 173.048C220.369 173.256 220.307 173.496 220.307 173.768C220.307 174.04 220.369 174.28 220.491 174.488C220.619 174.696 220.793 174.859 221.011 174.976C221.235 175.093 221.489 175.152 221.771 175.152Z" fill="black" fill-opacity="0.6"/>
<path d="M238.472 176.064C238.045 176.064 237.637 176 237.248 175.872C236.859 175.739 236.552 175.568 236.328 175.36L236.624 174.736C236.837 174.923 237.109 175.077 237.44 175.2C237.771 175.323 238.115 175.384 238.472 175.384C238.797 175.384 239.061 175.347 239.264 175.272C239.467 175.197 239.616 175.096 239.712 174.968C239.808 174.835 239.856 174.685 239.856 174.52C239.856 174.328 239.792 174.173 239.664 174.056C239.541 173.939 239.379 173.845 239.176 173.776C238.979 173.701 238.76 173.637 238.52 173.584C238.28 173.531 238.037 173.469 237.792 173.4C237.552 173.325 237.331 173.232 237.128 173.12C236.931 173.008 236.771 172.859 236.648 172.672C236.525 172.48 236.464 172.235 236.464 171.936C236.464 171.648 236.539 171.384 236.688 171.144C236.843 170.899 237.077 170.704 237.392 170.56C237.712 170.411 238.117 170.336 238.608 170.336C238.933 170.336 239.256 170.379 239.576 170.464C239.896 170.549 240.173 170.672 240.408 170.832L240.144 171.472C239.904 171.312 239.651 171.197 239.384 171.128C239.117 171.053 238.859 171.016 238.608 171.016C238.293 171.016 238.035 171.056 237.832 171.136C237.629 171.216 237.48 171.323 237.384 171.456C237.293 171.589 237.248 171.739 237.248 171.904C237.248 172.101 237.309 172.259 237.432 172.376C237.56 172.493 237.723 172.587 237.92 172.656C238.123 172.725 238.344 172.789 238.584 172.848C238.824 172.901 239.064 172.963 239.304 173.032C239.549 173.101 239.771 173.192 239.968 173.304C240.171 173.416 240.333 173.565 240.456 173.752C240.579 173.939 240.64 174.179 240.64 174.472C240.64 174.755 240.563 175.019 240.408 175.264C240.253 175.504 240.013 175.699 239.688 175.848C239.368 175.992 238.963 176.064 238.472 176.064ZM243.585 176.048C243.131 176.048 242.731 175.955 242.385 175.768C242.043 175.581 241.777 175.325 241.585 175C241.398 174.675 241.305 174.301 241.305 173.88C241.305 173.459 241.395 173.085 241.577 172.76C241.763 172.435 242.017 172.181 242.337 172C242.662 171.813 243.027 171.72 243.433 171.72C243.843 171.72 244.206 171.811 244.521 171.992C244.835 172.173 245.081 172.429 245.257 172.76C245.438 173.085 245.529 173.467 245.529 173.904C245.529 173.936 245.526 173.973 245.521 174.016C245.521 174.059 245.518 174.099 245.513 174.136H241.905V173.584H245.113L244.801 173.776C244.806 173.504 244.75 173.261 244.633 173.048C244.515 172.835 244.353 172.669 244.145 172.552C243.942 172.429 243.705 172.368 243.433 172.368C243.166 172.368 242.929 172.429 242.721 172.552C242.513 172.669 242.35 172.837 242.233 173.056C242.115 173.269 242.057 173.515 242.057 173.792V173.92C242.057 174.203 242.121 174.456 242.249 174.68C242.382 174.899 242.566 175.069 242.801 175.192C243.035 175.315 243.305 175.376 243.609 175.376C243.859 175.376 244.086 175.333 244.289 175.248C244.497 175.163 244.678 175.035 244.833 174.864L245.257 175.36C245.065 175.584 244.825 175.755 244.537 175.872C244.254 175.989 243.937 176.048 243.585 176.048ZM248.843 176.048C248.491 176.048 248.169 175.968 247.875 175.808C247.587 175.643 247.355 175.4 247.179 175.08C247.009 174.76 246.923 174.36 246.923 173.88C246.923 173.4 247.006 173 247.171 172.68C247.342 172.36 247.571 172.12 247.859 171.96C248.153 171.8 248.481 171.72 248.843 171.72C249.259 171.72 249.627 171.811 249.947 171.992C250.267 172.173 250.521 172.427 250.707 172.752C250.894 173.072 250.987 173.448 250.987 173.88C250.987 174.312 250.894 174.691 250.707 175.016C250.521 175.341 250.267 175.595 249.947 175.776C249.627 175.957 249.259 176.048 248.843 176.048ZM246.595 177.552V171.76H247.331V172.904L247.283 173.888L247.363 174.872V177.552H246.595ZM248.779 175.376C249.051 175.376 249.294 175.315 249.507 175.192C249.726 175.069 249.897 174.896 250.019 174.672C250.147 174.443 250.211 174.179 250.211 173.88C250.211 173.576 250.147 173.315 250.019 173.096C249.897 172.872 249.726 172.699 249.507 172.576C249.294 172.453 249.051 172.392 248.779 172.392C248.513 172.392 248.27 172.453 248.051 172.576C247.838 172.699 247.667 172.872 247.539 173.096C247.417 173.315 247.355 173.576 247.355 173.88C247.355 174.179 247.417 174.443 247.539 174.672C247.667 174.896 247.838 175.069 248.051 175.192C248.27 175.315 248.513 175.376 248.779 175.376Z" fill="black" fill-opacity="0.6"/>
<path d="M266.368 176.064C265.941 176.064 265.544 175.992 265.176 175.848C264.813 175.704 264.499 175.504 264.232 175.248C263.965 174.987 263.757 174.683 263.608 174.336C263.459 173.989 263.384 173.611 263.384 173.2C263.384 172.789 263.459 172.411 263.608 172.064C263.757 171.717 263.965 171.416 264.232 171.16C264.499 170.899 264.813 170.696 265.176 170.552C265.539 170.408 265.936 170.336 266.368 170.336C266.795 170.336 267.187 170.408 267.544 170.552C267.907 170.691 268.221 170.891 268.488 171.152C268.76 171.408 268.968 171.709 269.112 172.056C269.261 172.403 269.336 172.784 269.336 173.2C269.336 173.616 269.261 173.997 269.112 174.344C268.968 174.691 268.76 174.995 268.488 175.256C268.221 175.512 267.907 175.712 267.544 175.856C267.187 175.995 266.795 176.064 266.368 176.064ZM266.368 175.352C266.677 175.352 266.963 175.299 267.224 175.192C267.491 175.085 267.72 174.936 267.912 174.744C268.109 174.547 268.261 174.317 268.368 174.056C268.48 173.795 268.536 173.509 268.536 173.2C268.536 172.891 268.48 172.605 268.368 172.344C268.261 172.083 268.109 171.856 267.912 171.664C267.72 171.467 267.491 171.315 267.224 171.208C266.963 171.101 266.677 171.048 266.368 171.048C266.053 171.048 265.763 171.101 265.496 171.208C265.235 171.315 265.005 171.467 264.808 171.664C264.611 171.856 264.456 172.083 264.344 172.344C264.237 172.605 264.184 172.891 264.184 173.2C264.184 173.509 264.237 173.795 264.344 174.056C264.456 174.317 264.611 174.547 264.808 174.744C265.005 174.936 265.235 175.085 265.496 175.192C265.763 175.299 266.053 175.352 266.368 175.352ZM272.295 176.048C271.863 176.048 271.476 175.955 271.135 175.768C270.799 175.581 270.535 175.325 270.343 175C270.151 174.675 270.055 174.301 270.055 173.88C270.055 173.459 270.151 173.085 270.343 172.76C270.535 172.435 270.799 172.181 271.135 172C271.476 171.813 271.863 171.72 272.295 171.72C272.679 171.72 273.02 171.797 273.319 171.952C273.623 172.101 273.857 172.325 274.023 172.624L273.439 173C273.3 172.792 273.129 172.64 272.927 172.544C272.729 172.443 272.516 172.392 272.287 172.392C272.009 172.392 271.761 172.453 271.543 172.576C271.324 172.699 271.151 172.872 271.023 173.096C270.895 173.315 270.831 173.576 270.831 173.88C270.831 174.184 270.895 174.448 271.023 174.672C271.151 174.896 271.324 175.069 271.543 175.192C271.761 175.315 272.009 175.376 272.287 175.376C272.516 175.376 272.729 175.328 272.927 175.232C273.129 175.131 273.3 174.976 273.439 174.768L274.023 175.136C273.857 175.429 273.623 175.656 273.319 175.816C273.02 175.971 272.679 176.048 272.295 176.048ZM276.528 176.048C276.101 176.048 275.77 175.933 275.536 175.704C275.301 175.475 275.184 175.147 275.184 174.72V170.832H275.952V174.688C275.952 174.917 276.008 175.093 276.12 175.216C276.237 175.339 276.402 175.4 276.616 175.4C276.856 175.4 277.056 175.333 277.216 175.2L277.456 175.752C277.338 175.853 277.197 175.928 277.032 175.976C276.872 176.024 276.704 176.048 276.528 176.048ZM274.464 172.392V171.76H277.168V172.392H274.464Z" fill="black" fill-opacity="0.6"/>
<path d="M289.84 176V170.4H290.496L294.2 175H293.856V170.4H294.656V176H294L290.296 171.4H290.64V176H289.84ZM298.036 176.048C297.61 176.048 297.231 175.955 296.9 175.768C296.57 175.581 296.308 175.325 296.116 175C295.924 174.669 295.828 174.296 295.828 173.88C295.828 173.459 295.924 173.085 296.116 172.76C296.308 172.435 296.57 172.181 296.9 172C297.231 171.813 297.61 171.72 298.036 171.72C298.458 171.72 298.834 171.813 299.164 172C299.5 172.181 299.762 172.435 299.948 172.76C300.14 173.08 300.236 173.453 300.236 173.88C300.236 174.301 300.14 174.675 299.948 175C299.762 175.325 299.5 175.581 299.164 175.768C298.834 175.955 298.458 176.048 298.036 176.048ZM298.036 175.376C298.308 175.376 298.551 175.315 298.764 175.192C298.983 175.069 299.154 174.896 299.276 174.672C299.399 174.443 299.46 174.179 299.46 173.88C299.46 173.576 299.399 173.315 299.276 173.096C299.154 172.872 298.983 172.699 298.764 172.576C298.551 172.453 298.308 172.392 298.036 172.392C297.764 172.392 297.522 172.453 297.308 172.576C297.095 172.699 296.924 172.872 296.796 173.096C296.668 173.315 296.604 173.576 296.604 173.88C296.604 174.179 296.668 174.443 296.796 174.672C296.924 174.896 297.095 175.069 297.308 175.192C297.522 175.315 297.764 175.376 298.036 175.376ZM302.293 176L300.437 171.76H301.237L302.885 175.6H302.501L304.181 171.76H304.933L303.077 176H302.293Z" fill="black" fill-opacity="0.6"/>
<path d="M316.84 176V170.4H319.2C319.797 170.4 320.323 170.517 320.776 170.752C321.235 170.987 321.589 171.315 321.84 171.736C322.096 172.157 322.224 172.645 322.224 173.2C322.224 173.755 322.096 174.243 321.84 174.664C321.589 175.085 321.235 175.413 320.776 175.648C320.323 175.883 319.797 176 319.2 176H316.84ZM317.64 175.304H319.152C319.616 175.304 320.016 175.216 320.352 175.04C320.693 174.864 320.957 174.619 321.144 174.304C321.331 173.984 321.424 173.616 321.424 173.2C321.424 172.779 321.331 172.411 321.144 172.096C320.957 171.781 320.693 171.536 320.352 171.36C320.016 171.184 319.616 171.096 319.152 171.096H317.64V175.304ZM325.225 176.048C324.772 176.048 324.372 175.955 324.025 175.768C323.684 175.581 323.417 175.325 323.225 175C323.039 174.675 322.945 174.301 322.945 173.88C322.945 173.459 323.036 173.085 323.217 172.76C323.404 172.435 323.657 172.181 323.977 172C324.303 171.813 324.668 171.72 325.073 171.72C325.484 171.72 325.847 171.811 326.161 171.992C326.476 172.173 326.721 172.429 326.897 172.76C327.079 173.085 327.169 173.467 327.169 173.904C327.169 173.936 327.167 173.973 327.161 174.016C327.161 174.059 327.159 174.099 327.153 174.136H323.545V173.584H326.753L326.441 173.776C326.447 173.504 326.391 173.261 326.273 173.048C326.156 172.835 325.993 172.669 325.785 172.552C325.583 172.429 325.345 172.368 325.073 172.368C324.807 172.368 324.569 172.429 324.361 172.552C324.153 172.669 323.991 172.837 323.873 173.056C323.756 173.269 323.697 173.515 323.697 173.792V173.92C323.697 174.203 323.761 174.456 323.889 174.68C324.023 174.899 324.207 175.069 324.441 175.192C324.676 175.315 324.945 175.376 325.249 175.376C325.5 175.376 325.727 175.333 325.929 175.248C326.137 175.163 326.319 175.035 326.473 174.864L326.897 175.36C326.705 175.584 326.465 175.755 326.177 175.872C325.895 175.989 325.577 176.048 325.225 176.048ZM330.084 176.048C329.652 176.048 329.265 175.955 328.924 175.768C328.588 175.581 328.324 175.325 328.132 175C327.94 174.675 327.844 174.301 327.844 173.88C327.844 173.459 327.94 173.085 328.132 172.76C328.324 172.435 328.588 172.181 328.924 172C329.265 171.813 329.652 171.72 330.084 171.72C330.468 171.72 330.809 171.797 331.108 171.952C331.412 172.101 331.646 172.325 331.812 172.624L331.228 173C331.089 172.792 330.918 172.64 330.716 172.544C330.518 172.443 330.305 172.392 330.076 172.392C329.798 172.392 329.55 172.453 329.332 172.576C329.113 172.699 328.94 172.872 328.812 173.096C328.684 173.315 328.62 173.576 328.62 173.88C328.62 174.184 328.684 174.448 328.812 174.672C328.94 174.896 329.113 175.069 329.332 175.192C329.55 175.315 329.798 175.376 330.076 175.376C330.305 175.376 330.518 175.328 330.716 175.232C330.918 175.131 331.089 174.976 331.228 174.768L331.812 175.136C331.646 175.429 331.412 175.656 331.108 175.816C330.809 175.971 330.468 176.048 330.084 176.048Z" fill="black" fill-opacity="0.6"/>
<path d="M3.296 127V126.456L5.576 124.256C5.77867 124.064 5.928 123.896 6.024 123.752C6.12533 123.603 6.192 123.467 6.224 123.344C6.26133 123.216 6.28 123.093 6.28 122.976C6.28 122.688 6.17867 122.461 5.976 122.296C5.77333 122.131 5.47733 122.048 5.088 122.048C4.78933 122.048 4.52 122.099 4.28 122.2C4.04 122.296 3.832 122.448 3.656 122.656L3.112 122.184C3.32533 121.912 3.61067 121.704 3.968 121.56C4.33067 121.411 4.728 121.336 5.16 121.336C5.54933 121.336 5.888 121.4 6.176 121.528C6.464 121.651 6.68533 121.829 6.84 122.064C7 122.299 7.08 122.576 7.08 122.896C7.08 123.077 7.056 123.256 7.008 123.432C6.96 123.608 6.86933 123.795 6.736 123.992C6.60267 124.189 6.41067 124.411 6.16 124.656L4.128 126.616L3.936 126.304H7.32V127H3.296ZM10.2579 127.064C9.8206 127.064 9.4286 126.952 9.08194 126.728C8.7406 126.504 8.4686 126.179 8.26594 125.752C8.0686 125.325 7.96994 124.808 7.96994 124.2C7.96994 123.592 8.0686 123.075 8.26594 122.648C8.4686 122.221 8.7406 121.896 9.08194 121.672C9.4286 121.448 9.8206 121.336 10.2579 121.336C10.6899 121.336 11.0793 121.448 11.4259 121.672C11.7726 121.896 12.0446 122.221 12.2419 122.648C12.4393 123.075 12.5379 123.592 12.5379 124.2C12.5379 124.808 12.4393 125.325 12.2419 125.752C12.0446 126.179 11.7726 126.504 11.4259 126.728C11.0793 126.952 10.6899 127.064 10.2579 127.064ZM10.2579 126.352C10.5513 126.352 10.8073 126.272 11.0259 126.112C11.2499 125.952 11.4233 125.712 11.5459 125.392C11.6739 125.072 11.7379 124.675 11.7379 124.2C11.7379 123.725 11.6739 123.328 11.5459 123.008C11.4233 122.688 11.2499 122.448 11.0259 122.288C10.8073 122.128 10.5513 122.048 10.2579 122.048C9.9646 122.048 9.70594 122.128 9.48194 122.288C9.25794 122.448 9.08194 122.688 8.95394 123.008C8.83127 123.328 8.76994 123.725 8.76994 124.2C8.76994 124.675 8.83127 125.072 8.95394 125.392C9.08194 125.712 9.25794 125.952 9.48194 126.112C9.70594 126.272 9.9646 126.352 10.2579 126.352Z" fill="black" fill-opacity="0.6"/>
<path d="M2.304 96.624V96.064L5.168 92.4H6.032L3.192 96.064L2.784 95.936H7.256V96.624H2.304ZM5.416 98V96.624L5.44 95.936V94.72H6.192V98H5.416ZM10.0236 98.064C9.58623 98.064 9.19423 97.952 8.84756 97.728C8.50623 97.504 8.23423 97.1787 8.03156 96.752C7.83423 96.3253 7.73556 95.808 7.73556 95.2C7.73556 94.592 7.83423 94.0747 8.03156 93.648C8.23423 93.2213 8.50623 92.896 8.84756 92.672C9.19423 92.448 9.58623 92.336 10.0236 92.336C10.4556 92.336 10.8449 92.448 11.1916 92.672C11.5382 92.896 11.8102 93.2213 12.0076 93.648C12.2049 94.0747 12.3036 94.592 12.3036 95.2C12.3036 95.808 12.2049 96.3253 12.0076 96.752C11.8102 97.1787 11.5382 97.504 11.1916 97.728C10.8449 97.952 10.4556 98.064 10.0236 98.064ZM10.0236 97.352C10.3169 97.352 10.5729 97.272 10.7916 97.112C11.0156 96.952 11.1889 96.712 11.3116 96.392C11.4396 96.072 11.5036 95.6747 11.5036 95.2C11.5036 94.7253 11.4396 94.328 11.3116 94.008C11.1889 93.688 11.0156 93.448 10.7916 93.288C10.5729 93.128 10.3169 93.048 10.0236 93.048C9.73023 93.048 9.47156 93.128 9.24756 93.288C9.02356 93.448 8.84756 93.688 8.71956 94.008C8.5969 94.328 8.53556 94.7253 8.53556 95.2C8.53556 95.6747 8.5969 96.072 8.71956 96.392C8.84756 96.712 9.02356 96.952 9.24756 97.112C9.47156 97.272 9.73023 97.352 10.0236 97.352Z" fill="black" fill-opacity="0.6"/>
<path d="M4.736 69.064C4.24 69.064 3.816 68.9547 3.464 68.736C3.112 68.5173 2.84267 68.2027 2.656 67.792C2.47467 67.376 2.384 66.8693 2.384 66.272C2.384 65.6373 2.496 65.1013 2.72 64.664C2.944 64.2267 3.256 63.896 3.656 63.672C4.056 63.448 4.51467 63.336 5.032 63.336C5.29867 63.336 5.552 63.3627 5.792 63.416C6.03733 63.4693 6.248 63.552 6.424 63.664L6.12 64.288C5.976 64.1867 5.81067 64.1173 5.624 64.08C5.44267 64.0427 5.25067 64.024 5.048 64.024C4.47733 64.024 4.024 64.2027 3.688 64.56C3.352 64.912 3.184 65.4373 3.184 66.136C3.184 66.248 3.18933 66.3813 3.2 66.536C3.21067 66.6907 3.23733 66.8427 3.28 66.992L3.008 66.72C3.088 66.4747 3.21333 66.2693 3.384 66.104C3.56 65.9333 3.768 65.808 4.008 65.728C4.25333 65.6427 4.51733 65.6 4.8 65.6C5.17333 65.6 5.504 65.6693 5.792 65.808C6.08 65.9467 6.30667 66.144 6.472 66.4C6.63733 66.6507 6.72 66.9493 6.72 67.296C6.72 67.6533 6.632 67.9653 6.456 68.232C6.28 68.4987 6.04267 68.704 5.744 68.848C5.44533 68.992 5.10933 69.064 4.736 69.064ZM4.704 68.416C4.94933 68.416 5.16267 68.3707 5.344 68.28C5.53067 68.1893 5.67733 68.064 5.784 67.904C5.89067 67.7387 5.944 67.5467 5.944 67.328C5.944 66.9973 5.82933 66.736 5.6 66.544C5.37067 66.3467 5.05867 66.248 4.664 66.248C4.408 66.248 4.184 66.296 3.992 66.392C3.8 66.488 3.648 66.6187 3.536 66.784C3.42933 66.944 3.376 67.128 3.376 67.336C3.376 67.528 3.42667 67.7067 3.528 67.872C3.62933 68.032 3.77867 68.1627 3.976 68.264C4.17333 68.3653 4.416 68.416 4.704 68.416ZM9.6095 69.064C9.17217 69.064 8.78017 68.952 8.4335 68.728C8.09217 68.504 7.82017 68.1787 7.6175 67.752C7.42017 67.3253 7.3215 66.808 7.3215 66.2C7.3215 65.592 7.42017 65.0747 7.6175 64.648C7.82017 64.2213 8.09217 63.896 8.4335 63.672C8.78017 63.448 9.17217 63.336 9.6095 63.336C10.0415 63.336 10.4308 63.448 10.7775 63.672C11.1242 63.896 11.3962 64.2213 11.5935 64.648C11.7908 65.0747 11.8895 65.592 11.8895 66.2C11.8895 66.808 11.7908 67.3253 11.5935 67.752C11.3962 68.1787 11.1242 68.504 10.7775 68.728C10.4308 68.952 10.0415 69.064 9.6095 69.064ZM9.6095 68.352C9.90283 68.352 10.1588 68.272 10.3775 68.112C10.6015 67.952 10.7748 67.712 10.8975 67.392C11.0255 67.072 11.0895 66.6747 11.0895 66.2C11.0895 65.7253 11.0255 65.328 10.8975 65.008C10.7748 64.688 10.6015 64.448 10.3775 64.288C10.1588 64.128 9.90283 64.048 9.6095 64.048C9.31617 64.048 9.0575 64.128 8.8335 64.288C8.6095 64.448 8.4335 64.688 8.3055 65.008C8.18283 65.328 8.1215 65.7253 8.1215 66.2C8.1215 66.6747 8.18283 67.072 8.3055 67.392C8.4335 67.712 8.6095 67.952 8.8335 68.112C9.0575 68.272 9.31617 68.352 9.6095 68.352Z" fill="black" fill-opacity="0.6"/>
<path d="M4.568 39.064C4.11467 39.064 3.72267 38.9973 3.392 38.864C3.06133 38.7307 2.80533 38.5413 2.624 38.296C2.44267 38.0453 2.352 37.752 2.352 37.416C2.352 37.0853 2.43733 36.8053 2.608 36.576C2.784 36.3413 3.03733 36.1653 3.368 36.048C3.69867 35.9253 4.09867 35.864 4.568 35.864C5.03733 35.864 5.43733 35.9253 5.768 36.048C6.104 36.1653 6.36 36.3413 6.536 36.576C6.712 36.8107 6.8 37.0907 6.8 37.416C6.8 37.752 6.70933 38.0453 6.528 38.296C6.34667 38.5413 6.088 38.7307 5.752 38.864C5.416 38.9973 5.02133 39.064 4.568 39.064ZM4.568 38.416C5.016 38.416 5.36533 38.3253 5.616 38.144C5.872 37.9573 6 37.7067 6 37.392C6 37.0827 5.872 36.84 5.616 36.664C5.36533 36.4827 5.016 36.392 4.568 36.392C4.12533 36.392 3.77867 36.4827 3.528 36.664C3.27733 36.84 3.152 37.0827 3.152 37.392C3.152 37.7067 3.27733 37.9573 3.528 38.144C3.77867 38.3253 4.12533 38.416 4.568 38.416ZM4.568 36.296C4.14133 36.296 3.77867 36.24 3.48 36.128C3.18133 36.0107 2.952 35.8453 2.792 35.632C2.632 35.4133 2.552 35.1547 2.552 34.856C2.552 34.5413 2.63467 34.272 2.8 34.048C2.97067 33.8187 3.208 33.6427 3.512 33.52C3.816 33.3973 4.168 33.336 4.568 33.336C4.97333 33.336 5.328 33.3973 5.632 33.52C5.936 33.6427 6.17333 33.8187 6.344 34.048C6.51467 34.272 6.6 34.5413 6.6 34.856C6.6 35.1547 6.52 35.4133 6.36 35.632C6.2 35.8453 5.968 36.0107 5.664 36.128C5.36 36.24 4.99467 36.296 4.568 36.296ZM4.568 35.784C4.95733 35.784 5.26133 35.704 5.48 35.544C5.704 35.384 5.816 35.1653 5.816 34.888C5.816 34.6053 5.70133 34.384 5.472 34.224C5.24267 34.064 4.94133 33.984 4.568 33.984C4.19467 33.984 3.896 34.064 3.672 34.224C3.45333 34.384 3.344 34.6053 3.344 34.888C3.344 35.1653 3.45067 35.384 3.664 35.544C3.88267 35.704 4.184 35.784 4.568 35.784ZM9.82044 39.064C9.3831 39.064 8.9911 38.952 8.64444 38.728C8.3031 38.504 8.0311 38.1787 7.82844 37.752C7.6311 37.3253 7.53244 36.808 7.53244 36.2C7.53244 35.592 7.6311 35.0747 7.82844 34.648C8.0311 34.2213 8.3031 33.896 8.64444 33.672C8.9911 33.448 9.3831 33.336 9.82044 33.336C10.2524 33.336 10.6418 33.448 10.9884 33.672C11.3351 33.896 11.6071 34.2213 11.8044 34.648C12.0018 35.0747 12.1004 35.592 12.1004 36.2C12.1004 36.808 12.0018 37.3253 11.8044 37.752C11.6071 38.1787 11.3351 38.504 10.9884 38.728C10.6418 38.952 10.2524 39.064 9.82044 39.064ZM9.82044 38.352C10.1138 38.352 10.3698 38.272 10.5884 38.112C10.8124 37.952 10.9858 37.712 11.1084 37.392C11.2364 37.072 11.3004 36.6747 11.3004 36.2C11.3004 35.7253 11.2364 35.328 11.1084 35.008C10.9858 34.688 10.8124 34.448 10.5884 34.288C10.3698 34.128 10.1138 34.048 9.82044 34.048C9.5271 34.048 9.26844 34.128 9.04444 34.288C8.82044 34.448 8.64444 34.688 8.51644 35.008C8.39377 35.328 8.33244 35.7253 8.33244 36.2C8.33244 36.6747 8.39377 37.072 8.51644 37.392C8.64444 37.712 8.82044 37.952 9.04444 38.112C9.26844 38.272 9.5271 38.352 9.82044 38.352Z" fill="black" fill-opacity="0.6"/>
<path d="M1.328 8V2.72L1.672 3.096H0.064V2.4H2.12V8H1.328ZM5.63294 8.064C5.1956 8.064 4.8036 7.952 4.45694 7.728C4.1156 7.504 3.8436 7.17867 3.64094 6.752C3.4436 6.32533 3.34494 5.808 3.34494 5.2C3.34494 4.592 3.4436 4.07467 3.64094 3.648C3.8436 3.22133 4.1156 2.896 4.45694 2.672C4.8036 2.448 5.1956 2.336 5.63294 2.336C6.06494 2.336 6.45427 2.448 6.80094 2.672C7.1476 2.896 7.4196 3.22133 7.61694 3.648C7.81427 4.07467 7.91294 4.592 7.91294 5.2C7.91294 5.808 7.81427 6.32533 7.61694 6.752C7.4196 7.17867 7.1476 7.504 6.80094 7.728C6.45427 7.952 6.06494 8.064 5.63294 8.064ZM5.63294 7.352C5.92627 7.352 6.18227 7.272 6.40094 7.112C6.62494 6.952 6.79827 6.712 6.92094 6.392C7.04894 6.072 7.11294 5.67467 7.11294 5.2C7.11294 4.72533 7.04894 4.328 6.92094 4.008C6.79827 3.688 6.62494 3.448 6.40094 3.288C6.18227 3.128 5.92627 3.048 5.63294 3.048C5.3396 3.048 5.08094 3.128 4.85694 3.288C4.63294 3.448 4.45694 3.688 4.32894 4.008C4.20627 4.328 4.14494 4.72533 4.14494 5.2C4.14494 5.67467 4.20627 6.072 4.32894 6.392C4.45694 6.712 4.63294 6.952 4.85694 7.112C5.08094 7.272 5.3396 7.352 5.63294 7.352ZM10.9689 8.064C10.5315 8.064 10.1395 7.952 9.79288 7.728C9.45154 7.504 9.17954 7.17867 8.97688 6.752C8.77954 6.32533 8.68088 5.808 8.68088 5.2C8.68088 4.592 8.77954 4.07467 8.97688 3.648C9.17954 3.22133 9.45154 2.896 9.79288 2.672C10.1395 2.448 10.5315 2.336 10.9689 2.336C11.4009 2.336 11.7902 2.448 12.1369 2.672C12.4835 2.896 12.7555 3.22133 12.9529 3.648C13.1502 4.07467 13.2489 4.592 13.2489 5.2C13.2489 5.808 13.1502 6.32533 12.9529 6.752C12.7555 7.17867 12.4835 7.504 12.1369 7.728C11.7902 7.952 11.4009 8.064 10.9689 8.064ZM10.9689 7.352C11.2622 7.352 11.5182 7.272 11.7369 7.112C11.9609 6.952 12.1342 6.712 12.2569 6.392C12.3849 6.072 12.4489 5.67467 12.4489 5.2C12.4489 4.72533 12.3849 4.328 12.2569 4.008C12.1342 3.688 11.9609 3.448 11.7369 3.288C11.5182 3.128 11.2622 3.048 10.9689 3.048C10.6755 3.048 10.4169 3.128 10.1929 3.288C9.96888 3.448 9.79288 3.688 9.66488 4.008C9.54221 4.328 9.48088 4.72533 9.48088 5.2C9.48088 5.67467 9.54221 6.072 9.66488 6.392C9.79288 6.712 9.96888 6.952 10.1929 7.112C10.4169 7.272 10.6755 7.352 10.9689 7.352Z" fill="black" fill-opacity="0.6"/>
</svg>
