<svg width="504" height="281" viewBox="0 0 504 281" fill="none" xmlns="http://www.w3.org/2000/svg">
<g clip-path="url(#clip0_360_1112)">
<path d="M504 39.0042C493.566 40.2019 472.698 39.1716 451.83 44.9929C430.962 50.8143 420.528 56.6261 399.66 68.1108C378.792 79.5955 368.358 95.7413 347.49 102.416C326.622 109.091 316.188 98.0301 295.32 101.486C274.452 104.942 264.018 112.391 243.15 119.696C222.282 127.001 211.848 134.926 190.98 138.011C170.112 141.095 159.678 136.507 138.81 135.119C117.942 133.731 107.508 121.905 86.64 131.072C65.772 140.239 44.904 170.979 34.47 180.956L34 251.05H504V39.0042Z" fill="#264092" fill-opacity="0.101961"/>
<path d="M504 39.0042C493.566 40.2019 472.698 39.1716 451.83 44.9929C430.962 50.8143 420.528 56.6261 399.66 68.1108C378.792 79.5955 368.358 95.7413 347.49 102.416C326.622 109.091 316.188 98.0301 295.32 101.486C274.452 104.942 264.018 112.391 243.15 119.696C222.282 127.001 211.848 134.926 190.98 138.011C170.112 141.095 159.678 136.507 138.81 135.119C117.942 133.731 107.508 121.904 86.64 131.072C65.772 140.239 44.904 170.979 34.47 180.956" stroke="#264092" stroke-width="2"/>
</g>
<rect x="34" y="5.96777" width="470" height="1" fill="black" fill-opacity="0.08"/>
<rect x="34" y="54.946" width="470" height="1" fill="black" fill-opacity="0.08"/>
<rect x="34" y="103.925" width="470" height="1" fill="black" fill-opacity="0.08"/>
<rect x="34" y="152.903" width="470" height="1" fill="black" fill-opacity="0.08"/>
<rect x="34" y="201.881" width="470" height="1" fill="black" fill-opacity="0.08"/>
<rect x="34" y="250.86" width="470" height="1" fill="black" fill-opacity="0.08"/>
<path d="M27.95 278.085C29.38 278.085 30.14 277.315 30.14 275.755V271.005H26.62V271.875H29.15V275.805C29.15 276.745 28.74 277.225 27.95 277.225C27.36 277.225 26.87 276.935 26.49 276.395L25.91 277.075C26.36 277.725 27.12 278.085 27.95 278.085ZM33.967 272.655C33.117 272.655 32.327 272.895 31.777 273.335L32.177 274.055C32.587 273.705 33.227 273.485 33.857 273.485C34.807 273.485 35.277 273.955 35.277 274.765V274.955H33.757C32.177 274.955 31.627 275.655 31.627 276.505C31.627 277.425 32.387 278.065 33.587 278.065C34.417 278.065 35.007 277.785 35.327 277.305V278.005H36.237V274.805C36.237 273.355 35.417 272.655 33.967 272.655ZM33.747 277.325C33.017 277.325 32.577 276.995 32.577 276.465C32.577 276.015 32.847 275.645 33.797 275.645H35.277V276.385C35.037 276.995 34.467 277.325 33.747 277.325ZM40.8435 272.655C40.0035 272.655 39.3235 272.965 38.9335 273.505V272.705H38.0135V278.005H38.9735V275.275C38.9735 274.125 39.6335 273.515 40.6535 273.515C41.5635 273.515 42.0835 274.025 42.0835 275.065V278.005H43.0435V274.955C43.0435 273.395 42.1335 272.655 40.8435 272.655Z" fill="black" fill-opacity="0.6"/>
<path d="M71.99 271.875V271.005H67.05V278.005H68.05V275.175H71.56V274.315H68.05V271.875H71.99ZM77.8816 275.385C77.8816 273.755 76.7916 272.655 75.2616 272.655C73.7316 272.655 72.6016 273.785 72.6016 275.355C72.6016 276.935 73.7416 278.065 75.4516 278.065C76.3316 278.065 77.0616 277.765 77.5416 277.205L77.0116 276.585C76.6216 277.015 76.1016 277.225 75.4816 277.225C74.4316 277.225 73.6816 276.605 73.5616 275.675H77.8616C77.8716 275.585 77.8816 275.465 77.8816 275.385ZM75.2616 273.465C76.1916 273.465 76.8616 274.095 76.9616 274.985H73.5616C73.6616 274.085 74.3416 273.465 75.2616 273.465ZM82.0247 272.655C81.2747 272.655 80.6147 272.935 80.1747 273.505V270.585H79.2147V278.005H80.1347V277.165C80.5647 277.765 81.2447 278.065 82.0247 278.065C83.5747 278.065 84.7047 276.975 84.7047 275.355C84.7047 273.735 83.5747 272.655 82.0247 272.655ZM81.9447 277.225C80.9347 277.225 80.1647 276.485 80.1647 275.355C80.1647 274.225 80.9347 273.495 81.9447 273.495C82.9647 273.495 83.7347 274.225 83.7347 275.355C83.7347 276.485 82.9647 277.225 81.9447 277.225Z" fill="black" fill-opacity="0.6"/>
<path d="M109.05 278.005V271.005H109.87L113.01 276.295H112.57L115.67 271.005H116.49L116.5 278.005H115.54L115.53 272.515H115.76L113 277.155H112.54L109.76 272.515H110.01V278.005H109.05ZM121.751 278.005V276.885L121.701 276.675V274.765C121.701 274.359 121.581 274.045 121.341 273.825C121.107 273.599 120.754 273.485 120.281 273.485C119.967 273.485 119.661 273.539 119.361 273.645C119.061 273.745 118.807 273.882 118.601 274.055L118.201 273.335C118.474 273.115 118.801 272.949 119.181 272.835C119.567 272.715 119.971 272.655 120.391 272.655C121.117 272.655 121.677 272.832 122.071 273.185C122.464 273.539 122.661 274.079 122.661 274.805V278.005H121.751ZM120.011 278.065C119.617 278.065 119.271 277.999 118.971 277.865C118.677 277.732 118.451 277.549 118.291 277.315C118.131 277.075 118.051 276.805 118.051 276.505C118.051 276.219 118.117 275.959 118.251 275.725C118.391 275.492 118.614 275.305 118.921 275.165C119.234 275.025 119.654 274.955 120.181 274.955H121.861V275.645H120.221C119.741 275.645 119.417 275.725 119.251 275.885C119.084 276.045 119.001 276.239 119.001 276.465C119.001 276.725 119.104 276.935 119.311 277.095C119.517 277.249 119.804 277.325 120.171 277.325C120.531 277.325 120.844 277.245 121.111 277.085C121.384 276.925 121.581 276.692 121.701 276.385L121.891 277.045C121.764 277.359 121.541 277.609 121.221 277.795C120.901 277.975 120.497 278.065 120.011 278.065ZM124.437 278.005V272.705H125.357V274.145L125.267 273.785C125.414 273.419 125.661 273.139 126.007 272.945C126.354 272.752 126.781 272.655 127.287 272.655V273.585C127.247 273.579 127.207 273.575 127.167 273.575C127.134 273.575 127.101 273.575 127.067 273.575C126.554 273.575 126.147 273.729 125.847 274.035C125.547 274.342 125.397 274.785 125.397 275.365V278.005H124.437Z" fill="black" fill-opacity="0.6"/>
<path d="M156.28 278.005H157.33L154.15 271.005H153.16L149.99 278.005H151.02L151.79 276.255H155.51L156.28 278.005ZM152.14 275.455L153.65 272.025L155.16 275.455H152.14ZM161.044 272.655C160.264 272.655 159.584 272.955 159.154 273.545V272.705H158.234V279.945H159.194V277.205C159.634 277.775 160.294 278.065 161.044 278.065C162.594 278.065 163.724 276.985 163.724 275.355C163.724 273.735 162.594 272.655 161.044 272.655ZM160.964 277.225C159.954 277.225 159.184 276.485 159.184 275.355C159.184 274.235 159.954 273.495 160.964 273.495C161.984 273.495 162.754 274.235 162.754 275.355C162.754 276.485 161.984 277.225 160.964 277.225ZM165.971 273.595V272.705H165.051V278.005H166.011V275.365C166.011 274.205 166.651 273.575 167.681 273.575C167.751 273.575 167.821 273.575 167.901 273.585V272.655C166.971 272.655 166.311 272.975 165.971 273.595Z" fill="black" fill-opacity="0.6"/>
<path d="M199.5 278.005L199.49 271.005H198.67L195.79 275.925L192.87 271.005H192.05V278.005H193.01V272.935L195.54 277.155H196L198.53 272.905L198.54 278.005H199.5ZM203.391 272.655C202.541 272.655 201.751 272.895 201.201 273.335L201.601 274.055C202.011 273.705 202.651 273.485 203.281 273.485C204.231 273.485 204.701 273.955 204.701 274.765V274.955H203.181C201.601 274.955 201.051 275.655 201.051 276.505C201.051 277.425 201.811 278.065 203.011 278.065C203.841 278.065 204.431 277.785 204.751 277.305V278.005H205.661V274.805C205.661 273.355 204.841 272.655 203.391 272.655ZM203.171 277.325C202.441 277.325 202.001 276.995 202.001 276.465C202.001 276.015 202.271 275.645 203.221 275.645H204.701V276.385C204.461 276.995 203.891 277.325 203.171 277.325ZM211.09 272.705L209.26 276.945L207.41 272.705H206.41L208.75 277.995L208.58 278.365C208.32 278.975 208.03 279.185 207.57 279.185C207.21 279.185 206.88 279.045 206.62 278.795L206.21 279.515C206.54 279.835 207.06 280.005 207.57 280.005C208.38 280.005 208.99 279.655 209.46 278.535L212.03 272.705H211.09Z" fill="black" fill-opacity="0.6"/>
<path d="M236.95 278.085C238.38 278.085 239.14 277.315 239.14 275.755V271.005H235.62V271.875H238.15V275.805C238.15 276.745 237.74 277.225 236.95 277.225C236.36 277.225 235.87 276.935 235.49 276.395L234.91 277.075C235.36 277.725 236.12 278.085 236.95 278.085ZM245.017 272.705V275.445C245.017 276.585 244.377 277.205 243.377 277.205C242.467 277.205 241.947 276.685 241.947 275.645V272.705H240.987V275.755C240.987 277.315 241.897 278.065 243.267 278.065C244.017 278.065 244.677 277.755 245.067 277.205V278.005H245.977V272.705H245.017ZM250.635 272.655C249.795 272.655 249.115 272.965 248.725 273.505V272.705H247.805V278.005H248.765V275.275C248.765 274.125 249.425 273.515 250.445 273.515C251.355 273.515 251.875 274.025 251.875 275.065V278.005H252.835V274.955C252.835 273.395 251.925 272.655 250.635 272.655Z" fill="black" fill-opacity="0.6"/>
<path d="M277.95 278.085C277.537 278.085 277.15 277.999 276.79 277.825C276.43 277.652 276.137 277.402 275.91 277.075L276.49 276.395C276.683 276.662 276.9 276.869 277.14 277.015C277.387 277.155 277.657 277.225 277.95 277.225C278.75 277.225 279.15 276.752 279.15 275.805V271.875H276.62V271.005H280.14V275.755C280.14 276.535 279.953 277.119 279.58 277.505C279.213 277.892 278.67 278.085 277.95 278.085ZM284.267 278.065C283.814 278.065 283.414 277.982 283.067 277.815C282.727 277.649 282.46 277.395 282.267 277.055C282.08 276.709 281.987 276.275 281.987 275.755V272.705H282.947V275.645C282.947 276.165 283.07 276.555 283.317 276.815C283.57 277.075 283.924 277.205 284.377 277.205C284.71 277.205 285 277.139 285.247 277.005C285.494 276.865 285.684 276.665 285.817 276.405C285.95 276.139 286.017 275.819 286.017 275.445V272.705H286.977V278.005H286.067V276.575L286.217 276.955C286.044 277.309 285.784 277.582 285.437 277.775C285.09 277.969 284.7 278.065 284.267 278.065ZM288.805 278.005V270.585H289.765V278.005H288.805Z" fill="black" fill-opacity="0.6"/>
<path d="M312.99 278.005L316.16 271.005H317.15L320.33 278.005H319.28L316.45 271.565H316.85L314.02 278.005H312.99ZM314.34 276.255L314.61 275.455H318.55L318.84 276.255H314.34ZM323.367 278.065C322.913 278.065 322.513 277.982 322.167 277.815C321.827 277.649 321.56 277.395 321.367 277.055C321.18 276.709 321.087 276.275 321.087 275.755V272.705H322.047V275.645C322.047 276.165 322.17 276.555 322.417 276.815C322.67 277.075 323.023 277.205 323.477 277.205C323.81 277.205 324.1 277.139 324.347 277.005C324.593 276.865 324.783 276.665 324.917 276.405C325.05 276.139 325.117 275.819 325.117 275.445V272.705H326.077V278.005H325.167V276.575L325.317 276.955C325.143 277.309 324.883 277.582 324.537 277.775C324.19 277.969 323.8 278.065 323.367 278.065ZM330.224 280.005C329.737 280.005 329.264 279.935 328.804 279.795C328.351 279.662 327.981 279.469 327.694 279.215L328.154 278.475C328.401 278.689 328.704 278.855 329.064 278.975C329.424 279.102 329.801 279.165 330.194 279.165C330.821 279.165 331.281 279.019 331.574 278.725C331.867 278.432 332.014 277.985 332.014 277.385V276.265L332.114 275.215L332.064 274.155V272.705H332.974V277.285C332.974 278.219 332.741 278.905 332.274 279.345C331.807 279.785 331.124 280.005 330.224 280.005ZM330.104 277.785C329.591 277.785 329.131 277.679 328.724 277.465C328.324 277.245 328.004 276.942 327.764 276.555C327.531 276.169 327.414 275.722 327.414 275.215C327.414 274.702 327.531 274.255 327.764 273.875C328.004 273.489 328.324 273.189 328.724 272.975C329.131 272.762 329.591 272.655 330.104 272.655C330.557 272.655 330.971 272.749 331.344 272.935C331.717 273.115 332.014 273.395 332.234 273.775C332.461 274.155 332.574 274.635 332.574 275.215C332.574 275.789 332.461 276.265 332.234 276.645C332.014 277.025 331.717 277.312 331.344 277.505C330.971 277.692 330.557 277.785 330.104 277.785ZM330.214 276.945C330.567 276.945 330.881 276.872 331.154 276.725C331.427 276.579 331.641 276.375 331.794 276.115C331.954 275.855 332.034 275.555 332.034 275.215C332.034 274.875 331.954 274.575 331.794 274.315C331.641 274.055 331.427 273.855 331.154 273.715C330.881 273.569 330.567 273.495 330.214 273.495C329.861 273.495 329.544 273.569 329.264 273.715C328.991 273.855 328.774 274.055 328.614 274.315C328.461 274.575 328.384 274.875 328.384 275.215C328.384 275.555 328.461 275.855 328.614 276.115C328.774 276.375 328.991 276.579 329.264 276.725C329.544 276.872 329.861 276.945 330.214 276.945Z" fill="black" fill-opacity="0.6"/>
<path d="M359.09 278.085C358.557 278.085 358.047 278.005 357.56 277.845C357.073 277.679 356.69 277.465 356.41 277.205L356.78 276.425C357.047 276.659 357.387 276.852 357.8 277.005C358.213 277.159 358.643 277.235 359.09 277.235C359.497 277.235 359.827 277.189 360.08 277.095C360.333 277.002 360.52 276.875 360.64 276.715C360.76 276.549 360.82 276.362 360.82 276.155C360.82 275.915 360.74 275.722 360.58 275.575C360.427 275.429 360.223 275.312 359.97 275.225C359.723 275.132 359.45 275.052 359.15 274.985C358.85 274.919 358.547 274.842 358.24 274.755C357.94 274.662 357.663 274.545 357.41 274.405C357.163 274.265 356.963 274.079 356.81 273.845C356.657 273.605 356.58 273.299 356.58 272.925C356.58 272.565 356.673 272.235 356.86 271.935C357.053 271.629 357.347 271.385 357.74 271.205C358.14 271.019 358.647 270.925 359.26 270.925C359.667 270.925 360.07 270.979 360.47 271.085C360.87 271.192 361.217 271.345 361.51 271.545L361.18 272.345C360.88 272.145 360.563 272.002 360.23 271.915C359.897 271.822 359.573 271.775 359.26 271.775C358.867 271.775 358.543 271.825 358.29 271.925C358.037 272.025 357.85 272.159 357.73 272.325C357.617 272.492 357.56 272.679 357.56 272.885C357.56 273.132 357.637 273.329 357.79 273.475C357.95 273.622 358.153 273.739 358.4 273.825C358.653 273.912 358.93 273.992 359.23 274.065C359.53 274.132 359.83 274.209 360.13 274.295C360.437 274.382 360.713 274.495 360.96 274.635C361.213 274.775 361.417 274.962 361.57 275.195C361.723 275.429 361.8 275.729 361.8 276.095C361.8 276.449 361.703 276.779 361.51 277.085C361.317 277.385 361.017 277.629 360.61 277.815C360.21 277.995 359.703 278.085 359.09 278.085ZM365.481 278.065C364.914 278.065 364.414 277.949 363.981 277.715C363.554 277.482 363.221 277.162 362.981 276.755C362.748 276.349 362.631 275.882 362.631 275.355C362.631 274.829 362.744 274.362 362.971 273.955C363.204 273.549 363.521 273.232 363.921 273.005C364.328 272.772 364.784 272.655 365.291 272.655C365.804 272.655 366.258 272.769 366.651 272.995C367.044 273.222 367.351 273.542 367.571 273.955C367.798 274.362 367.911 274.839 367.911 275.385C367.911 275.425 367.908 275.472 367.901 275.525C367.901 275.579 367.898 275.629 367.891 275.675H363.381V274.985H367.391L367.001 275.225C367.008 274.885 366.938 274.582 366.791 274.315C366.644 274.049 366.441 273.842 366.181 273.695C365.928 273.542 365.631 273.465 365.291 273.465C364.958 273.465 364.661 273.542 364.401 273.695C364.141 273.842 363.938 274.052 363.791 274.325C363.644 274.592 363.571 274.899 363.571 275.245V275.405C363.571 275.759 363.651 276.075 363.811 276.355C363.978 276.629 364.208 276.842 364.501 276.995C364.794 277.149 365.131 277.225 365.511 277.225C365.824 277.225 366.108 277.172 366.361 277.065C366.621 276.959 366.848 276.799 367.041 276.585L367.571 277.205C367.331 277.485 367.031 277.699 366.671 277.845C366.318 277.992 365.921 278.065 365.481 278.065ZM372.054 278.065C371.614 278.065 371.211 277.965 370.844 277.765C370.484 277.559 370.194 277.255 369.974 276.855C369.761 276.455 369.654 275.955 369.654 275.355C369.654 274.755 369.757 274.255 369.964 273.855C370.177 273.455 370.464 273.155 370.824 272.955C371.191 272.755 371.601 272.655 372.054 272.655C372.574 272.655 373.034 272.769 373.434 272.995C373.834 273.222 374.151 273.539 374.384 273.945C374.617 274.345 374.734 274.815 374.734 275.355C374.734 275.895 374.617 276.369 374.384 276.775C374.151 277.182 373.834 277.499 373.434 277.725C373.034 277.952 372.574 278.065 372.054 278.065ZM369.244 279.945V272.705H370.164V274.135L370.104 275.365L370.204 276.595V279.945H369.244ZM371.974 277.225C372.314 277.225 372.617 277.149 372.884 276.995C373.157 276.842 373.371 276.625 373.524 276.345C373.684 276.059 373.764 275.729 373.764 275.355C373.764 274.975 373.684 274.649 373.524 274.375C373.371 274.095 373.157 273.879 372.884 273.725C372.617 273.572 372.314 273.495 371.974 273.495C371.641 273.495 371.337 273.572 371.064 273.725C370.797 273.879 370.584 274.095 370.424 274.375C370.271 274.649 370.194 274.975 370.194 275.355C370.194 275.729 370.271 276.059 370.424 276.345C370.584 276.625 370.797 276.842 371.064 276.995C371.337 277.149 371.641 277.225 371.974 277.225Z" fill="black" fill-opacity="0.6"/>
<path d="M402.21 278.085C401.677 278.085 401.18 277.995 400.72 277.815C400.267 277.635 399.873 277.385 399.54 277.065C399.207 276.739 398.947 276.359 398.76 275.925C398.573 275.492 398.48 275.019 398.48 274.505C398.48 273.992 398.573 273.519 398.76 273.085C398.947 272.652 399.207 272.275 399.54 271.955C399.873 271.629 400.267 271.375 400.72 271.195C401.173 271.015 401.67 270.925 402.21 270.925C402.743 270.925 403.233 271.015 403.68 271.195C404.133 271.369 404.527 271.619 404.86 271.945C405.2 272.265 405.46 272.642 405.64 273.075C405.827 273.509 405.92 273.985 405.92 274.505C405.92 275.025 405.827 275.502 405.64 275.935C405.46 276.369 405.2 276.749 404.86 277.075C404.527 277.395 404.133 277.645 403.68 277.825C403.233 277.999 402.743 278.085 402.21 278.085ZM402.21 277.195C402.597 277.195 402.953 277.129 403.28 276.995C403.613 276.862 403.9 276.675 404.14 276.435C404.387 276.189 404.577 275.902 404.71 275.575C404.85 275.249 404.92 274.892 404.92 274.505C404.92 274.119 404.85 273.762 404.71 273.435C404.577 273.109 404.387 272.825 404.14 272.585C403.9 272.339 403.613 272.149 403.28 272.015C402.953 271.882 402.597 271.815 402.21 271.815C401.817 271.815 401.453 271.882 401.12 272.015C400.793 272.149 400.507 272.339 400.26 272.585C400.013 272.825 399.82 273.109 399.68 273.435C399.547 273.762 399.48 274.119 399.48 274.505C399.48 274.892 399.547 275.249 399.68 275.575C399.82 275.902 400.013 276.189 400.26 276.435C400.507 276.675 400.793 276.862 401.12 276.995C401.453 277.129 401.817 277.195 402.21 277.195ZM409.618 278.065C409.078 278.065 408.595 277.949 408.168 277.715C407.748 277.482 407.418 277.162 407.178 276.755C406.938 276.349 406.818 275.882 406.818 275.355C406.818 274.829 406.938 274.362 407.178 273.955C407.418 273.549 407.748 273.232 408.168 273.005C408.595 272.772 409.078 272.655 409.618 272.655C410.098 272.655 410.525 272.752 410.898 272.945C411.278 273.132 411.572 273.412 411.778 273.785L411.048 274.255C410.875 273.995 410.662 273.805 410.408 273.685C410.162 273.559 409.895 273.495 409.608 273.495C409.262 273.495 408.952 273.572 408.678 273.725C408.405 273.879 408.188 274.095 408.028 274.375C407.868 274.649 407.788 274.975 407.788 275.355C407.788 275.735 407.868 276.065 408.028 276.345C408.188 276.625 408.405 276.842 408.678 276.995C408.952 277.149 409.262 277.225 409.608 277.225C409.895 277.225 410.162 277.165 410.408 277.045C410.662 276.919 410.875 276.725 411.048 276.465L411.778 276.925C411.572 277.292 411.278 277.575 410.898 277.775C410.525 277.969 410.098 278.065 409.618 278.065ZM414.91 278.065C414.376 278.065 413.963 277.922 413.67 277.635C413.376 277.349 413.23 276.939 413.23 276.405V271.545H414.19V276.365C414.19 276.652 414.26 276.872 414.4 277.025C414.546 277.179 414.753 277.255 415.02 277.255C415.32 277.255 415.57 277.172 415.77 277.005L416.07 277.695C415.923 277.822 415.746 277.915 415.54 277.975C415.34 278.035 415.13 278.065 414.91 278.065ZM412.33 273.495V272.705H415.71V273.495H412.33Z" fill="black" fill-opacity="0.6"/>
<path d="M440.05 278.005V271.005H440.87L445.5 276.755H445.07V271.005H446.07V278.005H445.25L440.62 272.255H441.05V278.005H440.05ZM450.295 278.065C449.762 278.065 449.289 277.949 448.875 277.715C448.462 277.482 448.135 277.162 447.895 276.755C447.655 276.342 447.535 275.875 447.535 275.355C447.535 274.829 447.655 274.362 447.895 273.955C448.135 273.549 448.462 273.232 448.875 273.005C449.289 272.772 449.762 272.655 450.295 272.655C450.822 272.655 451.292 272.772 451.705 273.005C452.125 273.232 452.452 273.549 452.685 273.955C452.925 274.355 453.045 274.822 453.045 275.355C453.045 275.882 452.925 276.349 452.685 276.755C452.452 277.162 452.125 277.482 451.705 277.715C451.292 277.949 450.822 278.065 450.295 278.065ZM450.295 277.225C450.635 277.225 450.939 277.149 451.205 276.995C451.479 276.842 451.692 276.625 451.845 276.345C451.999 276.059 452.075 275.729 452.075 275.355C452.075 274.975 451.999 274.649 451.845 274.375C451.692 274.095 451.479 273.879 451.205 273.725C450.939 273.572 450.635 273.495 450.295 273.495C449.955 273.495 449.652 273.572 449.385 273.725C449.119 273.879 448.905 274.095 448.745 274.375C448.585 274.649 448.505 274.975 448.505 275.355C448.505 275.729 448.585 276.059 448.745 276.345C448.905 276.625 449.119 276.842 449.385 276.995C449.652 277.149 449.955 277.225 450.295 277.225ZM455.616 278.005L453.296 272.705H454.296L456.356 277.505H455.876L457.976 272.705H458.916L456.596 278.005H455.616Z" fill="black" fill-opacity="0.6"/>
<path d="M482.05 278.005V271.005H485C485.747 271.005 486.403 271.152 486.97 271.445C487.543 271.739 487.987 272.149 488.3 272.675C488.62 273.202 488.78 273.812 488.78 274.505C488.78 275.199 488.62 275.809 488.3 276.335C487.987 276.862 487.543 277.272 486.97 277.565C486.403 277.859 485.747 278.005 485 278.005H482.05ZM483.05 277.135H484.94C485.52 277.135 486.02 277.025 486.44 276.805C486.867 276.585 487.197 276.279 487.43 275.885C487.663 275.485 487.78 275.025 487.78 274.505C487.78 273.979 487.663 273.519 487.43 273.125C487.197 272.732 486.867 272.425 486.44 272.205C486.02 271.985 485.52 271.875 484.94 271.875H483.05V277.135ZM492.532 278.065C491.965 278.065 491.465 277.949 491.032 277.715C490.605 277.482 490.272 277.162 490.032 276.755C489.798 276.349 489.682 275.882 489.682 275.355C489.682 274.829 489.795 274.362 490.022 273.955C490.255 273.549 490.572 273.232 490.972 273.005C491.378 272.772 491.835 272.655 492.342 272.655C492.855 272.655 493.308 272.769 493.702 272.995C494.095 273.222 494.402 273.542 494.622 273.955C494.848 274.362 494.962 274.839 494.962 275.385C494.962 275.425 494.958 275.472 494.952 275.525C494.952 275.579 494.948 275.629 494.942 275.675H490.432V274.985H494.442L494.052 275.225C494.058 274.885 493.988 274.582 493.842 274.315C493.695 274.049 493.492 273.842 493.232 273.695C492.978 273.542 492.682 273.465 492.342 273.465C492.008 273.465 491.712 273.542 491.452 273.695C491.192 273.842 490.988 274.052 490.842 274.325C490.695 274.592 490.622 274.899 490.622 275.245V275.405C490.622 275.759 490.702 276.075 490.862 276.355C491.028 276.629 491.258 276.842 491.552 276.995C491.845 277.149 492.182 277.225 492.562 277.225C492.875 277.225 493.158 277.172 493.412 277.065C493.672 276.959 493.898 276.799 494.092 276.585L494.622 277.205C494.382 277.485 494.082 277.699 493.722 277.845C493.368 277.992 492.972 278.065 492.532 278.065ZM498.605 278.065C498.065 278.065 497.581 277.949 497.155 277.715C496.735 277.482 496.405 277.162 496.165 276.755C495.925 276.349 495.805 275.882 495.805 275.355C495.805 274.829 495.925 274.362 496.165 273.955C496.405 273.549 496.735 273.232 497.155 273.005C497.581 272.772 498.065 272.655 498.605 272.655C499.085 272.655 499.511 272.752 499.885 272.945C500.265 273.132 500.558 273.412 500.765 273.785L500.035 274.255C499.861 273.995 499.648 273.805 499.395 273.685C499.148 273.559 498.881 273.495 498.595 273.495C498.248 273.495 497.938 273.572 497.665 273.725C497.391 273.879 497.175 274.095 497.015 274.375C496.855 274.649 496.775 274.975 496.775 275.355C496.775 275.735 496.855 276.065 497.015 276.345C497.175 276.625 497.391 276.842 497.665 276.995C497.938 277.149 498.248 277.225 498.595 277.225C498.881 277.225 499.148 277.165 499.395 277.045C499.648 276.919 499.861 276.725 500.035 276.465L500.765 276.925C500.558 277.292 500.265 277.575 499.885 277.775C499.511 277.969 499.085 278.065 498.605 278.065Z" fill="black" fill-opacity="0.6"/>
<path d="M3.37 205.914V205.234L6.22 202.484C6.47333 202.244 6.66 202.034 6.78 201.854C6.90667 201.667 6.99 201.497 7.03 201.344C7.07667 201.184 7.1 201.03 7.1 200.884C7.1 200.524 6.97333 200.24 6.72 200.034C6.46667 199.827 6.09667 199.724 5.61 199.724C5.23667 199.724 4.9 199.787 4.6 199.914C4.3 200.034 4.04 200.224 3.82 200.484L3.14 199.894C3.40667 199.554 3.76333 199.294 4.21 199.114C4.66333 198.927 5.16 198.834 5.7 198.834C6.18667 198.834 6.61 198.914 6.97 199.074C7.33 199.227 7.60667 199.45 7.8 199.744C8 200.037 8.1 200.384 8.1 200.784C8.1 201.01 8.07 201.234 8.01 201.454C7.95 201.674 7.83667 201.907 7.67 202.154C7.50333 202.4 7.26333 202.677 6.95 202.984L4.41 205.434L4.17 205.044H8.4V205.914H3.37ZM12.0724 205.994C11.5258 205.994 11.0358 205.854 10.6024 205.574C10.1758 205.294 9.83576 204.887 9.58242 204.354C9.33576 203.82 9.21242 203.174 9.21242 202.414C9.21242 201.654 9.33576 201.007 9.58242 200.474C9.83576 199.94 10.1758 199.534 10.6024 199.254C11.0358 198.974 11.5258 198.834 12.0724 198.834C12.6124 198.834 13.0991 198.974 13.5324 199.254C13.9658 199.534 14.3058 199.94 14.5524 200.474C14.7991 201.007 14.9224 201.654 14.9224 202.414C14.9224 203.174 14.7991 203.82 14.5524 204.354C14.3058 204.887 13.9658 205.294 13.5324 205.574C13.0991 205.854 12.6124 205.994 12.0724 205.994ZM12.0724 205.104C12.4391 205.104 12.7591 205.004 13.0324 204.804C13.3124 204.604 13.5291 204.304 13.6824 203.904C13.8424 203.504 13.9224 203.007 13.9224 202.414C13.9224 201.82 13.8424 201.324 13.6824 200.924C13.5291 200.524 13.3124 200.224 13.0324 200.024C12.7591 199.824 12.4391 199.724 12.0724 199.724C11.7058 199.724 11.3824 199.824 11.1024 200.024C10.8224 200.224 10.6024 200.524 10.4424 200.924C10.2891 201.324 10.2124 201.82 10.2124 202.414C10.2124 203.007 10.2891 203.504 10.4424 203.904C10.6024 204.304 10.8224 204.604 11.1024 204.804C11.3824 205.004 11.7058 205.104 12.0724 205.104Z" fill="black" fill-opacity="0.6"/>
<path d="M2.38 155.215V154.515L5.96 149.935H7.04L3.49 154.515L2.98 154.355H8.57V155.215H2.38ZM6.27 156.935V155.215L6.3 154.355V152.835H7.24V156.935H6.27ZM12.0295 157.015C11.4828 157.015 10.9928 156.875 10.5595 156.595C10.1328 156.315 9.79279 155.908 9.53945 155.375C9.29279 154.842 9.16945 154.195 9.16945 153.435C9.16945 152.675 9.29279 152.028 9.53945 151.495C9.79279 150.962 10.1328 150.555 10.5595 150.275C10.9928 149.995 11.4828 149.855 12.0295 149.855C12.5695 149.855 13.0561 149.995 13.4895 150.275C13.9228 150.555 14.2628 150.962 14.5095 151.495C14.7561 152.028 14.8795 152.675 14.8795 153.435C14.8795 154.195 14.7561 154.842 14.5095 155.375C14.2628 155.908 13.9228 156.315 13.4895 156.595C13.0561 156.875 12.5695 157.015 12.0295 157.015ZM12.0295 156.125C12.3961 156.125 12.7161 156.025 12.9895 155.825C13.2695 155.625 13.4861 155.325 13.6395 154.925C13.7995 154.525 13.8795 154.028 13.8795 153.435C13.8795 152.842 13.7995 152.345 13.6395 151.945C13.4861 151.545 13.2695 151.245 12.9895 151.045C12.7161 150.845 12.3961 150.745 12.0295 150.745C11.6628 150.745 11.3395 150.845 11.0595 151.045C10.7795 151.245 10.5595 151.545 10.3995 151.945C10.2461 152.345 10.1695 152.842 10.1695 153.435C10.1695 154.028 10.2461 154.525 10.3995 154.925C10.5595 155.325 10.7795 155.625 11.0595 155.825C11.3395 156.025 11.6628 156.125 12.0295 156.125Z" fill="black" fill-opacity="0.6"/>
<path d="M6.42 108.037C5.8 108.037 5.27 107.9 4.83 107.627C4.39 107.353 4.05333 106.96 3.82 106.447C3.59333 105.927 3.48 105.293 3.48 104.547C3.48 103.753 3.62 103.083 3.9 102.537C4.18 101.99 4.57 101.577 5.07 101.297C5.57 101.017 6.14333 100.877 6.79 100.877C7.12333 100.877 7.44 100.91 7.74 100.977C8.04667 101.043 8.31 101.147 8.53 101.287L8.15 102.067C7.97 101.94 7.76333 101.853 7.53 101.807C7.30333 101.76 7.06333 101.737 6.81 101.737C6.09667 101.737 5.53 101.96 5.11 102.407C4.69 102.847 4.48 103.503 4.48 104.377C4.48 104.517 4.48667 104.683 4.5 104.877C4.51333 105.07 4.54667 105.26 4.6 105.447L4.26 105.107C4.36 104.8 4.51667 104.543 4.73 104.337C4.95 104.123 5.21 103.967 5.51 103.867C5.81667 103.76 6.14667 103.707 6.5 103.707C6.96667 103.707 7.38 103.793 7.74 103.967C8.1 104.14 8.38333 104.387 8.59 104.707C8.79667 105.02 8.9 105.393 8.9 105.827C8.9 106.273 8.79 106.663 8.57 106.997C8.35 107.33 8.05333 107.587 7.68 107.767C7.30667 107.947 6.88667 108.037 6.42 108.037ZM6.38 107.227C6.68667 107.227 6.95333 107.17 7.18 107.057C7.41333 106.943 7.59667 106.787 7.73 106.587C7.86333 106.38 7.93 106.14 7.93 105.867C7.93 105.453 7.78667 105.127 7.5 104.887C7.21333 104.64 6.82333 104.517 6.33 104.517C6.01 104.517 5.73 104.577 5.49 104.697C5.25 104.817 5.06 104.98 4.92 105.187C4.78667 105.387 4.72 105.617 4.72 105.877C4.72 106.117 4.78333 106.34 4.91 106.547C5.03667 106.747 5.22333 106.91 5.47 107.037C5.71667 107.163 6.02 107.227 6.38 107.227ZM12.5119 108.037C11.9652 108.037 11.4752 107.897 11.0419 107.617C10.6152 107.337 10.2752 106.93 10.0219 106.397C9.77521 105.863 9.65188 105.217 9.65188 104.457C9.65188 103.697 9.77521 103.05 10.0219 102.517C10.2752 101.983 10.6152 101.577 11.0419 101.297C11.4752 101.017 11.9652 100.877 12.5119 100.877C13.0519 100.877 13.5385 101.017 13.9719 101.297C14.4052 101.577 14.7452 101.983 14.9919 102.517C15.2385 103.05 15.3619 103.697 15.3619 104.457C15.3619 105.217 15.2385 105.863 14.9919 106.397C14.7452 106.93 14.4052 107.337 13.9719 107.617C13.5385 107.897 13.0519 108.037 12.5119 108.037ZM12.5119 107.147C12.8785 107.147 13.1985 107.047 13.4719 106.847C13.7519 106.647 13.9685 106.347 14.1219 105.947C14.2819 105.547 14.3619 105.05 14.3619 104.457C14.3619 103.863 14.2819 103.367 14.1219 102.967C13.9685 102.567 13.7519 102.267 13.4719 102.067C13.1985 101.867 12.8785 101.767 12.5119 101.767C12.1452 101.767 11.8219 101.867 11.5419 102.067C11.2619 102.267 11.0419 102.567 10.8819 102.967C10.7285 103.367 10.6519 103.863 10.6519 104.457C10.6519 105.05 10.7285 105.547 10.8819 105.947C11.0419 106.347 11.2619 106.647 11.5419 106.847C11.8219 107.047 12.1452 107.147 12.5119 107.147Z" fill="black" fill-opacity="0.6"/>
<path d="M5.21 59.0583C4.64333 59.0583 4.15333 58.9749 3.74 58.8083C3.32667 58.6416 3.00667 58.4049 2.78 58.0983C2.55333 57.7849 2.44 57.4183 2.44 56.9983C2.44 56.5849 2.54667 56.2349 2.76 55.9483C2.98 55.6549 3.29667 55.4349 3.71 55.2883C4.12333 55.1349 4.62333 55.0583 5.21 55.0583C5.79667 55.0583 6.29667 55.1349 6.71 55.2883C7.13 55.4349 7.45 55.6549 7.67 55.9483C7.89 56.2416 8 56.5916 8 56.9983C8 57.4183 7.88667 57.7849 7.66 58.0983C7.43333 58.4049 7.11 58.6416 6.69 58.8083C6.27 58.9749 5.77667 59.0583 5.21 59.0583ZM5.21 58.2483C5.77 58.2483 6.20667 58.1349 6.52 57.9083C6.84 57.6749 7 57.3616 7 56.9683C7 56.5816 6.84 56.2783 6.52 56.0583C6.20667 55.8316 5.77 55.7183 5.21 55.7183C4.65667 55.7183 4.22333 55.8316 3.91 56.0583C3.59667 56.2783 3.44 56.5816 3.44 56.9683C3.44 57.3616 3.59667 57.6749 3.91 57.9083C4.22333 58.1349 4.65667 58.2483 5.21 58.2483ZM5.21 55.5983C4.67667 55.5983 4.22333 55.5283 3.85 55.3883C3.47667 55.2416 3.19 55.0349 2.99 54.7683C2.79 54.4949 2.69 54.1716 2.69 53.7983C2.69 53.4049 2.79333 53.0683 3 52.7883C3.21333 52.5016 3.51 52.2816 3.89 52.1283C4.27 51.9749 4.71 51.8983 5.21 51.8983C5.71667 51.8983 6.16 51.9749 6.54 52.1283C6.92 52.2816 7.21667 52.5016 7.43 52.7883C7.64333 53.0683 7.75 53.4049 7.75 53.7983C7.75 54.1716 7.65 54.4949 7.45 54.7683C7.25 55.0349 6.96 55.2416 6.58 55.3883C6.2 55.5283 5.74333 55.5983 5.21 55.5983ZM5.21 54.9583C5.69667 54.9583 6.07667 54.8583 6.35 54.6583C6.63 54.4583 6.77 54.1849 6.77 53.8383C6.77 53.4849 6.62667 53.2083 6.34 53.0083C6.05333 52.8083 5.67667 52.7083 5.21 52.7083C4.74333 52.7083 4.37 52.8083 4.09 53.0083C3.81667 53.2083 3.68 53.4849 3.68 53.8383C3.68 54.1849 3.81333 54.4583 4.08 54.6583C4.35333 54.8583 4.73 54.9583 5.21 54.9583ZM11.7755 59.0583C11.2289 59.0583 10.7389 58.9183 10.3055 58.6383C9.87888 58.3583 9.53888 57.9516 9.28555 57.4183C9.03888 56.8849 8.91555 56.2383 8.91555 55.4783C8.91555 54.7183 9.03888 54.0716 9.28555 53.5383C9.53888 53.0049 9.87888 52.5983 10.3055 52.3183C10.7389 52.0383 11.2289 51.8983 11.7755 51.8983C12.3155 51.8983 12.8022 52.0383 13.2355 52.3183C13.6689 52.5983 14.0089 53.0049 14.2555 53.5383C14.5022 54.0716 14.6255 54.7183 14.6255 55.4783C14.6255 56.2383 14.5022 56.8849 14.2555 57.4183C14.0089 57.9516 13.6689 58.3583 13.2355 58.6383C12.8022 58.9183 12.3155 59.0583 11.7755 59.0583ZM11.7755 58.1683C12.1422 58.1683 12.4622 58.0683 12.7355 57.8683C13.0155 57.6683 13.2322 57.3683 13.3855 56.9683C13.5455 56.5683 13.6255 56.0716 13.6255 55.4783C13.6255 54.8849 13.5455 54.3883 13.3855 53.9883C13.2322 53.5883 13.0155 53.2883 12.7355 53.0883C12.4622 52.8883 12.1422 52.7883 11.7755 52.7883C11.4089 52.7883 11.0855 52.8883 10.8055 53.0883C10.5255 53.2883 10.3055 53.5883 10.1455 53.9883C9.99221 54.3883 9.91555 54.8849 9.91555 55.4783C9.91555 56.0716 9.99221 56.5683 10.1455 56.9683C10.3055 57.3683 10.5255 57.6683 10.8055 57.8683C11.0855 58.0683 11.4089 58.1683 11.7755 58.1683Z" fill="black" fill-opacity="0.6"/>
<path d="M1.66 10V3.4L2.09 3.87H0.08V3H2.65V10H1.66ZM7.04117 10.08C6.49451 10.08 6.00451 9.94 5.57117 9.66C5.14451 9.38 4.80451 8.97333 4.55117 8.44C4.30451 7.90667 4.18117 7.26 4.18117 6.5C4.18117 5.74 4.30451 5.09333 4.55117 4.56C4.80451 4.02667 5.14451 3.62 5.57117 3.34C6.00451 3.06 6.49451 2.92 7.04117 2.92C7.58117 2.92 8.06784 3.06 8.50117 3.34C8.93451 3.62 9.27451 4.02667 9.52117 4.56C9.76784 5.09333 9.89117 5.74 9.89117 6.5C9.89117 7.26 9.76784 7.90667 9.52117 8.44C9.27451 8.97333 8.93451 9.38 8.50117 9.66C8.06784 9.94 7.58117 10.08 7.04117 10.08ZM7.04117 9.19C7.40784 9.19 7.72784 9.09 8.00117 8.89C8.28117 8.69 8.49784 8.39 8.65117 7.99C8.81117 7.59 8.89117 7.09333 8.89117 6.5C8.89117 5.90667 8.81117 5.41 8.65117 5.01C8.49784 4.61 8.28117 4.31 8.00117 4.11C7.72784 3.91 7.40784 3.81 7.04117 3.81C6.67451 3.81 6.35117 3.91 6.07117 4.11C5.79117 4.31 5.57117 4.61 5.41117 5.01C5.25784 5.41 5.18117 5.90667 5.18117 6.5C5.18117 7.09333 5.25784 7.59 5.41117 7.99C5.57117 8.39 5.79117 8.69 6.07117 8.89C6.35117 9.09 6.67451 9.19 7.04117 9.19ZM13.7111 10.08C13.1644 10.08 12.6744 9.94 12.2411 9.66C11.8144 9.38 11.4744 8.97333 11.2211 8.44C10.9744 7.90667 10.8511 7.26 10.8511 6.5C10.8511 5.74 10.9744 5.09333 11.2211 4.56C11.4744 4.02667 11.8144 3.62 12.2411 3.34C12.6744 3.06 13.1644 2.92 13.7111 2.92C14.2511 2.92 14.7378 3.06 15.1711 3.34C15.6044 3.62 15.9444 4.02667 16.1911 4.56C16.4378 5.09333 16.5611 5.74 16.5611 6.5C16.5611 7.26 16.4378 7.90667 16.1911 8.44C15.9444 8.97333 15.6044 9.38 15.1711 9.66C14.7378 9.94 14.2511 10.08 13.7111 10.08ZM13.7111 9.19C14.0778 9.19 14.3978 9.09 14.6711 8.89C14.9511 8.69 15.1678 8.39 15.3211 7.99C15.4811 7.59 15.5611 7.09333 15.5611 6.5C15.5611 5.90667 15.4811 5.41 15.3211 5.01C15.1678 4.61 14.9511 4.31 14.6711 4.11C14.3978 3.91 14.0778 3.81 13.7111 3.81C13.3444 3.81 13.0211 3.91 12.7411 4.11C12.4611 4.31 12.2411 4.61 12.0811 5.01C11.9278 5.41 11.8511 5.90667 11.8511 6.5C11.8511 7.09333 11.9278 7.59 12.0811 7.99C12.2411 8.39 12.4611 8.69 12.7411 8.89C13.0211 9.09 13.3444 9.19 13.7111 9.19Z" fill="black" fill-opacity="0.6"/>
<defs>
<clipPath id="clip0_360_1112">
<rect width="470" height="223.05" fill="white" transform="matrix(-1 0 0 1 504 28)"/>
</clipPath>
</defs>
</svg>
