<svg width="505" height="282" viewBox="0 0 505 282" fill="none" xmlns="http://www.w3.org/2000/svg">
<path d="M504 29.9578C493.566 31.6803 472.698 31.5205 451.83 38.5706C430.962 45.6206 420.528 60.4904 399.66 65.2082C378.792 69.926 368.358 55.9514 347.49 62.1596C326.622 68.3678 316.188 91.5937 295.32 96.2493C274.452 100.905 264.018 73.1364 243.15 85.4376C222.282 97.7389 211.848 139.571 190.98 157.756C170.112 175.941 159.678 181.685 138.81 176.362C117.942 171.04 107.508 127.939 86.64 131.142C65.772 134.346 44.904 180.133 34.47 192.381L34 253.013H504V29.9578Z" fill="#FFA730" fill-opacity="0.102"/>
<path d="M504 29.9578C493.566 31.6803 472.698 31.5205 451.83 38.5705C430.962 45.6206 420.528 60.4904 399.66 65.2082C378.792 69.926 368.358 55.9514 347.49 62.1596C326.622 68.3678 316.188 91.5937 295.32 96.2493C274.452 100.905 264.018 73.1363 243.15 85.4376C222.282 97.7389 211.848 139.571 190.98 157.756C170.112 175.941 159.678 181.685 138.81 176.362C117.942 171.04 107.508 127.939 86.64 131.142C65.772 134.346 44.904 180.133 34.47 192.381" stroke="#FFA730" stroke-width="2"/>
<rect x="34" y="6.96777" width="470" height="1" fill="black" fill-opacity="0.08"/>
<rect x="34" y="55.946" width="470" height="1" fill="black" fill-opacity="0.08"/>
<rect x="34" y="104.925" width="470" height="1" fill="black" fill-opacity="0.08"/>
<rect x="34" y="153.903" width="470" height="1" fill="black" fill-opacity="0.08"/>
<rect x="34" y="202.881" width="470" height="1" fill="black" fill-opacity="0.08"/>
<rect x="34" y="251.86" width="470" height="1" fill="black" fill-opacity="0.08"/>
<path d="M27.95 279.085C27.5367 279.085 27.15 278.999 26.79 278.825C26.43 278.652 26.1367 278.402 25.91 278.075L26.49 277.395C26.6833 277.662 26.9 277.869 27.14 278.015C27.3867 278.155 27.6567 278.225 27.95 278.225C28.75 278.225 29.15 277.752 29.15 276.805V272.875H26.62V272.005H30.14V276.755C30.14 277.535 29.9533 278.119 29.58 278.505C29.2133 278.892 28.67 279.085 27.95 279.085ZM35.327 279.005V277.885L35.277 277.675V275.765C35.277 275.359 35.157 275.045 34.917 274.825C34.6836 274.599 34.3303 274.485 33.857 274.485C33.5436 274.485 33.237 274.539 32.937 274.645C32.637 274.745 32.3836 274.882 32.177 275.055L31.777 274.335C32.0503 274.115 32.377 273.949 32.757 273.835C33.1436 273.715 33.547 273.655 33.967 273.655C34.6936 273.655 35.2536 273.832 35.647 274.185C36.0403 274.539 36.237 275.079 36.237 275.805V279.005H35.327ZM33.587 279.065C33.1936 279.065 32.847 278.999 32.547 278.865C32.2536 278.732 32.027 278.549 31.867 278.315C31.707 278.075 31.627 277.805 31.627 277.505C31.627 277.219 31.6936 276.959 31.827 276.725C31.967 276.492 32.1903 276.305 32.497 276.165C32.8103 276.025 33.2303 275.955 33.757 275.955H35.437V276.645H33.797C33.317 276.645 32.9936 276.725 32.827 276.885C32.6603 277.045 32.577 277.239 32.577 277.465C32.577 277.725 32.6803 277.935 32.887 278.095C33.0936 278.249 33.3803 278.325 33.747 278.325C34.107 278.325 34.4203 278.245 34.687 278.085C34.9603 277.925 35.157 277.692 35.277 277.385L35.467 278.045C35.3403 278.359 35.117 278.609 34.797 278.795C34.477 278.975 34.0736 279.065 33.587 279.065ZM40.8435 273.655C41.2768 273.655 41.6568 273.739 41.9835 273.905C42.3168 274.072 42.5768 274.325 42.7635 274.665C42.9502 275.005 43.0435 275.435 43.0435 275.955V279.005H42.0835V276.065C42.0835 275.552 41.9568 275.165 41.7035 274.905C41.4568 274.645 41.1068 274.515 40.6535 274.515C40.3135 274.515 40.0168 274.582 39.7635 274.715C39.5102 274.849 39.3135 275.045 39.1735 275.305C39.0402 275.565 38.9735 275.889 38.9735 276.275V279.005H38.0135V273.705H38.9335V275.135L38.7835 274.755C38.9568 274.409 39.2235 274.139 39.5835 273.945C39.9435 273.752 40.3635 273.655 40.8435 273.655Z" fill="black" fill-opacity="0.6"/>
<path d="M67.95 275.315H71.56V276.175H67.95V275.315ZM68.05 279.005H67.05V272.005H71.99V272.875H68.05V279.005ZM75.4516 279.065C74.885 279.065 74.385 278.949 73.9516 278.715C73.525 278.482 73.1916 278.162 72.9516 277.755C72.7183 277.349 72.6016 276.882 72.6016 276.355C72.6016 275.829 72.715 275.362 72.9416 274.955C73.175 274.549 73.4916 274.232 73.8916 274.005C74.2983 273.772 74.755 273.655 75.2616 273.655C75.775 273.655 76.2283 273.769 76.6216 273.995C77.015 274.222 77.3216 274.542 77.5416 274.955C77.7683 275.362 77.8816 275.839 77.8816 276.385C77.8816 276.425 77.8783 276.472 77.8716 276.525C77.8716 276.579 77.8683 276.629 77.8616 276.675H73.3516V275.985H77.3616L76.9716 276.225C76.9783 275.885 76.9083 275.582 76.7616 275.315C76.615 275.049 76.4116 274.842 76.1516 274.695C75.8983 274.542 75.6016 274.465 75.2616 274.465C74.9283 274.465 74.6316 274.542 74.3716 274.695C74.1116 274.842 73.9083 275.052 73.7616 275.325C73.615 275.592 73.5416 275.899 73.5416 276.245V276.405C73.5416 276.759 73.6216 277.075 73.7816 277.355C73.9483 277.629 74.1783 277.842 74.4716 277.995C74.765 278.149 75.1016 278.225 75.4816 278.225C75.795 278.225 76.0783 278.172 76.3316 278.065C76.5916 277.959 76.8183 277.799 77.0116 277.585L77.5416 278.205C77.3016 278.485 77.0016 278.699 76.6416 278.845C76.2883 278.992 75.8916 279.065 75.4516 279.065ZM82.0247 279.065C81.5714 279.065 81.1614 278.965 80.7947 278.765C80.4347 278.559 80.148 278.255 79.9347 277.855C79.728 277.455 79.6247 276.955 79.6247 276.355C79.6247 275.755 79.7314 275.255 79.9447 274.855C80.1647 274.455 80.4547 274.155 80.8147 273.955C81.1814 273.755 81.5847 273.655 82.0247 273.655C82.5447 273.655 83.0047 273.769 83.4047 273.995C83.8047 274.222 84.1214 274.539 84.3547 274.945C84.588 275.345 84.7047 275.815 84.7047 276.355C84.7047 276.895 84.588 277.369 84.3547 277.775C84.1214 278.182 83.8047 278.499 83.4047 278.725C83.0047 278.952 82.5447 279.065 82.0247 279.065ZM79.2147 279.005V271.585H80.1747V275.115L80.0747 276.345L80.1347 277.575V279.005H79.2147ZM81.9447 278.225C82.2847 278.225 82.588 278.149 82.8547 277.995C83.128 277.842 83.3414 277.625 83.4947 277.345C83.6547 277.059 83.7347 276.729 83.7347 276.355C83.7347 275.975 83.6547 275.649 83.4947 275.375C83.3414 275.095 83.128 274.879 82.8547 274.725C82.588 274.572 82.2847 274.495 81.9447 274.495C81.6114 274.495 81.308 274.572 81.0347 274.725C80.768 274.879 80.5547 275.095 80.3947 275.375C80.2414 275.649 80.1647 275.975 80.1647 276.355C80.1647 276.729 80.2414 277.059 80.3947 277.345C80.5547 277.625 80.768 277.842 81.0347 277.995C81.308 278.149 81.6114 278.225 81.9447 278.225Z" fill="black" fill-opacity="0.6"/>
<path d="M109.05 279.005V272.005H109.87L113.01 277.295H112.57L115.67 272.005H116.49L116.5 279.005H115.54L115.53 273.515H115.76L113 278.155H112.54L109.76 273.515H110.01V279.005H109.05ZM121.751 279.005V277.885L121.701 277.675V275.765C121.701 275.359 121.581 275.045 121.341 274.825C121.107 274.599 120.754 274.485 120.281 274.485C119.967 274.485 119.661 274.539 119.361 274.645C119.061 274.745 118.807 274.882 118.601 275.055L118.201 274.335C118.474 274.115 118.801 273.949 119.181 273.835C119.567 273.715 119.971 273.655 120.391 273.655C121.117 273.655 121.677 273.832 122.071 274.185C122.464 274.539 122.661 275.079 122.661 275.805V279.005H121.751ZM120.011 279.065C119.617 279.065 119.271 278.999 118.971 278.865C118.677 278.732 118.451 278.549 118.291 278.315C118.131 278.075 118.051 277.805 118.051 277.505C118.051 277.219 118.117 276.959 118.251 276.725C118.391 276.492 118.614 276.305 118.921 276.165C119.234 276.025 119.654 275.955 120.181 275.955H121.861V276.645H120.221C119.741 276.645 119.417 276.725 119.251 276.885C119.084 277.045 119.001 277.239 119.001 277.465C119.001 277.725 119.104 277.935 119.311 278.095C119.517 278.249 119.804 278.325 120.171 278.325C120.531 278.325 120.844 278.245 121.111 278.085C121.384 277.925 121.581 277.692 121.701 277.385L121.891 278.045C121.764 278.359 121.541 278.609 121.221 278.795C120.901 278.975 120.497 279.065 120.011 279.065ZM124.437 279.005V273.705H125.357V275.145L125.267 274.785C125.414 274.419 125.661 274.139 126.007 273.945C126.354 273.752 126.781 273.655 127.287 273.655V274.585C127.247 274.579 127.207 274.575 127.167 274.575C127.134 274.575 127.101 274.575 127.067 274.575C126.554 274.575 126.147 274.729 125.847 275.035C125.547 275.342 125.397 275.785 125.397 276.365V279.005H124.437Z" fill="black" fill-opacity="0.6"/>
<path d="M149.99 279.005L153.16 272.005H154.15L157.33 279.005H156.28L153.45 272.565H153.85L151.02 279.005H149.99ZM151.34 277.255L151.61 276.455H155.55L155.84 277.255H151.34ZM161.044 279.065C160.604 279.065 160.201 278.965 159.834 278.765C159.474 278.559 159.184 278.255 158.964 277.855C158.751 277.455 158.644 276.955 158.644 276.355C158.644 275.755 158.748 275.255 158.954 274.855C159.168 274.455 159.454 274.155 159.814 273.955C160.181 273.755 160.591 273.655 161.044 273.655C161.564 273.655 162.024 273.769 162.424 273.995C162.824 274.222 163.141 274.539 163.374 274.945C163.608 275.345 163.724 275.815 163.724 276.355C163.724 276.895 163.608 277.369 163.374 277.775C163.141 278.182 162.824 278.499 162.424 278.725C162.024 278.952 161.564 279.065 161.044 279.065ZM158.234 280.945V273.705H159.154V275.135L159.094 276.365L159.194 277.595V280.945H158.234ZM160.964 278.225C161.304 278.225 161.608 278.149 161.874 277.995C162.148 277.842 162.361 277.625 162.514 277.345C162.674 277.059 162.754 276.729 162.754 276.355C162.754 275.975 162.674 275.649 162.514 275.375C162.361 275.095 162.148 274.879 161.874 274.725C161.608 274.572 161.304 274.495 160.964 274.495C160.631 274.495 160.328 274.572 160.054 274.725C159.788 274.879 159.574 275.095 159.414 275.375C159.261 275.649 159.184 275.975 159.184 276.355C159.184 276.729 159.261 277.059 159.414 277.345C159.574 277.625 159.788 277.842 160.054 277.995C160.328 278.149 160.631 278.225 160.964 278.225ZM165.051 279.005V273.705H165.971V275.145L165.881 274.785C166.027 274.419 166.274 274.139 166.621 273.945C166.967 273.752 167.394 273.655 167.901 273.655V274.585C167.861 274.579 167.821 274.575 167.781 274.575C167.747 274.575 167.714 274.575 167.681 274.575C167.167 274.575 166.761 274.729 166.461 275.035C166.161 275.342 166.011 275.785 166.011 276.365V279.005H165.051Z" fill="black" fill-opacity="0.6"/>
<path d="M192.05 279.005V272.005H192.87L196.01 277.295H195.57L198.67 272.005H199.49L199.5 279.005H198.54L198.53 273.515H198.76L196 278.155H195.54L192.76 273.515H193.01V279.005H192.05ZM204.751 279.005V277.885L204.701 277.675V275.765C204.701 275.359 204.581 275.045 204.341 274.825C204.107 274.599 203.754 274.485 203.281 274.485C202.967 274.485 202.661 274.539 202.361 274.645C202.061 274.745 201.807 274.882 201.601 275.055L201.201 274.335C201.474 274.115 201.801 273.949 202.181 273.835C202.567 273.715 202.971 273.655 203.391 273.655C204.117 273.655 204.677 273.832 205.071 274.185C205.464 274.539 205.661 275.079 205.661 275.805V279.005H204.751ZM203.011 279.065C202.617 279.065 202.271 278.999 201.971 278.865C201.677 278.732 201.451 278.549 201.291 278.315C201.131 278.075 201.051 277.805 201.051 277.505C201.051 277.219 201.117 276.959 201.251 276.725C201.391 276.492 201.614 276.305 201.921 276.165C202.234 276.025 202.654 275.955 203.181 275.955H204.861V276.645H203.221C202.741 276.645 202.417 276.725 202.251 276.885C202.084 277.045 202.001 277.239 202.001 277.465C202.001 277.725 202.104 277.935 202.311 278.095C202.517 278.249 202.804 278.325 203.171 278.325C203.531 278.325 203.844 278.245 204.111 278.085C204.384 277.925 204.581 277.692 204.701 277.385L204.891 278.045C204.764 278.359 204.541 278.609 204.221 278.795C203.901 278.975 203.497 279.065 203.011 279.065ZM207.57 281.005C207.316 281.005 207.07 280.962 206.83 280.875C206.59 280.795 206.383 280.675 206.21 280.515L206.62 279.795C206.753 279.922 206.9 280.019 207.06 280.085C207.22 280.152 207.39 280.185 207.57 280.185C207.803 280.185 207.996 280.125 208.15 280.005C208.303 279.885 208.446 279.672 208.58 279.365L208.91 278.635L209.01 278.515L211.09 273.705H212.03L209.46 279.535C209.306 279.909 209.133 280.202 208.94 280.415C208.753 280.629 208.546 280.779 208.32 280.865C208.093 280.959 207.843 281.005 207.57 281.005ZM208.83 279.175L206.41 273.705H207.41L209.47 278.425L208.83 279.175Z" fill="black" fill-opacity="0.6"/>
<path d="M236.95 279.085C236.537 279.085 236.15 278.999 235.79 278.825C235.43 278.652 235.137 278.402 234.91 278.075L235.49 277.395C235.683 277.662 235.9 277.869 236.14 278.015C236.387 278.155 236.657 278.225 236.95 278.225C237.75 278.225 238.15 277.752 238.15 276.805V272.875H235.62V272.005H239.14V276.755C239.14 277.535 238.953 278.119 238.58 278.505C238.213 278.892 237.67 279.085 236.95 279.085ZM243.267 279.065C242.814 279.065 242.414 278.982 242.067 278.815C241.727 278.649 241.46 278.395 241.267 278.055C241.08 277.709 240.987 277.275 240.987 276.755V273.705H241.947V276.645C241.947 277.165 242.07 277.555 242.317 277.815C242.57 278.075 242.924 278.205 243.377 278.205C243.71 278.205 244 278.139 244.247 278.005C244.494 277.865 244.684 277.665 244.817 277.405C244.95 277.139 245.017 276.819 245.017 276.445V273.705H245.977V279.005H245.067V277.575L245.217 277.955C245.044 278.309 244.784 278.582 244.437 278.775C244.09 278.969 243.7 279.065 243.267 279.065ZM250.635 273.655C251.068 273.655 251.448 273.739 251.775 273.905C252.108 274.072 252.368 274.325 252.555 274.665C252.741 275.005 252.835 275.435 252.835 275.955V279.005H251.875V276.065C251.875 275.552 251.748 275.165 251.495 274.905C251.248 274.645 250.898 274.515 250.445 274.515C250.105 274.515 249.808 274.582 249.555 274.715C249.301 274.849 249.105 275.045 248.965 275.305C248.831 275.565 248.765 275.889 248.765 276.275V279.005H247.805V273.705H248.725V275.135L248.575 274.755C248.748 274.409 249.015 274.139 249.375 273.945C249.735 273.752 250.155 273.655 250.635 273.655Z" fill="black" fill-opacity="0.6"/>
<path d="M277.95 279.085C277.537 279.085 277.15 278.999 276.79 278.825C276.43 278.652 276.137 278.402 275.91 278.075L276.49 277.395C276.683 277.662 276.9 277.869 277.14 278.015C277.387 278.155 277.657 278.225 277.95 278.225C278.75 278.225 279.15 277.752 279.15 276.805V272.875H276.62V272.005H280.14V276.755C280.14 277.535 279.953 278.119 279.58 278.505C279.213 278.892 278.67 279.085 277.95 279.085ZM284.267 279.065C283.814 279.065 283.414 278.982 283.067 278.815C282.727 278.649 282.46 278.395 282.267 278.055C282.08 277.709 281.987 277.275 281.987 276.755V273.705H282.947V276.645C282.947 277.165 283.07 277.555 283.317 277.815C283.57 278.075 283.924 278.205 284.377 278.205C284.71 278.205 285 278.139 285.247 278.005C285.494 277.865 285.684 277.665 285.817 277.405C285.95 277.139 286.017 276.819 286.017 276.445V273.705H286.977V279.005H286.067V277.575L286.217 277.955C286.044 278.309 285.784 278.582 285.437 278.775C285.09 278.969 284.7 279.065 284.267 279.065ZM288.805 279.005V271.585H289.765V279.005H288.805Z" fill="black" fill-opacity="0.6"/>
<path d="M312.99 279.005L316.16 272.005H317.15L320.33 279.005H319.28L316.45 272.565H316.85L314.02 279.005H312.99ZM314.34 277.255L314.61 276.455H318.55L318.84 277.255H314.34ZM323.367 279.065C322.913 279.065 322.513 278.982 322.167 278.815C321.827 278.649 321.56 278.395 321.367 278.055C321.18 277.709 321.087 277.275 321.087 276.755V273.705H322.047V276.645C322.047 277.165 322.17 277.555 322.417 277.815C322.67 278.075 323.023 278.205 323.477 278.205C323.81 278.205 324.1 278.139 324.347 278.005C324.593 277.865 324.783 277.665 324.917 277.405C325.05 277.139 325.117 276.819 325.117 276.445V273.705H326.077V279.005H325.167V277.575L325.317 277.955C325.143 278.309 324.883 278.582 324.537 278.775C324.19 278.969 323.8 279.065 323.367 279.065ZM330.224 281.005C329.737 281.005 329.264 280.935 328.804 280.795C328.351 280.662 327.981 280.469 327.694 280.215L328.154 279.475C328.401 279.689 328.704 279.855 329.064 279.975C329.424 280.102 329.801 280.165 330.194 280.165C330.821 280.165 331.281 280.019 331.574 279.725C331.867 279.432 332.014 278.985 332.014 278.385V277.265L332.114 276.215L332.064 275.155V273.705H332.974V278.285C332.974 279.219 332.741 279.905 332.274 280.345C331.807 280.785 331.124 281.005 330.224 281.005ZM330.104 278.785C329.591 278.785 329.131 278.679 328.724 278.465C328.324 278.245 328.004 277.942 327.764 277.555C327.531 277.169 327.414 276.722 327.414 276.215C327.414 275.702 327.531 275.255 327.764 274.875C328.004 274.489 328.324 274.189 328.724 273.975C329.131 273.762 329.591 273.655 330.104 273.655C330.557 273.655 330.971 273.749 331.344 273.935C331.717 274.115 332.014 274.395 332.234 274.775C332.461 275.155 332.574 275.635 332.574 276.215C332.574 276.789 332.461 277.265 332.234 277.645C332.014 278.025 331.717 278.312 331.344 278.505C330.971 278.692 330.557 278.785 330.104 278.785ZM330.214 277.945C330.567 277.945 330.881 277.872 331.154 277.725C331.427 277.579 331.641 277.375 331.794 277.115C331.954 276.855 332.034 276.555 332.034 276.215C332.034 275.875 331.954 275.575 331.794 275.315C331.641 275.055 331.427 274.855 331.154 274.715C330.881 274.569 330.567 274.495 330.214 274.495C329.861 274.495 329.544 274.569 329.264 274.715C328.991 274.855 328.774 275.055 328.614 275.315C328.461 275.575 328.384 275.875 328.384 276.215C328.384 276.555 328.461 276.855 328.614 277.115C328.774 277.375 328.991 277.579 329.264 277.725C329.544 277.872 329.861 277.945 330.214 277.945Z" fill="black" fill-opacity="0.6"/>
<path d="M359.09 279.085C358.557 279.085 358.047 279.005 357.56 278.845C357.073 278.679 356.69 278.465 356.41 278.205L356.78 277.425C357.047 277.659 357.387 277.852 357.8 278.005C358.213 278.159 358.643 278.235 359.09 278.235C359.497 278.235 359.827 278.189 360.08 278.095C360.333 278.002 360.52 277.875 360.64 277.715C360.76 277.549 360.82 277.362 360.82 277.155C360.82 276.915 360.74 276.722 360.58 276.575C360.427 276.429 360.223 276.312 359.97 276.225C359.723 276.132 359.45 276.052 359.15 275.985C358.85 275.919 358.547 275.842 358.24 275.755C357.94 275.662 357.663 275.545 357.41 275.405C357.163 275.265 356.963 275.079 356.81 274.845C356.657 274.605 356.58 274.299 356.58 273.925C356.58 273.565 356.673 273.235 356.86 272.935C357.053 272.629 357.347 272.385 357.74 272.205C358.14 272.019 358.647 271.925 359.26 271.925C359.667 271.925 360.07 271.979 360.47 272.085C360.87 272.192 361.217 272.345 361.51 272.545L361.18 273.345C360.88 273.145 360.563 273.002 360.23 272.915C359.897 272.822 359.573 272.775 359.26 272.775C358.867 272.775 358.543 272.825 358.29 272.925C358.037 273.025 357.85 273.159 357.73 273.325C357.617 273.492 357.56 273.679 357.56 273.885C357.56 274.132 357.637 274.329 357.79 274.475C357.95 274.622 358.153 274.739 358.4 274.825C358.653 274.912 358.93 274.992 359.23 275.065C359.53 275.132 359.83 275.209 360.13 275.295C360.437 275.382 360.713 275.495 360.96 275.635C361.213 275.775 361.417 275.962 361.57 276.195C361.723 276.429 361.8 276.729 361.8 277.095C361.8 277.449 361.703 277.779 361.51 278.085C361.317 278.385 361.017 278.629 360.61 278.815C360.21 278.995 359.703 279.085 359.09 279.085ZM365.481 279.065C364.914 279.065 364.414 278.949 363.981 278.715C363.554 278.482 363.221 278.162 362.981 277.755C362.748 277.349 362.631 276.882 362.631 276.355C362.631 275.829 362.744 275.362 362.971 274.955C363.204 274.549 363.521 274.232 363.921 274.005C364.328 273.772 364.784 273.655 365.291 273.655C365.804 273.655 366.258 273.769 366.651 273.995C367.044 274.222 367.351 274.542 367.571 274.955C367.798 275.362 367.911 275.839 367.911 276.385C367.911 276.425 367.908 276.472 367.901 276.525C367.901 276.579 367.898 276.629 367.891 276.675H363.381V275.985H367.391L367.001 276.225C367.008 275.885 366.938 275.582 366.791 275.315C366.644 275.049 366.441 274.842 366.181 274.695C365.928 274.542 365.631 274.465 365.291 274.465C364.958 274.465 364.661 274.542 364.401 274.695C364.141 274.842 363.938 275.052 363.791 275.325C363.644 275.592 363.571 275.899 363.571 276.245V276.405C363.571 276.759 363.651 277.075 363.811 277.355C363.978 277.629 364.208 277.842 364.501 277.995C364.794 278.149 365.131 278.225 365.511 278.225C365.824 278.225 366.108 278.172 366.361 278.065C366.621 277.959 366.848 277.799 367.041 277.585L367.571 278.205C367.331 278.485 367.031 278.699 366.671 278.845C366.318 278.992 365.921 279.065 365.481 279.065ZM372.054 279.065C371.614 279.065 371.211 278.965 370.844 278.765C370.484 278.559 370.194 278.255 369.974 277.855C369.761 277.455 369.654 276.955 369.654 276.355C369.654 275.755 369.757 275.255 369.964 274.855C370.177 274.455 370.464 274.155 370.824 273.955C371.191 273.755 371.601 273.655 372.054 273.655C372.574 273.655 373.034 273.769 373.434 273.995C373.834 274.222 374.151 274.539 374.384 274.945C374.617 275.345 374.734 275.815 374.734 276.355C374.734 276.895 374.617 277.369 374.384 277.775C374.151 278.182 373.834 278.499 373.434 278.725C373.034 278.952 372.574 279.065 372.054 279.065ZM369.244 280.945V273.705H370.164V275.135L370.104 276.365L370.204 277.595V280.945H369.244ZM371.974 278.225C372.314 278.225 372.617 278.149 372.884 277.995C373.157 277.842 373.371 277.625 373.524 277.345C373.684 277.059 373.764 276.729 373.764 276.355C373.764 275.975 373.684 275.649 373.524 275.375C373.371 275.095 373.157 274.879 372.884 274.725C372.617 274.572 372.314 274.495 371.974 274.495C371.641 274.495 371.337 274.572 371.064 274.725C370.797 274.879 370.584 275.095 370.424 275.375C370.271 275.649 370.194 275.975 370.194 276.355C370.194 276.729 370.271 277.059 370.424 277.345C370.584 277.625 370.797 277.842 371.064 277.995C371.337 278.149 371.641 278.225 371.974 278.225Z" fill="black" fill-opacity="0.6"/>
<path d="M402.21 279.085C401.677 279.085 401.18 278.995 400.72 278.815C400.267 278.635 399.873 278.385 399.54 278.065C399.207 277.739 398.947 277.359 398.76 276.925C398.573 276.492 398.48 276.019 398.48 275.505C398.48 274.992 398.573 274.519 398.76 274.085C398.947 273.652 399.207 273.275 399.54 272.955C399.873 272.629 400.267 272.375 400.72 272.195C401.173 272.015 401.67 271.925 402.21 271.925C402.743 271.925 403.233 272.015 403.68 272.195C404.133 272.369 404.527 272.619 404.86 272.945C405.2 273.265 405.46 273.642 405.64 274.075C405.827 274.509 405.92 274.985 405.92 275.505C405.92 276.025 405.827 276.502 405.64 276.935C405.46 277.369 405.2 277.749 404.86 278.075C404.527 278.395 404.133 278.645 403.68 278.825C403.233 278.999 402.743 279.085 402.21 279.085ZM402.21 278.195C402.597 278.195 402.953 278.129 403.28 277.995C403.613 277.862 403.9 277.675 404.14 277.435C404.387 277.189 404.577 276.902 404.71 276.575C404.85 276.249 404.92 275.892 404.92 275.505C404.92 275.119 404.85 274.762 404.71 274.435C404.577 274.109 404.387 273.825 404.14 273.585C403.9 273.339 403.613 273.149 403.28 273.015C402.953 272.882 402.597 272.815 402.21 272.815C401.817 272.815 401.453 272.882 401.12 273.015C400.793 273.149 400.507 273.339 400.26 273.585C400.013 273.825 399.82 274.109 399.68 274.435C399.547 274.762 399.48 275.119 399.48 275.505C399.48 275.892 399.547 276.249 399.68 276.575C399.82 276.902 400.013 277.189 400.26 277.435C400.507 277.675 400.793 277.862 401.12 277.995C401.453 278.129 401.817 278.195 402.21 278.195ZM409.618 279.065C409.078 279.065 408.595 278.949 408.168 278.715C407.748 278.482 407.418 278.162 407.178 277.755C406.938 277.349 406.818 276.882 406.818 276.355C406.818 275.829 406.938 275.362 407.178 274.955C407.418 274.549 407.748 274.232 408.168 274.005C408.595 273.772 409.078 273.655 409.618 273.655C410.098 273.655 410.525 273.752 410.898 273.945C411.278 274.132 411.572 274.412 411.778 274.785L411.048 275.255C410.875 274.995 410.662 274.805 410.408 274.685C410.162 274.559 409.895 274.495 409.608 274.495C409.262 274.495 408.952 274.572 408.678 274.725C408.405 274.879 408.188 275.095 408.028 275.375C407.868 275.649 407.788 275.975 407.788 276.355C407.788 276.735 407.868 277.065 408.028 277.345C408.188 277.625 408.405 277.842 408.678 277.995C408.952 278.149 409.262 278.225 409.608 278.225C409.895 278.225 410.162 278.165 410.408 278.045C410.662 277.919 410.875 277.725 411.048 277.465L411.778 277.925C411.572 278.292 411.278 278.575 410.898 278.775C410.525 278.969 410.098 279.065 409.618 279.065ZM414.91 279.065C414.376 279.065 413.963 278.922 413.67 278.635C413.376 278.349 413.23 277.939 413.23 277.405V272.545H414.19V277.365C414.19 277.652 414.26 277.872 414.4 278.025C414.546 278.179 414.753 278.255 415.02 278.255C415.32 278.255 415.57 278.172 415.77 278.005L416.07 278.695C415.923 278.822 415.746 278.915 415.54 278.975C415.34 279.035 415.13 279.065 414.91 279.065ZM412.33 274.495V273.705H415.71V274.495H412.33Z" fill="black" fill-opacity="0.6"/>
<path d="M440.05 279.005V272.005H440.87L445.5 277.755H445.07V272.005H446.07V279.005H445.25L440.62 273.255H441.05V279.005H440.05ZM450.295 279.065C449.762 279.065 449.289 278.949 448.875 278.715C448.462 278.482 448.135 278.162 447.895 277.755C447.655 277.342 447.535 276.875 447.535 276.355C447.535 275.829 447.655 275.362 447.895 274.955C448.135 274.549 448.462 274.232 448.875 274.005C449.289 273.772 449.762 273.655 450.295 273.655C450.822 273.655 451.292 273.772 451.705 274.005C452.125 274.232 452.452 274.549 452.685 274.955C452.925 275.355 453.045 275.822 453.045 276.355C453.045 276.882 452.925 277.349 452.685 277.755C452.452 278.162 452.125 278.482 451.705 278.715C451.292 278.949 450.822 279.065 450.295 279.065ZM450.295 278.225C450.635 278.225 450.939 278.149 451.205 277.995C451.479 277.842 451.692 277.625 451.845 277.345C451.999 277.059 452.075 276.729 452.075 276.355C452.075 275.975 451.999 275.649 451.845 275.375C451.692 275.095 451.479 274.879 451.205 274.725C450.939 274.572 450.635 274.495 450.295 274.495C449.955 274.495 449.652 274.572 449.385 274.725C449.119 274.879 448.905 275.095 448.745 275.375C448.585 275.649 448.505 275.975 448.505 276.355C448.505 276.729 448.585 277.059 448.745 277.345C448.905 277.625 449.119 277.842 449.385 277.995C449.652 278.149 449.955 278.225 450.295 278.225ZM455.616 279.005L453.296 273.705H454.296L456.356 278.505H455.876L457.976 273.705H458.916L456.596 279.005H455.616Z" fill="black" fill-opacity="0.6"/>
<path d="M482.05 279.005V272.005H485C485.747 272.005 486.403 272.152 486.97 272.445C487.543 272.739 487.987 273.149 488.3 273.675C488.62 274.202 488.78 274.812 488.78 275.505C488.78 276.199 488.62 276.809 488.3 277.335C487.987 277.862 487.543 278.272 486.97 278.565C486.403 278.859 485.747 279.005 485 279.005H482.05ZM483.05 278.135H484.94C485.52 278.135 486.02 278.025 486.44 277.805C486.867 277.585 487.197 277.279 487.43 276.885C487.663 276.485 487.78 276.025 487.78 275.505C487.78 274.979 487.663 274.519 487.43 274.125C487.197 273.732 486.867 273.425 486.44 273.205C486.02 272.985 485.52 272.875 484.94 272.875H483.05V278.135ZM492.532 279.065C491.965 279.065 491.465 278.949 491.032 278.715C490.605 278.482 490.272 278.162 490.032 277.755C489.798 277.349 489.682 276.882 489.682 276.355C489.682 275.829 489.795 275.362 490.022 274.955C490.255 274.549 490.572 274.232 490.972 274.005C491.378 273.772 491.835 273.655 492.342 273.655C492.855 273.655 493.308 273.769 493.702 273.995C494.095 274.222 494.402 274.542 494.622 274.955C494.848 275.362 494.962 275.839 494.962 276.385C494.962 276.425 494.958 276.472 494.952 276.525C494.952 276.579 494.948 276.629 494.942 276.675H490.432V275.985H494.442L494.052 276.225C494.058 275.885 493.988 275.582 493.842 275.315C493.695 275.049 493.492 274.842 493.232 274.695C492.978 274.542 492.682 274.465 492.342 274.465C492.008 274.465 491.712 274.542 491.452 274.695C491.192 274.842 490.988 275.052 490.842 275.325C490.695 275.592 490.622 275.899 490.622 276.245V276.405C490.622 276.759 490.702 277.075 490.862 277.355C491.028 277.629 491.258 277.842 491.552 277.995C491.845 278.149 492.182 278.225 492.562 278.225C492.875 278.225 493.158 278.172 493.412 278.065C493.672 277.959 493.898 277.799 494.092 277.585L494.622 278.205C494.382 278.485 494.082 278.699 493.722 278.845C493.368 278.992 492.972 279.065 492.532 279.065ZM498.605 279.065C498.065 279.065 497.581 278.949 497.155 278.715C496.735 278.482 496.405 278.162 496.165 277.755C495.925 277.349 495.805 276.882 495.805 276.355C495.805 275.829 495.925 275.362 496.165 274.955C496.405 274.549 496.735 274.232 497.155 274.005C497.581 273.772 498.065 273.655 498.605 273.655C499.085 273.655 499.511 273.752 499.885 273.945C500.265 274.132 500.558 274.412 500.765 274.785L500.035 275.255C499.861 274.995 499.648 274.805 499.395 274.685C499.148 274.559 498.881 274.495 498.595 274.495C498.248 274.495 497.938 274.572 497.665 274.725C497.391 274.879 497.175 275.095 497.015 275.375C496.855 275.649 496.775 275.975 496.775 276.355C496.775 276.735 496.855 277.065 497.015 277.345C497.175 277.625 497.391 277.842 497.665 277.995C497.938 278.149 498.248 278.225 498.595 278.225C498.881 278.225 499.148 278.165 499.395 278.045C499.648 277.919 499.861 277.725 500.035 277.465L500.765 277.925C500.558 278.292 500.265 278.575 499.885 278.775C499.511 278.969 499.085 279.065 498.605 279.065Z" fill="black" fill-opacity="0.6"/>
<path d="M3.37 206.884V206.204L6.22 203.454C6.47333 203.214 6.66 203.004 6.78 202.824C6.90667 202.637 6.99 202.467 7.03 202.314C7.07667 202.154 7.1 202.001 7.1 201.854C7.1 201.494 6.97333 201.211 6.72 201.004C6.46667 200.797 6.09667 200.694 5.61 200.694C5.23667 200.694 4.9 200.757 4.6 200.884C4.3 201.004 4.04 201.194 3.82 201.454L3.14 200.864C3.40667 200.524 3.76333 200.264 4.21 200.084C4.66333 199.897 5.16 199.804 5.7 199.804C6.18667 199.804 6.61 199.884 6.97 200.044C7.33 200.197 7.60667 200.421 7.8 200.714C8 201.007 8.1 201.354 8.1 201.754C8.1 201.981 8.07 202.204 8.01 202.424C7.95 202.644 7.83667 202.877 7.67 203.124C7.50333 203.371 7.26333 203.647 6.95 203.954L4.41 206.404L4.17 206.014H8.4V206.884H3.37ZM12.0724 206.964C11.5258 206.964 11.0358 206.824 10.6024 206.544C10.1758 206.264 9.83576 205.857 9.58242 205.324C9.33576 204.791 9.21242 204.144 9.21242 203.384C9.21242 202.624 9.33576 201.977 9.58242 201.444C9.83576 200.911 10.1758 200.504 10.6024 200.224C11.0358 199.944 11.5258 199.804 12.0724 199.804C12.6124 199.804 13.0991 199.944 13.5324 200.224C13.9658 200.504 14.3058 200.911 14.5524 201.444C14.7991 201.977 14.9224 202.624 14.9224 203.384C14.9224 204.144 14.7991 204.791 14.5524 205.324C14.3058 205.857 13.9658 206.264 13.5324 206.544C13.0991 206.824 12.6124 206.964 12.0724 206.964ZM12.0724 206.074C12.4391 206.074 12.7591 205.974 13.0324 205.774C13.3124 205.574 13.5291 205.274 13.6824 204.874C13.8424 204.474 13.9224 203.977 13.9224 203.384C13.9224 202.791 13.8424 202.294 13.6824 201.894C13.5291 201.494 13.3124 201.194 13.0324 200.994C12.7591 200.794 12.4391 200.694 12.0724 200.694C11.7058 200.694 11.3824 200.794 11.1024 200.994C10.8224 201.194 10.6024 201.494 10.4424 201.894C10.2891 202.294 10.2124 202.791 10.2124 203.384C10.2124 203.977 10.2891 204.474 10.4424 204.874C10.6024 205.274 10.8224 205.574 11.1024 205.774C11.3824 205.974 11.7058 206.074 12.0724 206.074Z" fill="black" fill-opacity="0.6"/>
<path d="M2.38 156.186V155.486L5.96 150.906H7.04L3.49 155.486L2.98 155.326H8.57V156.186H2.38ZM6.27 157.906V156.186L6.3 155.326V153.806H7.24V157.906H6.27ZM12.0295 157.986C11.4828 157.986 10.9928 157.846 10.5595 157.566C10.1328 157.286 9.79279 156.879 9.53945 156.346C9.29279 155.812 9.16945 155.166 9.16945 154.406C9.16945 153.646 9.29279 152.999 9.53945 152.466C9.79279 151.932 10.1328 151.526 10.5595 151.246C10.9928 150.966 11.4828 150.826 12.0295 150.826C12.5695 150.826 13.0561 150.966 13.4895 151.246C13.9228 151.526 14.2628 151.932 14.5095 152.466C14.7561 152.999 14.8795 153.646 14.8795 154.406C14.8795 155.166 14.7561 155.812 14.5095 156.346C14.2628 156.879 13.9228 157.286 13.4895 157.566C13.0561 157.846 12.5695 157.986 12.0295 157.986ZM12.0295 157.096C12.3961 157.096 12.7161 156.996 12.9895 156.796C13.2695 156.596 13.4861 156.296 13.6395 155.896C13.7995 155.496 13.8795 154.999 13.8795 154.406C13.8795 153.812 13.7995 153.316 13.6395 152.916C13.4861 152.516 13.2695 152.216 12.9895 152.016C12.7161 151.816 12.3961 151.716 12.0295 151.716C11.6628 151.716 11.3395 151.816 11.0595 152.016C10.7795 152.216 10.5595 152.516 10.3995 152.916C10.2461 153.316 10.1695 153.812 10.1695 154.406C10.1695 154.999 10.2461 155.496 10.3995 155.896C10.5595 156.296 10.7795 156.596 11.0595 156.796C11.3395 156.996 11.6628 157.096 12.0295 157.096Z" fill="black" fill-opacity="0.6"/>
<path d="M6.42 109.007C5.8 109.007 5.27 108.871 4.83 108.597C4.39 108.324 4.05333 107.931 3.82 107.417C3.59333 106.897 3.48 106.264 3.48 105.517C3.48 104.724 3.62 104.054 3.9 103.507C4.18 102.961 4.57 102.547 5.07 102.267C5.57 101.987 6.14333 101.847 6.79 101.847C7.12333 101.847 7.44 101.881 7.74 101.947C8.04667 102.014 8.31 102.117 8.53 102.257L8.15 103.037C7.97 102.911 7.76333 102.824 7.53 102.777C7.30333 102.731 7.06333 102.707 6.81 102.707C6.09667 102.707 5.53 102.931 5.11 103.377C4.69 103.817 4.48 104.474 4.48 105.347C4.48 105.487 4.48667 105.654 4.5 105.847C4.51333 106.041 4.54667 106.231 4.6 106.417L4.26 106.077C4.36 105.771 4.51667 105.514 4.73 105.307C4.95 105.094 5.21 104.937 5.51 104.837C5.81667 104.731 6.14667 104.677 6.5 104.677C6.96667 104.677 7.38 104.764 7.74 104.937C8.1 105.111 8.38333 105.357 8.59 105.677C8.79667 105.991 8.9 106.364 8.9 106.797C8.9 107.244 8.79 107.634 8.57 107.967C8.35 108.301 8.05333 108.557 7.68 108.737C7.30667 108.917 6.88667 109.007 6.42 109.007ZM6.38 108.197C6.68667 108.197 6.95333 108.141 7.18 108.027C7.41333 107.914 7.59667 107.757 7.73 107.557C7.86333 107.351 7.93 107.111 7.93 106.837C7.93 106.424 7.78667 106.097 7.5 105.857C7.21333 105.611 6.82333 105.487 6.33 105.487C6.01 105.487 5.73 105.547 5.49 105.667C5.25 105.787 5.06 105.951 4.92 106.157C4.78667 106.357 4.72 106.587 4.72 106.847C4.72 107.087 4.78333 107.311 4.91 107.517C5.03667 107.717 5.22333 107.881 5.47 108.007C5.71667 108.134 6.02 108.197 6.38 108.197ZM12.5119 109.007C11.9652 109.007 11.4752 108.867 11.0419 108.587C10.6152 108.307 10.2752 107.901 10.0219 107.367C9.77521 106.834 9.65188 106.187 9.65188 105.427C9.65188 104.667 9.77521 104.021 10.0219 103.487C10.2752 102.954 10.6152 102.547 11.0419 102.267C11.4752 101.987 11.9652 101.847 12.5119 101.847C13.0519 101.847 13.5385 101.987 13.9719 102.267C14.4052 102.547 14.7452 102.954 14.9919 103.487C15.2385 104.021 15.3619 104.667 15.3619 105.427C15.3619 106.187 15.2385 106.834 14.9919 107.367C14.7452 107.901 14.4052 108.307 13.9719 108.587C13.5385 108.867 13.0519 109.007 12.5119 109.007ZM12.5119 108.117C12.8785 108.117 13.1985 108.017 13.4719 107.817C13.7519 107.617 13.9685 107.317 14.1219 106.917C14.2819 106.517 14.3619 106.021 14.3619 105.427C14.3619 104.834 14.2819 104.337 14.1219 103.937C13.9685 103.537 13.7519 103.237 13.4719 103.037C13.1985 102.837 12.8785 102.737 12.5119 102.737C12.1452 102.737 11.8219 102.837 11.5419 103.037C11.2619 103.237 11.0419 103.537 10.8819 103.937C10.7285 104.337 10.6519 104.834 10.6519 105.427C10.6519 106.021 10.7285 106.517 10.8819 106.917C11.0419 107.317 11.2619 107.617 11.5419 107.817C11.8219 108.017 12.1452 108.117 12.5119 108.117Z" fill="black" fill-opacity="0.6"/>
<path d="M5.21 60.0287C4.64333 60.0287 4.15333 59.9454 3.74 59.7787C3.32667 59.6121 3.00667 59.3754 2.78 59.0687C2.55333 58.7554 2.44 58.3887 2.44 57.9687C2.44 57.5554 2.54667 57.2054 2.76 56.9187C2.98 56.6254 3.29667 56.4054 3.71 56.2587C4.12333 56.1054 4.62333 56.0287 5.21 56.0287C5.79667 56.0287 6.29667 56.1054 6.71 56.2587C7.13 56.4054 7.45 56.6254 7.67 56.9187C7.89 57.2121 8 57.5621 8 57.9687C8 58.3887 7.88667 58.7554 7.66 59.0687C7.43333 59.3754 7.11 59.6121 6.69 59.7787C6.27 59.9454 5.77667 60.0287 5.21 60.0287ZM5.21 59.2187C5.77 59.2187 6.20667 59.1054 6.52 58.8787C6.84 58.6454 7 58.3321 7 57.9387C7 57.5521 6.84 57.2487 6.52 57.0287C6.20667 56.8021 5.77 56.6887 5.21 56.6887C4.65667 56.6887 4.22333 56.8021 3.91 57.0287C3.59667 57.2487 3.44 57.5521 3.44 57.9387C3.44 58.3321 3.59667 58.6454 3.91 58.8787C4.22333 59.1054 4.65667 59.2187 5.21 59.2187ZM5.21 56.5687C4.67667 56.5687 4.22333 56.4987 3.85 56.3587C3.47667 56.2121 3.19 56.0054 2.99 55.7387C2.79 55.4654 2.69 55.1421 2.69 54.7687C2.69 54.3754 2.79333 54.0387 3 53.7587C3.21333 53.4721 3.51 53.2521 3.89 53.0987C4.27 52.9454 4.71 52.8687 5.21 52.8687C5.71667 52.8687 6.16 52.9454 6.54 53.0987C6.92 53.2521 7.21667 53.4721 7.43 53.7587C7.64333 54.0387 7.75 54.3754 7.75 54.7687C7.75 55.1421 7.65 55.4654 7.45 55.7387C7.25 56.0054 6.96 56.2121 6.58 56.3587C6.2 56.4987 5.74333 56.5687 5.21 56.5687ZM5.21 55.9287C5.69667 55.9287 6.07667 55.8287 6.35 55.6287C6.63 55.4287 6.77 55.1554 6.77 54.8087C6.77 54.4554 6.62667 54.1787 6.34 53.9787C6.05333 53.7787 5.67667 53.6787 5.21 53.6787C4.74333 53.6787 4.37 53.7787 4.09 53.9787C3.81667 54.1787 3.68 54.4554 3.68 54.8087C3.68 55.1554 3.81333 55.4287 4.08 55.6287C4.35333 55.8287 4.73 55.9287 5.21 55.9287ZM11.7755 60.0287C11.2289 60.0287 10.7389 59.8887 10.3055 59.6087C9.87888 59.3287 9.53888 58.9221 9.28555 58.3887C9.03888 57.8554 8.91555 57.2087 8.91555 56.4487C8.91555 55.6887 9.03888 55.0421 9.28555 54.5087C9.53888 53.9754 9.87888 53.5687 10.3055 53.2887C10.7389 53.0087 11.2289 52.8687 11.7755 52.8687C12.3155 52.8687 12.8022 53.0087 13.2355 53.2887C13.6689 53.5687 14.0089 53.9754 14.2555 54.5087C14.5022 55.0421 14.6255 55.6887 14.6255 56.4487C14.6255 57.2087 14.5022 57.8554 14.2555 58.3887C14.0089 58.9221 13.6689 59.3287 13.2355 59.6087C12.8022 59.8887 12.3155 60.0287 11.7755 60.0287ZM11.7755 59.1387C12.1422 59.1387 12.4622 59.0387 12.7355 58.8387C13.0155 58.6387 13.2322 58.3387 13.3855 57.9387C13.5455 57.5387 13.6255 57.0421 13.6255 56.4487C13.6255 55.8554 13.5455 55.3587 13.3855 54.9587C13.2322 54.5587 13.0155 54.2587 12.7355 54.0587C12.4622 53.8587 12.1422 53.7587 11.7755 53.7587C11.4089 53.7587 11.0855 53.8587 10.8055 54.0587C10.5255 54.2587 10.3055 54.5587 10.1455 54.9587C9.99221 55.3587 9.91555 55.8554 9.91555 56.4487C9.91555 57.0421 9.99221 57.5387 10.1455 57.9387C10.3055 58.3387 10.5255 58.6387 10.8055 58.8387C11.0855 59.0387 11.4089 59.1387 11.7755 59.1387Z" fill="black" fill-opacity="0.6"/>
<path d="M1.66 10.9705V4.37046L2.09 4.84046H0.08V3.97046H2.65V10.9705H1.66ZM7.04117 11.0505C6.49451 11.0505 6.00451 10.9105 5.57117 10.6305C5.14451 10.3505 4.80451 9.94379 4.55117 9.41046C4.30451 8.87713 4.18117 8.23046 4.18117 7.47046C4.18117 6.71046 4.30451 6.06379 4.55117 5.53046C4.80451 4.99713 5.14451 4.59046 5.57117 4.31046C6.00451 4.03046 6.49451 3.89046 7.04117 3.89046C7.58117 3.89046 8.06784 4.03046 8.50117 4.31046C8.93451 4.59046 9.27451 4.99713 9.52117 5.53046C9.76784 6.06379 9.89117 6.71046 9.89117 7.47046C9.89117 8.23046 9.76784 8.87713 9.52117 9.41046C9.27451 9.94379 8.93451 10.3505 8.50117 10.6305C8.06784 10.9105 7.58117 11.0505 7.04117 11.0505ZM7.04117 10.1605C7.40784 10.1605 7.72784 10.0605 8.00117 9.86046C8.28117 9.66046 8.49784 9.36046 8.65117 8.96046C8.81117 8.56046 8.89117 8.06379 8.89117 7.47046C8.89117 6.87713 8.81117 6.38046 8.65117 5.98046C8.49784 5.58046 8.28117 5.28046 8.00117 5.08046C7.72784 4.88046 7.40784 4.78046 7.04117 4.78046C6.67451 4.78046 6.35117 4.88046 6.07117 5.08046C5.79117 5.28046 5.57117 5.58046 5.41117 5.98046C5.25784 6.38046 5.18117 6.87713 5.18117 7.47046C5.18117 8.06379 5.25784 8.56046 5.41117 8.96046C5.57117 9.36046 5.79117 9.66046 6.07117 9.86046C6.35117 10.0605 6.67451 10.1605 7.04117 10.1605ZM13.7111 11.0505C13.1644 11.0505 12.6744 10.9105 12.2411 10.6305C11.8144 10.3505 11.4744 9.94379 11.2211 9.41046C10.9744 8.87713 10.8511 8.23046 10.8511 7.47046C10.8511 6.71046 10.9744 6.06379 11.2211 5.53046C11.4744 4.99713 11.8144 4.59046 12.2411 4.31046C12.6744 4.03046 13.1644 3.89046 13.7111 3.89046C14.2511 3.89046 14.7378 4.03046 15.1711 4.31046C15.6044 4.59046 15.9444 4.99713 16.1911 5.53046C16.4378 6.06379 16.5611 6.71046 16.5611 7.47046C16.5611 8.23046 16.4378 8.87713 16.1911 9.41046C15.9444 9.94379 15.6044 10.3505 15.1711 10.6305C14.7378 10.9105 14.2511 11.0505 13.7111 11.0505ZM13.7111 10.1605C14.0778 10.1605 14.3978 10.0605 14.6711 9.86046C14.9511 9.66046 15.1678 9.36046 15.3211 8.96046C15.4811 8.56046 15.5611 8.06379 15.5611 7.47046C15.5611 6.87713 15.4811 6.38046 15.3211 5.98046C15.1678 5.58046 14.9511 5.28046 14.6711 5.08046C14.3978 4.88046 14.0778 4.78046 13.7111 4.78046C13.3444 4.78046 13.0211 4.88046 12.7411 5.08046C12.4611 5.28046 12.2411 5.58046 12.0811 5.98046C11.9278 6.38046 11.8511 6.87713 11.8511 7.47046C11.8511 8.06379 11.9278 8.56046 12.0811 8.96046C12.2411 9.36046 12.4611 9.66046 12.7411 9.86046C13.0211 10.0605 13.3444 10.1605 13.7111 10.1605Z" fill="black" fill-opacity="0.6"/>
</svg>
