<svg width="338" height="181" viewBox="0 0 338 181" fill="none" xmlns="http://www.w3.org/2000/svg">
<rect x="27" y="6.09106" width="310" height="0.793617" fill="black" fill-opacity="0.08"/>
<rect x="27" y="36.0911" width="310" height="0.793617" fill="black" fill-opacity="0.08"/>
<rect x="27" y="66.0911" width="310" height="0.793617" fill="black" fill-opacity="0.08"/>
<rect x="27" y="96.0911" width="310" height="0.793617" fill="black" fill-opacity="0.08"/>
<rect x="27" y="126.091" width="310" height="0.793617" fill="black" fill-opacity="0.08"/>
<rect x="27" y="156.091" width="310" height="0.793617" fill="black" fill-opacity="0.08"/>
<path d="M27.56 176.155C27.2293 176.155 26.92 176.086 26.632 175.947C26.344 175.808 26.1093 175.608 25.928 175.347L26.392 174.803C26.5467 175.016 26.72 175.182 26.912 175.299C27.1093 175.411 27.3253 175.467 27.56 175.467C28.2 175.467 28.52 175.088 28.52 174.331V171.187H26.496V170.491H29.312V174.291C29.312 174.915 29.1627 175.382 28.864 175.691C28.5707 176 28.136 176.155 27.56 176.155ZM33.4616 176.091V175.195L33.4216 175.027V173.499C33.4216 173.174 33.3256 172.923 33.1336 172.747C32.9469 172.566 32.6642 172.475 32.2856 172.475C32.0349 172.475 31.7896 172.518 31.5496 172.603C31.3096 172.683 31.1069 172.792 30.9416 172.931L30.6216 172.355C30.8402 172.179 31.1016 172.046 31.4056 171.955C31.7149 171.859 32.0376 171.811 32.3736 171.811C32.9549 171.811 33.4029 171.952 33.7176 172.235C34.0322 172.518 34.1896 172.95 34.1896 173.531V176.091H33.4616ZM32.0696 176.139C31.7549 176.139 31.4776 176.086 31.2376 175.979C31.0029 175.872 30.8216 175.726 30.6936 175.539C30.5656 175.347 30.5016 175.131 30.5016 174.891C30.5016 174.662 30.5549 174.454 30.6616 174.267C30.7736 174.08 30.9522 173.931 31.1976 173.819C31.4482 173.707 31.7842 173.651 32.2056 173.651H33.5496V174.203H32.2376C31.8536 174.203 31.5949 174.267 31.4616 174.395C31.3282 174.523 31.2616 174.678 31.2616 174.859C31.2616 175.067 31.3442 175.235 31.5096 175.363C31.6749 175.486 31.9042 175.547 32.1976 175.547C32.4856 175.547 32.7362 175.483 32.9496 175.355C33.1682 175.227 33.3256 175.04 33.4216 174.795L33.5736 175.323C33.4722 175.574 33.2936 175.774 33.0376 175.923C32.7816 176.067 32.4589 176.139 32.0696 176.139ZM37.8748 171.811C38.2215 171.811 38.5255 171.878 38.7868 172.011C39.0535 172.144 39.2615 172.347 39.4108 172.619C39.5601 172.891 39.6348 173.235 39.6348 173.651V176.091H38.8668V173.739C38.8668 173.328 38.7655 173.019 38.5628 172.811C38.3655 172.603 38.0855 172.499 37.7228 172.499C37.4508 172.499 37.2135 172.552 37.0108 172.659C36.8081 172.766 36.6508 172.923 36.5388 173.131C36.4321 173.339 36.3788 173.598 36.3788 173.907V176.091H35.6108V171.851H36.3468V172.995L36.2268 172.691C36.3655 172.414 36.5788 172.198 36.8668 172.043C37.1548 171.888 37.4908 171.811 37.8748 171.811Z" fill="black" fill-opacity="0.6"/>
<path d="M52.56 173.139H55.448V173.827H52.56V173.139ZM52.64 176.091H51.84V170.491H55.792V171.187H52.64V176.091ZM58.5613 176.139C58.108 176.139 57.708 176.046 57.3613 175.859C57.02 175.672 56.7533 175.416 56.5613 175.091C56.3746 174.766 56.2813 174.392 56.2813 173.971C56.2813 173.55 56.372 173.176 56.5533 172.851C56.74 172.526 56.9933 172.272 57.3133 172.091C57.6386 171.904 58.004 171.811 58.4093 171.811C58.82 171.811 59.1826 171.902 59.4973 172.083C59.812 172.264 60.0573 172.52 60.2333 172.851C60.4146 173.176 60.5053 173.558 60.5053 173.995C60.5053 174.027 60.5026 174.064 60.4973 174.107C60.4973 174.15 60.4946 174.19 60.4893 174.227H56.8813V173.675H60.0893L59.7773 173.867C59.7826 173.595 59.7266 173.352 59.6093 173.139C59.492 172.926 59.3293 172.76 59.1213 172.643C58.9186 172.52 58.6813 172.459 58.4093 172.459C58.1426 172.459 57.9053 172.52 57.6973 172.643C57.4893 172.76 57.3266 172.928 57.2093 173.147C57.092 173.36 57.0333 173.606 57.0333 173.883V174.011C57.0333 174.294 57.0973 174.547 57.2253 174.771C57.3586 174.99 57.5426 175.16 57.7773 175.283C58.012 175.406 58.2813 175.467 58.5853 175.467C58.836 175.467 59.0626 175.424 59.2653 175.339C59.4733 175.254 59.6546 175.126 59.8093 174.955L60.2333 175.451C60.0413 175.675 59.8013 175.846 59.5133 175.963C59.2306 176.08 58.9133 176.139 58.5613 176.139ZM63.8198 176.139C63.4571 176.139 63.1291 176.059 62.8358 175.899C62.5478 175.734 62.3184 175.491 62.1478 175.171C61.9824 174.851 61.8997 174.451 61.8997 173.971C61.8997 173.491 61.9851 173.091 62.1558 172.771C62.3318 172.451 62.5638 172.211 62.8518 172.051C63.1451 171.891 63.4678 171.811 63.8198 171.811C64.2358 171.811 64.6038 171.902 64.9238 172.083C65.2438 172.264 65.4971 172.518 65.6838 172.843C65.8704 173.163 65.9638 173.539 65.9638 173.971C65.9638 174.403 65.8704 174.782 65.6838 175.107C65.4971 175.432 65.2438 175.686 64.9238 175.867C64.6038 176.048 64.2358 176.139 63.8198 176.139ZM61.5718 176.091V170.155H62.3398V172.979L62.2598 173.963L62.3078 174.947V176.091H61.5718ZM63.7558 175.467C64.0278 175.467 64.2704 175.406 64.4838 175.283C64.7024 175.16 64.8731 174.987 64.9958 174.763C65.1238 174.534 65.1878 174.27 65.1878 173.971C65.1878 173.667 65.1238 173.406 64.9958 173.187C64.8731 172.963 64.7024 172.79 64.4838 172.667C64.2704 172.544 64.0278 172.483 63.7558 172.483C63.4891 172.483 63.2464 172.544 63.0278 172.667C62.8144 172.79 62.6438 172.963 62.5158 173.187C62.3931 173.406 62.3318 173.667 62.3318 173.971C62.3318 174.27 62.3931 174.534 62.5158 174.763C62.6438 174.987 62.8144 175.16 63.0278 175.283C63.2464 175.406 63.4891 175.467 63.7558 175.467Z" fill="black" fill-opacity="0.6"/>
<path d="M78.84 176.091V170.491H79.496L82.008 174.723H81.656L84.136 170.491H84.792L84.8 176.091H84.032L84.024 171.699H84.208L82 175.411H81.632L79.408 171.699H79.608V176.091H78.84ZM89.0006 176.091V175.195L88.9606 175.027V173.499C88.9606 173.174 88.8646 172.923 88.6726 172.747C88.486 172.566 88.2033 172.475 87.8246 172.475C87.574 172.475 87.3286 172.518 87.0886 172.603C86.8486 172.683 86.646 172.792 86.4806 172.931L86.1606 172.355C86.3793 172.179 86.6406 172.046 86.9446 171.955C87.254 171.859 87.5766 171.811 87.9126 171.811C88.494 171.811 88.942 171.952 89.2566 172.235C89.5713 172.518 89.7286 172.95 89.7286 173.531V176.091H89.0006ZM87.6086 176.139C87.294 176.139 87.0166 176.086 86.7766 175.979C86.542 175.872 86.3606 175.726 86.2326 175.539C86.1046 175.347 86.0406 175.131 86.0406 174.891C86.0406 174.662 86.094 174.454 86.2006 174.267C86.3126 174.08 86.4913 173.931 86.7366 173.819C86.9873 173.707 87.3233 173.651 87.7446 173.651H89.0886V174.203H87.7766C87.3926 174.203 87.134 174.267 87.0006 174.395C86.8673 174.523 86.8006 174.678 86.8006 174.859C86.8006 175.067 86.8833 175.235 87.0486 175.363C87.214 175.486 87.4433 175.547 87.7366 175.547C88.0246 175.547 88.2753 175.483 88.4886 175.355C88.7073 175.227 88.8646 175.04 88.9606 174.795L89.1126 175.323C89.0113 175.574 88.8326 175.774 88.5766 175.923C88.3206 176.067 87.998 176.139 87.6086 176.139ZM91.1499 176.091V171.851H91.8859V173.003L91.8139 172.715C91.9312 172.422 92.1285 172.198 92.4059 172.043C92.6832 171.888 93.0245 171.811 93.4299 171.811V172.555C93.3979 172.55 93.3659 172.547 93.3339 172.547C93.3072 172.547 93.2805 172.547 93.2539 172.547C92.8432 172.547 92.5179 172.67 92.2779 172.915C92.0379 173.16 91.9179 173.515 91.9179 173.979V176.091H91.1499Z" fill="black" fill-opacity="0.6"/>
<path d="M104.992 176.091L107.528 170.491H108.32L110.864 176.091H110.024L107.76 170.939H108.08L105.816 176.091H104.992ZM106.072 174.691L106.288 174.051H109.44L109.672 174.691H106.072ZM113.835 176.139C113.483 176.139 113.161 176.059 112.867 175.899C112.579 175.734 112.347 175.491 112.171 175.171C112.001 174.851 111.915 174.451 111.915 173.971C111.915 173.491 111.998 173.091 112.163 172.771C112.334 172.451 112.563 172.211 112.851 172.051C113.145 171.891 113.473 171.811 113.835 171.811C114.251 171.811 114.619 171.902 114.939 172.083C115.259 172.264 115.513 172.518 115.699 172.843C115.886 173.163 115.979 173.539 115.979 173.971C115.979 174.403 115.886 174.782 115.699 175.107C115.513 175.432 115.259 175.686 114.939 175.867C114.619 176.048 114.251 176.139 113.835 176.139ZM111.587 177.643V171.851H112.323V172.995L112.275 173.979L112.355 174.963V177.643H111.587ZM113.771 175.467C114.043 175.467 114.286 175.406 114.499 175.283C114.718 175.16 114.889 174.987 115.011 174.763C115.139 174.534 115.203 174.27 115.203 173.971C115.203 173.667 115.139 173.406 115.011 173.187C114.889 172.963 114.718 172.79 114.499 172.667C114.286 172.544 114.043 172.483 113.771 172.483C113.505 172.483 113.262 172.544 113.043 172.667C112.83 172.79 112.659 172.963 112.531 173.187C112.409 173.406 112.347 173.667 112.347 173.971C112.347 174.27 112.409 174.534 112.531 174.763C112.659 174.987 112.83 175.16 113.043 175.283C113.262 175.406 113.505 175.467 113.771 175.467ZM117.041 176.091V171.851H117.777V173.003L117.705 172.715C117.822 172.422 118.019 172.198 118.297 172.043C118.574 171.888 118.915 171.811 119.321 171.811V172.555C119.289 172.55 119.257 172.547 119.225 172.547C119.198 172.547 119.171 172.547 119.145 172.547C118.734 172.547 118.409 172.67 118.169 172.915C117.929 173.16 117.809 173.515 117.809 173.979V176.091H117.041Z" fill="black" fill-opacity="0.6"/>
<path d="M131.84 176.091V170.491H132.496L135.008 174.723H134.656L137.136 170.491H137.792L137.8 176.091H137.032L137.024 171.699H137.208L135 175.411H134.632L132.408 171.699H132.608V176.091H131.84ZM142.001 176.091V175.195L141.961 175.027V173.499C141.961 173.174 141.865 172.923 141.673 172.747C141.486 172.566 141.203 172.475 140.825 172.475C140.574 172.475 140.329 172.518 140.089 172.603C139.849 172.683 139.646 172.792 139.481 172.931L139.161 172.355C139.379 172.179 139.641 172.046 139.945 171.955C140.254 171.859 140.577 171.811 140.913 171.811C141.494 171.811 141.942 171.952 142.257 172.235C142.571 172.518 142.729 172.95 142.729 173.531V176.091H142.001ZM140.609 176.139C140.294 176.139 140.017 176.086 139.777 175.979C139.542 175.872 139.361 175.726 139.233 175.539C139.105 175.347 139.041 175.131 139.041 174.891C139.041 174.662 139.094 174.454 139.201 174.267C139.313 174.08 139.491 173.931 139.737 173.819C139.987 173.707 140.323 173.651 140.745 173.651H142.089V174.203H140.777C140.393 174.203 140.134 174.267 140.001 174.395C139.867 174.523 139.801 174.678 139.801 174.859C139.801 175.067 139.883 175.235 140.049 175.363C140.214 175.486 140.443 175.547 140.737 175.547C141.025 175.547 141.275 175.483 141.489 175.355C141.707 175.227 141.865 175.04 141.961 174.795L142.113 175.323C142.011 175.574 141.833 175.774 141.577 175.923C141.321 176.067 140.998 176.139 140.609 176.139ZM144.256 177.691C144.053 177.691 143.856 177.656 143.664 177.587C143.472 177.523 143.306 177.427 143.168 177.299L143.496 176.723C143.602 176.824 143.72 176.902 143.848 176.955C143.976 177.008 144.112 177.035 144.256 177.035C144.442 177.035 144.597 176.987 144.72 176.891C144.842 176.795 144.957 176.624 145.064 176.379L145.328 175.795L145.408 175.699L147.072 171.851H147.824L145.768 176.515C145.645 176.814 145.506 177.048 145.352 177.219C145.202 177.39 145.037 177.51 144.856 177.579C144.674 177.654 144.474 177.691 144.256 177.691ZM145.264 176.227L143.328 171.851H144.128L145.776 175.627L145.264 176.227Z" fill="black" fill-opacity="0.6"/>
<path d="M161.56 176.155C161.229 176.155 160.92 176.086 160.632 175.947C160.344 175.808 160.109 175.608 159.928 175.347L160.392 174.803C160.547 175.016 160.72 175.182 160.912 175.299C161.109 175.411 161.325 175.467 161.56 175.467C162.2 175.467 162.52 175.088 162.52 174.331V171.187H160.496V170.491H163.312V174.291C163.312 174.915 163.163 175.382 162.864 175.691C162.571 176 162.136 176.155 161.56 176.155ZM166.614 176.139C166.251 176.139 165.931 176.072 165.654 175.939C165.382 175.806 165.168 175.603 165.014 175.331C164.864 175.054 164.79 174.707 164.79 174.291V171.851H165.558V174.203C165.558 174.619 165.656 174.931 165.854 175.139C166.056 175.347 166.339 175.451 166.702 175.451C166.968 175.451 167.2 175.398 167.398 175.291C167.595 175.179 167.747 175.019 167.854 174.811C167.96 174.598 168.014 174.342 168.014 174.043V171.851H168.782V176.091H168.054V174.947L168.174 175.251C168.035 175.534 167.827 175.752 167.55 175.907C167.272 176.062 166.96 176.139 166.614 176.139ZM172.508 171.811C172.854 171.811 173.158 171.878 173.42 172.011C173.686 172.144 173.894 172.347 174.044 172.619C174.193 172.891 174.268 173.235 174.268 173.651V176.091H173.5V173.739C173.5 173.328 173.398 173.019 173.196 172.811C172.998 172.603 172.718 172.499 172.356 172.499C172.084 172.499 171.846 172.552 171.644 172.659C171.441 172.766 171.284 172.923 171.172 173.131C171.065 173.339 171.012 173.598 171.012 173.907V176.091H170.244V171.851H170.98V172.995L170.86 172.691C170.998 172.414 171.212 172.198 171.5 172.043C171.788 171.888 172.124 171.811 172.508 171.811Z" fill="black" fill-opacity="0.6"/>
<path d="M187.56 176.155C187.229 176.155 186.92 176.086 186.632 175.947C186.344 175.808 186.109 175.608 185.928 175.347L186.392 174.803C186.547 175.016 186.72 175.182 186.912 175.299C187.109 175.411 187.325 175.467 187.56 175.467C188.2 175.467 188.52 175.088 188.52 174.331V171.187H186.496V170.491H189.312V174.291C189.312 174.915 189.163 175.382 188.864 175.691C188.571 176 188.136 176.155 187.56 176.155ZM192.614 176.139C192.251 176.139 191.931 176.072 191.654 175.939C191.382 175.806 191.168 175.603 191.014 175.331C190.864 175.054 190.79 174.707 190.79 174.291V171.851H191.558V174.203C191.558 174.619 191.656 174.931 191.854 175.139C192.056 175.347 192.339 175.451 192.702 175.451C192.968 175.451 193.2 175.398 193.398 175.291C193.595 175.179 193.747 175.019 193.854 174.811C193.96 174.598 194.014 174.342 194.014 174.043V171.851H194.782V176.091H194.054V174.947L194.174 175.251C194.035 175.534 193.827 175.752 193.55 175.907C193.272 176.062 192.96 176.139 192.614 176.139ZM196.244 176.091V170.155H197.012V176.091H196.244Z" fill="black" fill-opacity="0.6"/>
<path d="M207.992 176.091L210.528 170.491H211.32L213.864 176.091H213.024L210.76 170.939H211.08L208.816 176.091H207.992ZM209.072 174.691L209.288 174.051H212.44L212.672 174.691H209.072ZM216.293 176.139C215.931 176.139 215.611 176.072 215.333 175.939C215.061 175.806 214.848 175.603 214.693 175.331C214.544 175.054 214.469 174.707 214.469 174.291V171.851H215.237V174.203C215.237 174.619 215.336 174.931 215.533 175.139C215.736 175.347 216.019 175.451 216.381 175.451C216.648 175.451 216.88 175.398 217.077 175.291C217.275 175.179 217.427 175.019 217.533 174.811C217.64 174.598 217.693 174.342 217.693 174.043V171.851H218.461V176.091H217.733V174.947L217.853 175.251C217.715 175.534 217.507 175.752 217.229 175.907C216.952 176.062 216.64 176.139 216.293 176.139ZM221.779 177.691C221.39 177.691 221.011 177.635 220.643 177.523C220.281 177.416 219.985 177.262 219.755 177.059L220.123 176.467C220.321 176.638 220.563 176.771 220.851 176.867C221.139 176.968 221.441 177.019 221.755 177.019C222.257 177.019 222.625 176.902 222.859 176.667C223.094 176.432 223.211 176.075 223.211 175.595V174.699L223.291 173.859L223.251 173.011V171.851H223.979V175.515C223.979 176.262 223.793 176.811 223.419 177.163C223.046 177.515 222.499 177.691 221.779 177.691ZM221.683 175.915C221.273 175.915 220.905 175.83 220.579 175.659C220.259 175.483 220.003 175.24 219.811 174.931C219.625 174.622 219.531 174.264 219.531 173.859C219.531 173.448 219.625 173.091 219.811 172.787C220.003 172.478 220.259 172.238 220.579 172.067C220.905 171.896 221.273 171.811 221.683 171.811C222.046 171.811 222.377 171.886 222.675 172.035C222.974 172.179 223.211 172.403 223.387 172.707C223.569 173.011 223.659 173.395 223.659 173.859C223.659 174.318 223.569 174.699 223.387 175.003C223.211 175.307 222.974 175.536 222.675 175.691C222.377 175.84 222.046 175.915 221.683 175.915ZM221.771 175.243C222.054 175.243 222.305 175.184 222.523 175.067C222.742 174.95 222.913 174.787 223.035 174.579C223.163 174.371 223.227 174.131 223.227 173.859C223.227 173.587 223.163 173.347 223.035 173.139C222.913 172.931 222.742 172.771 222.523 172.659C222.305 172.542 222.054 172.483 221.771 172.483C221.489 172.483 221.235 172.542 221.011 172.659C220.793 172.771 220.619 172.931 220.491 173.139C220.369 173.347 220.307 173.587 220.307 173.859C220.307 174.131 220.369 174.371 220.491 174.579C220.619 174.787 220.793 174.95 221.011 175.067C221.235 175.184 221.489 175.243 221.771 175.243Z" fill="black" fill-opacity="0.6"/>
<path d="M238.472 176.155C238.045 176.155 237.637 176.091 237.248 175.963C236.859 175.83 236.552 175.659 236.328 175.451L236.624 174.827C236.837 175.014 237.109 175.168 237.44 175.291C237.771 175.414 238.115 175.475 238.472 175.475C238.797 175.475 239.061 175.438 239.264 175.363C239.467 175.288 239.616 175.187 239.712 175.059C239.808 174.926 239.856 174.776 239.856 174.611C239.856 174.419 239.792 174.264 239.664 174.147C239.541 174.03 239.379 173.936 239.176 173.867C238.979 173.792 238.76 173.728 238.52 173.675C238.28 173.622 238.037 173.56 237.792 173.491C237.552 173.416 237.331 173.323 237.128 173.211C236.931 173.099 236.771 172.95 236.648 172.763C236.525 172.571 236.464 172.326 236.464 172.027C236.464 171.739 236.539 171.475 236.688 171.235C236.843 170.99 237.077 170.795 237.392 170.651C237.712 170.502 238.117 170.427 238.608 170.427C238.933 170.427 239.256 170.47 239.576 170.555C239.896 170.64 240.173 170.763 240.408 170.923L240.144 171.563C239.904 171.403 239.651 171.288 239.384 171.219C239.117 171.144 238.859 171.107 238.608 171.107C238.293 171.107 238.035 171.147 237.832 171.227C237.629 171.307 237.48 171.414 237.384 171.547C237.293 171.68 237.248 171.83 237.248 171.995C237.248 172.192 237.309 172.35 237.432 172.467C237.56 172.584 237.723 172.678 237.92 172.747C238.123 172.816 238.344 172.88 238.584 172.939C238.824 172.992 239.064 173.054 239.304 173.123C239.549 173.192 239.771 173.283 239.968 173.395C240.171 173.507 240.333 173.656 240.456 173.843C240.579 174.03 240.64 174.27 240.64 174.563C240.64 174.846 240.563 175.11 240.408 175.355C240.253 175.595 240.013 175.79 239.688 175.939C239.368 176.083 238.963 176.155 238.472 176.155ZM243.585 176.139C243.131 176.139 242.731 176.046 242.385 175.859C242.043 175.672 241.777 175.416 241.585 175.091C241.398 174.766 241.305 174.392 241.305 173.971C241.305 173.55 241.395 173.176 241.577 172.851C241.763 172.526 242.017 172.272 242.337 172.091C242.662 171.904 243.027 171.811 243.433 171.811C243.843 171.811 244.206 171.902 244.521 172.083C244.835 172.264 245.081 172.52 245.257 172.851C245.438 173.176 245.529 173.558 245.529 173.995C245.529 174.027 245.526 174.064 245.521 174.107C245.521 174.15 245.518 174.19 245.513 174.227H241.905V173.675H245.113L244.801 173.867C244.806 173.595 244.75 173.352 244.633 173.139C244.515 172.926 244.353 172.76 244.145 172.643C243.942 172.52 243.705 172.459 243.433 172.459C243.166 172.459 242.929 172.52 242.721 172.643C242.513 172.76 242.35 172.928 242.233 173.147C242.115 173.36 242.057 173.606 242.057 173.883V174.011C242.057 174.294 242.121 174.547 242.249 174.771C242.382 174.99 242.566 175.16 242.801 175.283C243.035 175.406 243.305 175.467 243.609 175.467C243.859 175.467 244.086 175.424 244.289 175.339C244.497 175.254 244.678 175.126 244.833 174.955L245.257 175.451C245.065 175.675 244.825 175.846 244.537 175.963C244.254 176.08 243.937 176.139 243.585 176.139ZM248.843 176.139C248.491 176.139 248.169 176.059 247.875 175.899C247.587 175.734 247.355 175.491 247.179 175.171C247.009 174.851 246.923 174.451 246.923 173.971C246.923 173.491 247.006 173.091 247.171 172.771C247.342 172.451 247.571 172.211 247.859 172.051C248.153 171.891 248.481 171.811 248.843 171.811C249.259 171.811 249.627 171.902 249.947 172.083C250.267 172.264 250.521 172.518 250.707 172.843C250.894 173.163 250.987 173.539 250.987 173.971C250.987 174.403 250.894 174.782 250.707 175.107C250.521 175.432 250.267 175.686 249.947 175.867C249.627 176.048 249.259 176.139 248.843 176.139ZM246.595 177.643V171.851H247.331V172.995L247.283 173.979L247.363 174.963V177.643H246.595ZM248.779 175.467C249.051 175.467 249.294 175.406 249.507 175.283C249.726 175.16 249.897 174.987 250.019 174.763C250.147 174.534 250.211 174.27 250.211 173.971C250.211 173.667 250.147 173.406 250.019 173.187C249.897 172.963 249.726 172.79 249.507 172.667C249.294 172.544 249.051 172.483 248.779 172.483C248.513 172.483 248.27 172.544 248.051 172.667C247.838 172.79 247.667 172.963 247.539 173.187C247.417 173.406 247.355 173.667 247.355 173.971C247.355 174.27 247.417 174.534 247.539 174.763C247.667 174.987 247.838 175.16 248.051 175.283C248.27 175.406 248.513 175.467 248.779 175.467Z" fill="black" fill-opacity="0.6"/>
<path d="M266.368 176.155C265.941 176.155 265.544 176.083 265.176 175.939C264.813 175.795 264.499 175.595 264.232 175.339C263.965 175.078 263.757 174.774 263.608 174.427C263.459 174.08 263.384 173.702 263.384 173.291C263.384 172.88 263.459 172.502 263.608 172.155C263.757 171.808 263.965 171.507 264.232 171.251C264.499 170.99 264.813 170.787 265.176 170.643C265.539 170.499 265.936 170.427 266.368 170.427C266.795 170.427 267.187 170.499 267.544 170.643C267.907 170.782 268.221 170.982 268.488 171.243C268.76 171.499 268.968 171.8 269.112 172.147C269.261 172.494 269.336 172.875 269.336 173.291C269.336 173.707 269.261 174.088 269.112 174.435C268.968 174.782 268.76 175.086 268.488 175.347C268.221 175.603 267.907 175.803 267.544 175.947C267.187 176.086 266.795 176.155 266.368 176.155ZM266.368 175.443C266.677 175.443 266.963 175.39 267.224 175.283C267.491 175.176 267.72 175.027 267.912 174.835C268.109 174.638 268.261 174.408 268.368 174.147C268.48 173.886 268.536 173.6 268.536 173.291C268.536 172.982 268.48 172.696 268.368 172.435C268.261 172.174 268.109 171.947 267.912 171.755C267.72 171.558 267.491 171.406 267.224 171.299C266.963 171.192 266.677 171.139 266.368 171.139C266.053 171.139 265.763 171.192 265.496 171.299C265.235 171.406 265.005 171.558 264.808 171.755C264.611 171.947 264.456 172.174 264.344 172.435C264.237 172.696 264.184 172.982 264.184 173.291C264.184 173.6 264.237 173.886 264.344 174.147C264.456 174.408 264.611 174.638 264.808 174.835C265.005 175.027 265.235 175.176 265.496 175.283C265.763 175.39 266.053 175.443 266.368 175.443ZM272.295 176.139C271.863 176.139 271.476 176.046 271.135 175.859C270.799 175.672 270.535 175.416 270.343 175.091C270.151 174.766 270.055 174.392 270.055 173.971C270.055 173.55 270.151 173.176 270.343 172.851C270.535 172.526 270.799 172.272 271.135 172.091C271.476 171.904 271.863 171.811 272.295 171.811C272.679 171.811 273.02 171.888 273.319 172.043C273.623 172.192 273.857 172.416 274.023 172.715L273.439 173.091C273.3 172.883 273.129 172.731 272.927 172.635C272.729 172.534 272.516 172.483 272.287 172.483C272.009 172.483 271.761 172.544 271.543 172.667C271.324 172.79 271.151 172.963 271.023 173.187C270.895 173.406 270.831 173.667 270.831 173.971C270.831 174.275 270.895 174.539 271.023 174.763C271.151 174.987 271.324 175.16 271.543 175.283C271.761 175.406 272.009 175.467 272.287 175.467C272.516 175.467 272.729 175.419 272.927 175.323C273.129 175.222 273.3 175.067 273.439 174.859L274.023 175.227C273.857 175.52 273.623 175.747 273.319 175.907C273.02 176.062 272.679 176.139 272.295 176.139ZM276.528 176.139C276.101 176.139 275.77 176.024 275.536 175.795C275.301 175.566 275.184 175.238 275.184 174.811V170.923H275.952V174.779C275.952 175.008 276.008 175.184 276.12 175.307C276.237 175.43 276.402 175.491 276.616 175.491C276.856 175.491 277.056 175.424 277.216 175.291L277.456 175.843C277.338 175.944 277.197 176.019 277.032 176.067C276.872 176.115 276.704 176.139 276.528 176.139ZM274.464 172.483V171.851H277.168V172.483H274.464Z" fill="black" fill-opacity="0.6"/>
<path d="M289.84 176.091V170.491H290.496L294.2 175.091H293.856V170.491H294.656V176.091H294L290.296 171.491H290.64V176.091H289.84ZM298.036 176.139C297.61 176.139 297.231 176.046 296.9 175.859C296.57 175.672 296.308 175.416 296.116 175.091C295.924 174.76 295.828 174.387 295.828 173.971C295.828 173.55 295.924 173.176 296.116 172.851C296.308 172.526 296.57 172.272 296.9 172.091C297.231 171.904 297.61 171.811 298.036 171.811C298.458 171.811 298.834 171.904 299.164 172.091C299.5 172.272 299.762 172.526 299.948 172.851C300.14 173.171 300.236 173.544 300.236 173.971C300.236 174.392 300.14 174.766 299.948 175.091C299.762 175.416 299.5 175.672 299.164 175.859C298.834 176.046 298.458 176.139 298.036 176.139ZM298.036 175.467C298.308 175.467 298.551 175.406 298.764 175.283C298.983 175.16 299.154 174.987 299.276 174.763C299.399 174.534 299.46 174.27 299.46 173.971C299.46 173.667 299.399 173.406 299.276 173.187C299.154 172.963 298.983 172.79 298.764 172.667C298.551 172.544 298.308 172.483 298.036 172.483C297.764 172.483 297.522 172.544 297.308 172.667C297.095 172.79 296.924 172.963 296.796 173.187C296.668 173.406 296.604 173.667 296.604 173.971C296.604 174.27 296.668 174.534 296.796 174.763C296.924 174.987 297.095 175.16 297.308 175.283C297.522 175.406 297.764 175.467 298.036 175.467ZM302.293 176.091L300.437 171.851H301.237L302.885 175.691H302.501L304.181 171.851H304.933L303.077 176.091H302.293Z" fill="black" fill-opacity="0.6"/>
<path d="M316.84 176.091V170.491H319.2C319.797 170.491 320.323 170.608 320.776 170.843C321.235 171.078 321.589 171.406 321.84 171.827C322.096 172.248 322.224 172.736 322.224 173.291C322.224 173.846 322.096 174.334 321.84 174.755C321.589 175.176 321.235 175.504 320.776 175.739C320.323 175.974 319.797 176.091 319.2 176.091H316.84ZM317.64 175.395H319.152C319.616 175.395 320.016 175.307 320.352 175.131C320.693 174.955 320.957 174.71 321.144 174.395C321.331 174.075 321.424 173.707 321.424 173.291C321.424 172.87 321.331 172.502 321.144 172.187C320.957 171.872 320.693 171.627 320.352 171.451C320.016 171.275 319.616 171.187 319.152 171.187H317.64V175.395ZM325.225 176.139C324.772 176.139 324.372 176.046 324.025 175.859C323.684 175.672 323.417 175.416 323.225 175.091C323.039 174.766 322.945 174.392 322.945 173.971C322.945 173.55 323.036 173.176 323.217 172.851C323.404 172.526 323.657 172.272 323.977 172.091C324.303 171.904 324.668 171.811 325.073 171.811C325.484 171.811 325.847 171.902 326.161 172.083C326.476 172.264 326.721 172.52 326.897 172.851C327.079 173.176 327.169 173.558 327.169 173.995C327.169 174.027 327.167 174.064 327.161 174.107C327.161 174.15 327.159 174.19 327.153 174.227H323.545V173.675H326.753L326.441 173.867C326.447 173.595 326.391 173.352 326.273 173.139C326.156 172.926 325.993 172.76 325.785 172.643C325.583 172.52 325.345 172.459 325.073 172.459C324.807 172.459 324.569 172.52 324.361 172.643C324.153 172.76 323.991 172.928 323.873 173.147C323.756 173.36 323.697 173.606 323.697 173.883V174.011C323.697 174.294 323.761 174.547 323.889 174.771C324.023 174.99 324.207 175.16 324.441 175.283C324.676 175.406 324.945 175.467 325.249 175.467C325.5 175.467 325.727 175.424 325.929 175.339C326.137 175.254 326.319 175.126 326.473 174.955L326.897 175.451C326.705 175.675 326.465 175.846 326.177 175.963C325.895 176.08 325.577 176.139 325.225 176.139ZM330.084 176.139C329.652 176.139 329.265 176.046 328.924 175.859C328.588 175.672 328.324 175.416 328.132 175.091C327.94 174.766 327.844 174.392 327.844 173.971C327.844 173.55 327.94 173.176 328.132 172.851C328.324 172.526 328.588 172.272 328.924 172.091C329.265 171.904 329.652 171.811 330.084 171.811C330.468 171.811 330.809 171.888 331.108 172.043C331.412 172.192 331.646 172.416 331.812 172.715L331.228 173.091C331.089 172.883 330.918 172.731 330.716 172.635C330.518 172.534 330.305 172.483 330.076 172.483C329.798 172.483 329.55 172.544 329.332 172.667C329.113 172.79 328.94 172.963 328.812 173.187C328.684 173.406 328.62 173.667 328.62 173.971C328.62 174.275 328.684 174.539 328.812 174.763C328.94 174.987 329.113 175.16 329.332 175.283C329.55 175.406 329.798 175.467 330.076 175.467C330.305 175.467 330.518 175.419 330.716 175.323C330.918 175.222 331.089 175.067 331.228 174.859L331.812 175.227C331.646 175.52 331.412 175.747 331.108 175.907C330.809 176.062 330.468 176.139 330.084 176.139Z" fill="black" fill-opacity="0.6"/>
<path d="M3.296 127.091V126.547L5.576 124.347C5.77867 124.155 5.928 123.987 6.024 123.843C6.12533 123.694 6.192 123.558 6.224 123.435C6.26133 123.307 6.28 123.184 6.28 123.067C6.28 122.779 6.17867 122.552 5.976 122.387C5.77333 122.222 5.47733 122.139 5.088 122.139C4.78933 122.139 4.52 122.19 4.28 122.291C4.04 122.387 3.832 122.539 3.656 122.747L3.112 122.275C3.32533 122.003 3.61067 121.795 3.968 121.651C4.33067 121.502 4.728 121.427 5.16 121.427C5.54933 121.427 5.888 121.491 6.176 121.619C6.464 121.742 6.68533 121.92 6.84 122.155C7 122.39 7.08 122.667 7.08 122.987C7.08 123.168 7.056 123.347 7.008 123.523C6.96 123.699 6.86933 123.886 6.736 124.083C6.60267 124.28 6.41067 124.502 6.16 124.747L4.128 126.707L3.936 126.395H7.32V127.091H3.296ZM10.2579 127.155C9.8206 127.155 9.4286 127.043 9.08194 126.819C8.7406 126.595 8.4686 126.27 8.26594 125.843C8.0686 125.416 7.96994 124.899 7.96994 124.291C7.96994 123.683 8.0686 123.166 8.26594 122.739C8.4686 122.312 8.7406 121.987 9.08194 121.763C9.4286 121.539 9.8206 121.427 10.2579 121.427C10.6899 121.427 11.0793 121.539 11.4259 121.763C11.7726 121.987 12.0446 122.312 12.2419 122.739C12.4393 123.166 12.5379 123.683 12.5379 124.291C12.5379 124.899 12.4393 125.416 12.2419 125.843C12.0446 126.27 11.7726 126.595 11.4259 126.819C11.0793 127.043 10.6899 127.155 10.2579 127.155ZM10.2579 126.443C10.5513 126.443 10.8073 126.363 11.0259 126.203C11.2499 126.043 11.4233 125.803 11.5459 125.483C11.6739 125.163 11.7379 124.766 11.7379 124.291C11.7379 123.816 11.6739 123.419 11.5459 123.099C11.4233 122.779 11.2499 122.539 11.0259 122.379C10.8073 122.219 10.5513 122.139 10.2579 122.139C9.9646 122.139 9.70594 122.219 9.48194 122.379C9.25794 122.539 9.08194 122.779 8.95394 123.099C8.83127 123.419 8.76994 123.816 8.76994 124.291C8.76994 124.766 8.83127 125.163 8.95394 125.483C9.08194 125.803 9.25794 126.043 9.48194 126.203C9.70594 126.363 9.9646 126.443 10.2579 126.443Z" fill="black" fill-opacity="0.6"/>
<path d="M2.304 96.7151V96.1551L5.168 92.4911H6.032L3.192 96.1551L2.784 96.0271H7.256V96.7151H2.304ZM5.416 98.0911V96.7151L5.44 96.0271V94.8111H6.192V98.0911H5.416ZM10.0236 98.1551C9.58623 98.1551 9.19423 98.0431 8.84756 97.8191C8.50623 97.5951 8.23423 97.2697 8.03156 96.8431C7.83423 96.4164 7.73556 95.8991 7.73556 95.2911C7.73556 94.6831 7.83423 94.1657 8.03156 93.7391C8.23423 93.3124 8.50623 92.9871 8.84756 92.7631C9.19423 92.5391 9.58623 92.4271 10.0236 92.4271C10.4556 92.4271 10.8449 92.5391 11.1916 92.7631C11.5382 92.9871 11.8102 93.3124 12.0076 93.7391C12.2049 94.1657 12.3036 94.6831 12.3036 95.2911C12.3036 95.8991 12.2049 96.4164 12.0076 96.8431C11.8102 97.2697 11.5382 97.5951 11.1916 97.8191C10.8449 98.0431 10.4556 98.1551 10.0236 98.1551ZM10.0236 97.4431C10.3169 97.4431 10.5729 97.3631 10.7916 97.2031C11.0156 97.0431 11.1889 96.8031 11.3116 96.4831C11.4396 96.1631 11.5036 95.7657 11.5036 95.2911C11.5036 94.8164 11.4396 94.4191 11.3116 94.0991C11.1889 93.7791 11.0156 93.5391 10.7916 93.3791C10.5729 93.2191 10.3169 93.1391 10.0236 93.1391C9.73023 93.1391 9.47156 93.2191 9.24756 93.3791C9.02356 93.5391 8.84756 93.7791 8.71956 94.0991C8.5969 94.4191 8.53556 94.8164 8.53556 95.2911C8.53556 95.7657 8.5969 96.1631 8.71956 96.4831C8.84756 96.8031 9.02356 97.0431 9.24756 97.2031C9.47156 97.3631 9.73023 97.4431 10.0236 97.4431Z" fill="black" fill-opacity="0.6"/>
<path d="M4.736 69.1551C4.24 69.1551 3.816 69.0457 3.464 68.8271C3.112 68.6084 2.84267 68.2937 2.656 67.8831C2.47467 67.4671 2.384 66.9604 2.384 66.3631C2.384 65.7284 2.496 65.1924 2.72 64.7551C2.944 64.3177 3.256 63.9871 3.656 63.7631C4.056 63.5391 4.51467 63.4271 5.032 63.4271C5.29867 63.4271 5.552 63.4537 5.792 63.5071C6.03733 63.5604 6.248 63.6431 6.424 63.7551L6.12 64.3791C5.976 64.2777 5.81067 64.2084 5.624 64.1711C5.44267 64.1337 5.25067 64.1151 5.048 64.1151C4.47733 64.1151 4.024 64.2937 3.688 64.6511C3.352 65.0031 3.184 65.5284 3.184 66.2271C3.184 66.3391 3.18933 66.4724 3.2 66.6271C3.21067 66.7817 3.23733 66.9337 3.28 67.0831L3.008 66.8111C3.088 66.5657 3.21333 66.3604 3.384 66.1951C3.56 66.0244 3.768 65.8991 4.008 65.8191C4.25333 65.7337 4.51733 65.6911 4.8 65.6911C5.17333 65.6911 5.504 65.7604 5.792 65.8991C6.08 66.0377 6.30667 66.2351 6.472 66.4911C6.63733 66.7417 6.72 67.0404 6.72 67.3871C6.72 67.7444 6.632 68.0564 6.456 68.3231C6.28 68.5897 6.04267 68.7951 5.744 68.9391C5.44533 69.0831 5.10933 69.1551 4.736 69.1551ZM4.704 68.5071C4.94933 68.5071 5.16267 68.4617 5.344 68.3711C5.53067 68.2804 5.67733 68.1551 5.784 67.9951C5.89067 67.8297 5.944 67.6377 5.944 67.4191C5.944 67.0884 5.82933 66.8271 5.6 66.6351C5.37067 66.4377 5.05867 66.3391 4.664 66.3391C4.408 66.3391 4.184 66.3871 3.992 66.4831C3.8 66.5791 3.648 66.7097 3.536 66.8751C3.42933 67.0351 3.376 67.2191 3.376 67.4271C3.376 67.6191 3.42667 67.7977 3.528 67.9631C3.62933 68.1231 3.77867 68.2537 3.976 68.3551C4.17333 68.4564 4.416 68.5071 4.704 68.5071ZM9.6095 69.1551C9.17217 69.1551 8.78017 69.0431 8.4335 68.8191C8.09217 68.5951 7.82017 68.2697 7.6175 67.8431C7.42017 67.4164 7.3215 66.8991 7.3215 66.2911C7.3215 65.6831 7.42017 65.1657 7.6175 64.7391C7.82017 64.3124 8.09217 63.9871 8.4335 63.7631C8.78017 63.5391 9.17217 63.4271 9.6095 63.4271C10.0415 63.4271 10.4308 63.5391 10.7775 63.7631C11.1242 63.9871 11.3962 64.3124 11.5935 64.7391C11.7908 65.1657 11.8895 65.6831 11.8895 66.2911C11.8895 66.8991 11.7908 67.4164 11.5935 67.8431C11.3962 68.2697 11.1242 68.5951 10.7775 68.8191C10.4308 69.0431 10.0415 69.1551 9.6095 69.1551ZM9.6095 68.4431C9.90283 68.4431 10.1588 68.3631 10.3775 68.2031C10.6015 68.0431 10.7748 67.8031 10.8975 67.4831C11.0255 67.1631 11.0895 66.7657 11.0895 66.2911C11.0895 65.8164 11.0255 65.4191 10.8975 65.0991C10.7748 64.7791 10.6015 64.5391 10.3775 64.3791C10.1588 64.2191 9.90283 64.1391 9.6095 64.1391C9.31617 64.1391 9.0575 64.2191 8.8335 64.3791C8.6095 64.5391 8.4335 64.7791 8.3055 65.0991C8.18283 65.4191 8.1215 65.8164 8.1215 66.2911C8.1215 66.7657 8.18283 67.1631 8.3055 67.4831C8.4335 67.8031 8.6095 68.0431 8.8335 68.2031C9.0575 68.3631 9.31617 68.4431 9.6095 68.4431Z" fill="black" fill-opacity="0.6"/>
<path d="M4.568 39.1551C4.11467 39.1551 3.72267 39.0884 3.392 38.9551C3.06133 38.8217 2.80533 38.6324 2.624 38.3871C2.44267 38.1364 2.352 37.8431 2.352 37.5071C2.352 37.1764 2.43733 36.8964 2.608 36.6671C2.784 36.4324 3.03733 36.2564 3.368 36.1391C3.69867 36.0164 4.09867 35.9551 4.568 35.9551C5.03733 35.9551 5.43733 36.0164 5.768 36.1391C6.104 36.2564 6.36 36.4324 6.536 36.6671C6.712 36.9017 6.8 37.1817 6.8 37.5071C6.8 37.8431 6.70933 38.1364 6.528 38.3871C6.34667 38.6324 6.088 38.8217 5.752 38.9551C5.416 39.0884 5.02133 39.1551 4.568 39.1551ZM4.568 38.5071C5.016 38.5071 5.36533 38.4164 5.616 38.2351C5.872 38.0484 6 37.7977 6 37.4831C6 37.1737 5.872 36.9311 5.616 36.7551C5.36533 36.5737 5.016 36.4831 4.568 36.4831C4.12533 36.4831 3.77867 36.5737 3.528 36.7551C3.27733 36.9311 3.152 37.1737 3.152 37.4831C3.152 37.7977 3.27733 38.0484 3.528 38.2351C3.77867 38.4164 4.12533 38.5071 4.568 38.5071ZM4.568 36.3871C4.14133 36.3871 3.77867 36.3311 3.48 36.2191C3.18133 36.1017 2.952 35.9364 2.792 35.7231C2.632 35.5044 2.552 35.2457 2.552 34.9471C2.552 34.6324 2.63467 34.3631 2.8 34.1391C2.97067 33.9097 3.208 33.7337 3.512 33.6111C3.816 33.4884 4.168 33.4271 4.568 33.4271C4.97333 33.4271 5.328 33.4884 5.632 33.6111C5.936 33.7337 6.17333 33.9097 6.344 34.1391C6.51467 34.3631 6.6 34.6324 6.6 34.9471C6.6 35.2457 6.52 35.5044 6.36 35.7231C6.2 35.9364 5.968 36.1017 5.664 36.2191C5.36 36.3311 4.99467 36.3871 4.568 36.3871ZM4.568 35.8751C4.95733 35.8751 5.26133 35.7951 5.48 35.6351C5.704 35.4751 5.816 35.2564 5.816 34.9791C5.816 34.6964 5.70133 34.4751 5.472 34.3151C5.24267 34.1551 4.94133 34.0751 4.568 34.0751C4.19467 34.0751 3.896 34.1551 3.672 34.3151C3.45333 34.4751 3.344 34.6964 3.344 34.9791C3.344 35.2564 3.45067 35.4751 3.664 35.6351C3.88267 35.7951 4.184 35.8751 4.568 35.8751ZM9.82044 39.1551C9.3831 39.1551 8.9911 39.0431 8.64444 38.8191C8.3031 38.5951 8.0311 38.2697 7.82844 37.8431C7.6311 37.4164 7.53244 36.8991 7.53244 36.2911C7.53244 35.6831 7.6311 35.1657 7.82844 34.7391C8.0311 34.3124 8.3031 33.9871 8.64444 33.7631C8.9911 33.5391 9.3831 33.4271 9.82044 33.4271C10.2524 33.4271 10.6418 33.5391 10.9884 33.7631C11.3351 33.9871 11.6071 34.3124 11.8044 34.7391C12.0018 35.1657 12.1004 35.6831 12.1004 36.2911C12.1004 36.8991 12.0018 37.4164 11.8044 37.8431C11.6071 38.2697 11.3351 38.5951 10.9884 38.8191C10.6418 39.0431 10.2524 39.1551 9.82044 39.1551ZM9.82044 38.4431C10.1138 38.4431 10.3698 38.3631 10.5884 38.2031C10.8124 38.0431 10.9858 37.8031 11.1084 37.4831C11.2364 37.1631 11.3004 36.7657 11.3004 36.2911C11.3004 35.8164 11.2364 35.4191 11.1084 35.0991C10.9858 34.7791 10.8124 34.5391 10.5884 34.3791C10.3698 34.2191 10.1138 34.1391 9.82044 34.1391C9.5271 34.1391 9.26844 34.2191 9.04444 34.3791C8.82044 34.5391 8.64444 34.7791 8.51644 35.0991C8.39377 35.4191 8.33244 35.8164 8.33244 36.2911C8.33244 36.7657 8.39377 37.1631 8.51644 37.4831C8.64444 37.8031 8.82044 38.0431 9.04444 38.2031C9.26844 38.3631 9.5271 38.4431 9.82044 38.4431Z" fill="black" fill-opacity="0.6"/>
<path d="M1.328 8.09106V2.81106L1.672 3.18706H0.064V2.49106H2.12V8.09106H1.328ZM5.63294 8.15506C5.1956 8.15506 4.8036 8.04306 4.45694 7.81906C4.1156 7.59506 3.8436 7.26973 3.64094 6.84306C3.4436 6.4164 3.34494 5.89906 3.34494 5.29106C3.34494 4.68306 3.4436 4.16573 3.64094 3.73906C3.8436 3.3124 4.1156 2.98706 4.45694 2.76306C4.8036 2.53906 5.1956 2.42706 5.63294 2.42706C6.06494 2.42706 6.45427 2.53906 6.80094 2.76306C7.1476 2.98706 7.4196 3.3124 7.61694 3.73906C7.81427 4.16573 7.91294 4.68306 7.91294 5.29106C7.91294 5.89906 7.81427 6.4164 7.61694 6.84306C7.4196 7.26973 7.1476 7.59506 6.80094 7.81906C6.45427 8.04306 6.06494 8.15506 5.63294 8.15506ZM5.63294 7.44306C5.92627 7.44306 6.18227 7.36306 6.40094 7.20306C6.62494 7.04306 6.79827 6.80306 6.92094 6.48306C7.04894 6.16306 7.11294 5.76573 7.11294 5.29106C7.11294 4.8164 7.04894 4.41906 6.92094 4.09906C6.79827 3.77906 6.62494 3.53906 6.40094 3.37906C6.18227 3.21906 5.92627 3.13906 5.63294 3.13906C5.3396 3.13906 5.08094 3.21906 4.85694 3.37906C4.63294 3.53906 4.45694 3.77906 4.32894 4.09906C4.20627 4.41906 4.14494 4.8164 4.14494 5.29106C4.14494 5.76573 4.20627 6.16306 4.32894 6.48306C4.45694 6.80306 4.63294 7.04306 4.85694 7.20306C5.08094 7.36306 5.3396 7.44306 5.63294 7.44306ZM10.9689 8.15506C10.5315 8.15506 10.1395 8.04306 9.79288 7.81906C9.45154 7.59506 9.17954 7.26973 8.97688 6.84306C8.77954 6.4164 8.68088 5.89906 8.68088 5.29106C8.68088 4.68306 8.77954 4.16573 8.97688 3.73906C9.17954 3.3124 9.45154 2.98706 9.79288 2.76306C10.1395 2.53906 10.5315 2.42706 10.9689 2.42706C11.4009 2.42706 11.7902 2.53906 12.1369 2.76306C12.4835 2.98706 12.7555 3.3124 12.9529 3.73906C13.1502 4.16573 13.2489 4.68306 13.2489 5.29106C13.2489 5.89906 13.1502 6.4164 12.9529 6.84306C12.7555 7.26973 12.4835 7.59506 12.1369 7.81906C11.7902 8.04306 11.4009 8.15506 10.9689 8.15506ZM10.9689 7.44306C11.2622 7.44306 11.5182 7.36306 11.7369 7.20306C11.9609 7.04306 12.1342 6.80306 12.2569 6.48306C12.3849 6.16306 12.4489 5.76573 12.4489 5.29106C12.4489 4.8164 12.3849 4.41906 12.2569 4.09906C12.1342 3.77906 11.9609 3.53906 11.7369 3.37906C11.5182 3.21906 11.2622 3.13906 10.9689 3.13906C10.6755 3.13906 10.4169 3.21906 10.1929 3.37906C9.96888 3.53906 9.79288 3.77906 9.66488 4.09906C9.54221 4.41906 9.48088 4.8164 9.48088 5.29106C9.48088 5.76573 9.54221 6.16306 9.66488 6.48306C9.79288 6.80306 9.96888 7.04306 10.1929 7.20306C10.4169 7.36306 10.6755 7.44306 10.9689 7.44306Z" fill="black" fill-opacity="0.6"/>
<path d="M337.195 17C330.28 17.7854 316.45 17.1098 302.62 20.9271C288.79 24.7443 281.875 28.5553 268.046 36.0862C254.216 43.6172 247.301 54.2045 233.471 58.5816C219.641 62.9587 212.726 55.7054 198.896 57.9716C185.066 60.2378 178.151 65.1226 164.321 69.9127C150.491 74.7028 143.576 79.8993 129.746 81.922C115.916 83.9446 109.001 80.9358 95.1711 80.0258C81.3411 79.1159 74.4262 71.3606 60.5962 77.372C46.7663 83.3834 32.9363 103.541 26.0213 110.083L25.7098 156.046H337.195V17Z" fill="#264092" fill-opacity="0.101961"/>
<path d="M337 17C330.085 17.7854 314.429 17.1098 300.599 20.9271C286.769 24.7443 279.854 28.5553 266.024 36.0862C252.194 43.6172 245.279 54.2045 231.449 58.5816C217.619 62.9587 210.704 55.7054 196.874 57.9716C183.044 60.2378 176.13 65.1226 162.3 69.9127C148.47 74.7028 141.555 79.8993 127.725 81.922C113.895 83.9446 106.98 80.9358 93.1498 80.0258C79.3198 79.1159 72.4048 71.3606 58.5749 77.372C44.7449 83.3834 30.915 103.541 24 110.083" stroke="#264092" stroke-width="2"/>
</svg>
