<svg xmlns="http://www.w3.org/2000/svg" width="19.657" height="9.46" viewBox="0 0 19.657 9.46">
  <path id="Icon_ionic-ios-arrow-round-back" data-name="Icon ionic-ios-arrow-round-back" d="M16.928,11.433a.644.644,0,0,0,0,.907l2.991,3H3.045a.641.641,0,0,0,0,1.281H19.913l-3,3a.648.648,0,0,0,0,.907.638.638,0,0,0,.9,0l4.06-4.089h0a.719.719,0,0,0,.133-.2.611.611,0,0,0,.049-.246.642.642,0,0,0-.182-.448l-4.06-4.089A.628.628,0,0,0,16.928,11.433Z" transform="translate(-2.409 -11.252)" fill="#bababa"/>
</svg>
