<svg width="41" height="40" viewBox="0 0 41 40" fill="none" xmlns="http://www.w3.org/2000/svg">
<g clip-path="url(#clip0_102_2295)">
<path d="M18.721 8C12.8933 8 8.15186 12.7415 8.15186 18.5691C8.15186 24.3971 12.8933 29.1382 18.721 29.1382C24.5489 29.1382 29.29 24.3971 29.29 18.5691C29.29 12.7415 24.5489 8 18.721 8ZM18.721 27.187C13.9691 27.187 10.1031 23.321 10.1031 18.5691C10.1031 13.8173 13.9691 9.95122 18.721 9.95122C23.4728 9.95122 27.3388 13.8172 27.3388 18.5691C27.3388 23.321 23.4728 27.187 18.721 27.187Z" fill="#374957"/>
<path d="M31.8658 30.3347L26.2723 24.7412C25.8912 24.36 25.2739 24.36 24.8928 24.7412C24.5116 25.122 24.5116 25.7399 24.8928 26.1207L30.4863 31.7142C30.6769 31.9048 30.9263 32.0001 31.1761 32.0001C31.4255 32.0001 31.6752 31.9048 31.8658 31.7142C32.247 31.3334 32.247 30.7155 31.8658 30.3347Z" fill="#374957"/>
</g>
<defs>
<clipPath id="clip0_102_2295">
<rect width="24" height="24" fill="white" transform="translate(8.15186 8)"/>
</clipPath>
</defs>
</svg>
