<svg width="90" height="31" viewBox="0 0 90 31" fill="none" xmlns="http://www.w3.org/2000/svg">
<path d="M1 29.7909C3.992 28.8646 12.616 27.0944 18.6 24.3423C24.584 21.5903 30.216 15.6966 36.2 13.6023C42.184 11.508 47.816 12.9633 53.8 12.0231C59.784 11.0828 65.416 9.94523 71.4 8.07131C77.384 6.19739 86.008 2.20212 89 1V30.3333H1V29.7909Z" fill="url(#paint0_linear_335_497)" fill-opacity="0.3"/>
<path d="M1 29.5812C3.992 28.6617 12.616 26.9044 18.6 24.1723C24.584 21.4403 30.216 15.5895 36.2 13.5105C42.184 11.4315 47.816 12.8762 53.8 11.9428C59.784 11.0094 65.416 9.88008 71.4 8.01981C77.384 6.15953 86.008 2.19337 89 1" stroke="#FFA730" stroke-width="2"/>
<defs>
<linearGradient id="paint0_linear_335_497" x1="45" y1="1" x2="45" y2="30.3333" gradientUnits="userSpaceOnUse">
<stop stop-color="#FFA730"/>
<stop offset="1" stop-color="#FFA730" stop-opacity="0"/>
</linearGradient>
</defs>
</svg>
