<svg width="792" height="401" viewBox="0 0 792 401" fill="none" xmlns="http://www.w3.org/2000/svg">
<path d="M7.71732 48.6351C10.3642 47.2577 13.1486 46.5589 16.0704 46.539C18.6797 46.5212 20.739 47.1946 22.2484 48.5593C23.7734 49.9239 24.5435 51.7234 24.5588 53.9577C24.5755 56.4108 23.6281 58.3939 21.7165 59.907C22.3275 60.1372 23.1798 60.2486 24.2735 60.2411C25.4141 60.2333 26.475 59.9917 27.4562 59.5162C28.4529 59.0406 29.4478 58.2838 30.4407 57.2458L30.4065 52.2303L27.3597 52.2511L27.3235 46.9543L55.4713 46.7621L55.5074 52.0588L50.9841 52.0897L51.1519 76.6516L44.7067 76.6957L44.5389 52.1337L36.8516 52.1862L37.0194 76.7482L30.5742 76.7922L30.4828 63.4097C29.0666 64.2475 27.234 64.7444 24.9851 64.9004C25.1458 65.5556 25.228 66.1488 25.2316 66.68C25.2475 69.0081 24.502 70.8101 22.995 72.086C21.5036 73.3462 19.3673 73.9858 16.5861 74.0048C14.508 74.019 12.6226 73.6491 10.93 72.895C9.25289 72.1408 7.5951 70.7771 5.95659 68.8039C4.31797 66.815 2.70478 63.9744 1.11702 60.282L6.63374 58.1349C8.0172 61.6568 9.4727 64.2876 11.0002 66.0272C12.5433 67.7511 14.2289 68.6068 16.057 68.5943C17.9319 68.5815 18.8631 67.6532 18.8505 65.8095C18.8401 64.2939 18.3156 62.985 17.2768 61.8827C16.2003 62.1244 14.9981 62.2654 13.6702 62.3057L13.3778 57.2451C15.049 57.1399 16.2737 56.8581 17.0518 56.3997C17.83 55.9412 18.2154 55.1886 18.2083 54.1417C18.1976 52.5793 17.1454 51.8052 15.0517 51.8195C13.4268 51.8306 11.5866 52.3666 9.53134 53.4275L7.71732 48.6351ZM72.9146 68.8388C71.8248 69.4087 70.7651 69.8222 69.7355 70.0793C68.7059 70.3207 67.4177 70.4467 65.8708 70.4572C64.4646 70.4668 63.1898 70.2646 62.0463 69.8505C60.9183 69.4207 59.9528 68.7554 59.1498 67.8546C58.3467 66.9538 57.7772 65.9186 57.441 64.749C57.1205 63.5793 56.9536 62.0179 56.9403 60.0649L56.8855 52.0494L53.6278 52.0717L53.5916 46.7749L83.7081 46.5692L83.7443 51.866L79.221 51.8969L79.3887 76.4588L72.967 76.5027L72.9146 68.8388ZM63.3073 52.0056L63.3593 59.6226C63.37 61.185 63.4713 62.3016 63.6634 62.9721C63.871 63.627 64.2341 64.1636 64.7526 64.5819C65.2866 64.9845 66.0848 65.1822 67.1473 65.1749C68.1004 65.1684 69.091 64.9273 70.119 64.4515C71.1469 63.9601 72.0643 63.2976 72.8711 62.4639L72.7992 51.9407L63.3073 52.0056ZM100.295 70.1987C99.081 70.9101 97.9359 71.4101 96.8597 71.6987C95.7834 71.9717 94.6203 72.1125 93.3703 72.121C90.5267 72.1404 88.2089 71.3828 86.4172 69.8481C84.6254 68.3135 83.7203 66.2024 83.702 63.515C83.6841 60.9057 84.6073 58.7977 86.4713 57.1912C88.3353 55.5691 90.7985 54.7476 93.8609 54.7266C95.9703 54.7122 97.5961 54.8339 98.7385 55.0918L98.2829 60.4388C97.4062 60.1947 96.2647 60.0775 94.8585 60.0871C93.3585 60.0974 92.1965 60.4022 91.3725 61.0016C90.5641 61.6009 90.1635 62.4318 90.1707 63.4942C90.1782 64.588 90.5276 65.4215 91.2191 65.9949C91.9104 66.5527 92.8342 66.8277 93.9904 66.8198C96.2403 66.8044 98.3272 65.7823 100.251 63.7535L100.169 51.7538L81.8646 51.8788L81.8285 46.5821L122.023 46.3075L122.059 51.6043L106.614 51.7098L106.66 58.3893C108.169 57.4727 109.908 57.0077 111.877 56.9943C114.205 56.9784 116.085 57.6843 117.516 59.1121C118.964 60.5241 119.696 62.4488 119.712 64.8863C119.723 66.4643 119.437 68.1226 118.856 69.861C118.289 71.5993 117.48 73.2767 116.429 74.8933L110.806 71.8379C112.478 69.4983 113.307 67.3754 113.294 65.4692C113.28 63.3442 112.382 62.2878 110.601 62.3C109.351 62.3085 108.051 63.0049 106.701 64.3892L106.782 76.2717L100.337 76.3157L100.295 70.1987ZM134.992 51.516L130.468 51.5469L130.636 76.1088L124.191 76.1528L124.023 51.5909L120.179 51.6171L120.143 46.3204L134.955 46.2192L134.992 51.516ZM124.341 46.6433C123.398 43.509 122.5 41.3823 121.649 40.2631C120.813 39.1281 119.661 38.5657 118.192 38.5757C117.145 38.5829 116.053 38.8013 114.915 39.2309L113.169 34.1568C114.837 33.5048 116.514 33.173 118.202 33.1615C119.749 33.1509 121.031 33.3374 122.049 33.7211C123.068 34.0892 124.041 34.7388 124.969 35.67C125.897 36.5855 126.789 37.9701 127.646 39.8237C128.502 41.6616 129.307 43.9218 130.059 46.6042L124.341 46.6433ZM153.917 47.6366C156.564 46.2591 159.348 45.5604 162.27 45.5405C164.879 45.5226 166.939 46.1961 168.448 47.5608C169.973 48.9254 170.743 50.7249 170.758 52.9592C170.775 55.4123 169.828 57.3954 167.916 58.9085C168.527 59.1387 169.38 59.25 170.473 59.2426C171.614 59.2348 172.675 58.9932 173.656 58.5177C174.653 58.0421 175.648 57.2853 176.64 56.2473L176.606 51.2317L173.559 51.2526L173.523 45.9558L187.539 45.8601L187.575 51.1568L183.051 51.1877L183.219 75.7497L176.774 75.7937L176.683 62.4112C175.266 63.249 173.434 63.7459 171.185 63.9019C171.346 64.5571 171.428 65.1503 171.431 65.6815C171.447 68.0096 170.702 69.8116 169.195 71.0875C167.703 72.3477 165.567 72.9873 162.786 73.0063C160.708 73.0205 158.822 72.6506 157.13 71.8965C155.453 71.1423 153.795 69.7786 152.156 67.8054C150.518 65.8165 148.904 62.9759 147.317 59.2835L152.833 57.1364C154.217 60.6583 155.672 63.2891 157.2 65.0287C158.743 66.7525 160.429 67.6082 162.257 67.5958C164.132 67.583 165.063 66.6547 165.05 64.811C165.04 63.2954 164.515 61.9865 163.476 60.8841C162.4 61.1259 161.198 61.2669 159.87 61.3072L159.578 56.2466C161.249 56.1414 162.473 55.8596 163.252 55.4012C164.03 54.9427 164.415 54.1901 164.408 53.1432C164.397 51.5808 163.345 50.8067 161.251 50.821C159.626 50.8321 157.786 51.3681 155.731 52.429L153.917 47.6366ZM205.005 67.9366C203.915 68.5066 202.856 68.9201 201.826 69.1771C200.797 69.4185 199.508 69.5445 197.962 69.5551C196.555 69.5647 195.28 69.3624 194.137 68.9484C193.009 68.5186 192.044 67.8533 191.24 66.9525C190.437 66.0517 189.868 65.0165 189.532 63.8469C189.211 62.6772 189.044 61.1158 189.031 59.1627L188.976 51.1473L185.718 51.1695L185.682 45.8728L215.799 45.6671L215.835 50.9638L211.312 50.9947L211.479 75.5566L205.058 75.6005L205.005 67.9366ZM195.398 51.1034L195.45 58.7204C195.461 60.2829 195.562 61.3994 195.754 62.07C195.962 62.7248 196.325 63.2614 196.843 63.6798C197.377 64.0824 198.175 64.2801 199.238 64.2728C200.191 64.2663 201.182 64.0251 202.21 63.5494C203.238 63.058 204.155 62.3954 204.962 61.5618L204.89 51.0386L195.398 51.1034ZM233.442 62.7032L225.825 62.7552L225.834 63.9974C225.842 65.2318 225.583 66.1476 225.055 66.745C224.544 67.3266 223.757 67.621 222.694 67.6283C221.741 67.6348 220.684 67.2592 219.522 66.5015C218.361 65.7438 217.402 64.8206 216.644 63.732C215.902 62.6277 215.528 61.6146 215.522 60.6928C215.514 59.5834 215.79 58.7768 216.349 58.273C216.908 57.7692 217.75 57.5134 218.875 57.5057L233.406 57.4065L233.361 50.8441L213.955 50.9767L213.919 45.6799L244.27 45.4726L244.306 50.7694L239.783 50.8003L239.951 75.3622L233.529 75.4061L233.442 62.7032ZM257.239 50.681L252.715 50.7119L252.883 75.2739L246.438 75.3179L246.27 50.756L242.427 50.7822L242.39 45.4855L257.202 45.3843L257.239 50.681ZM21.687 172.261L12.7341 172.323L12.7395 173.119C12.7482 174.401 12.4892 175.363 11.9623 176.008C11.4354 176.636 10.5859 176.954 9.4141 176.962C8.5235 176.969 7.51309 176.593 6.38289 175.835C5.2682 175.061 4.33214 174.13 3.57468 173.041C2.81723 171.953 2.43541 170.955 2.42922 170.049C2.42228 169.033 2.69846 168.289 3.25774 167.817C3.81692 167.329 4.66681 167.081 5.80741 167.073L6.27615 167.07L6.21692 158.398L0.849862 158.435L0.813686 153.138L32.5239 152.921L32.5601 158.218L28.0367 158.249L28.2045 182.811L21.7593 182.855L21.687 172.261ZM21.6508 166.965L21.5916 158.293L12.6386 158.354L12.6979 167.026L21.6508 166.965ZM23.4923 142.155C24.4767 142.148 25.3149 142.486 26.0071 143.169C26.6836 143.836 27.0253 144.685 27.0324 145.716C27.0394 146.748 26.7093 147.609 26.0422 148.301C25.3593 148.978 24.5257 149.32 23.5413 149.326C22.557 149.333 21.7266 149.003 21.0501 148.335C20.3579 147.653 20.0083 146.796 20.0013 145.764C19.9942 144.733 20.3322 143.879 21.0151 143.203C21.6822 142.511 22.508 142.161 23.4923 142.155ZM52.4809 176.528C51.3602 177.16 50.2617 177.621 49.1856 177.91C48.1249 178.183 46.9227 178.324 45.579 178.333C42.7197 178.352 40.4183 177.704 38.6749 176.388C36.9471 175.071 36.0759 173.335 36.0612 171.179C36.0486 169.335 36.6166 167.855 37.7652 166.737L31.2978 166.946L31.2613 161.602L46.1203 161.5C47.214 161.493 48.144 161.526 48.9101 161.599L48.4299 166.782L47.3986 166.789C45.758 166.8 44.5256 167.082 43.7012 167.634C42.8923 168.171 42.4918 169.002 42.4994 170.127C42.5055 171.018 42.8151 171.726 43.428 172.254C44.0567 172.78 44.9022 173.04 45.9647 173.033C47.324 173.024 48.502 172.774 49.4987 172.282C50.5109 171.775 51.4897 170.964 52.4353 169.848L52.3549 158.083L29.4804 158.239L29.4443 152.942L63.2638 152.711L63.3 158.008L58.7766 158.039L58.9444 182.601L52.5227 182.645L52.4809 176.528ZM89.3866 152.533L89.4228 157.83L84.8995 157.861L85.0672 182.422L78.6221 182.467L78.4543 157.905L74.6106 157.931L74.5745 152.634L78.1838 152.609C77.2967 150.85 76.8482 149.236 76.8382 147.767C76.8204 145.173 77.8534 143.135 79.9371 141.652C82.0206 140.153 84.9452 139.391 88.7107 139.365C93.1013 139.335 97.2727 140.401 101.225 142.561C105.193 144.706 109.099 148.093 112.943 152.724L105.607 152.774C103.12 150.072 100.544 148.05 97.8783 146.709C95.2127 145.352 92.4659 144.684 89.6378 144.703C87.591 144.717 86.0232 145.095 84.9345 145.837C83.8458 146.578 83.3061 147.621 83.3152 148.965C83.3238 150.215 83.6601 151.416 84.3242 152.567L89.3866 152.533ZM105.997 176.162C104.783 176.874 103.638 177.374 102.562 177.662C101.485 177.935 100.322 178.076 99.0723 178.085C96.2286 178.104 93.9109 177.346 92.1191 175.812C90.3273 174.277 89.4223 172.166 89.4039 169.479C89.3861 166.869 90.3092 164.761 92.1733 163.155C94.0373 161.533 96.5005 160.711 99.5629 160.69C101.672 160.676 103.298 160.797 104.44 161.055L103.985 166.402C103.108 166.158 101.967 166.041 100.56 166.051C99.0605 166.061 97.8985 166.366 97.0744 166.965C96.266 167.564 95.8654 168.395 95.8727 169.458C95.8801 170.551 96.2296 171.385 96.921 171.958C97.6124 172.516 98.5361 172.791 99.6924 172.783C101.942 172.768 104.029 171.746 105.953 169.717L105.871 157.717L87.5666 157.842L87.5304 152.546L127.725 152.271L127.761 157.568L112.316 157.673L112.362 164.353C113.871 163.436 115.61 162.971 117.579 162.958C119.907 162.942 121.787 163.648 123.218 165.076C124.666 166.488 125.397 168.412 125.414 170.85C125.425 172.428 125.139 174.086 124.557 175.825C123.991 177.563 123.182 179.24 122.131 180.857L116.508 177.801C118.18 175.462 119.009 173.339 118.996 171.433C118.982 169.308 118.084 168.251 116.302 168.264C115.053 168.272 113.753 168.968 112.403 170.353L112.484 182.235L106.039 182.279L105.997 176.162ZM151.566 170.788L145.918 170.827C142.011 170.854 139.165 170.428 137.377 169.549C136.973 169.786 136.56 170 136.14 170.191C138.659 173.017 141.694 175.832 145.244 178.636L141.171 182.836C138.168 180.107 135.66 177.725 133.646 175.692C131.648 173.659 130.223 172.09 129.371 170.987C128.536 169.868 127.998 168.988 127.76 168.349C127.536 167.695 127.423 167.063 127.419 166.453C127.411 165.406 127.734 164.545 128.385 163.868C129.052 163.176 129.995 162.826 131.214 162.818C132.652 162.808 133.913 163.292 134.998 164.269C135.63 163.092 135.941 161.7 135.93 160.09C135.924 159.231 135.801 158.372 135.561 157.515L125.881 157.581L125.845 152.284L162.407 152.034L162.443 157.331L157.92 157.362L158.087 181.924L151.642 181.968L151.566 170.788ZM141.889 157.471C142.209 158.547 142.373 159.749 142.382 161.077C142.393 162.702 142.075 164.173 141.428 165.49C141.85 165.534 142.803 165.551 144.288 165.541L151.53 165.492L151.474 157.406L141.889 157.471ZM193.062 173.786L178.943 182.602L175.631 178.148L182.31 174.657C180.791 174.151 179.543 173.222 178.565 171.87C177.602 170.501 177.11 168.294 177.09 165.247L177.035 157.231L173.777 157.254L173.741 151.957L203.857 151.751L203.894 157.048L199.37 157.079L199.538 181.641L193.116 181.685L193.062 173.786ZM183.457 157.187L183.509 164.804C183.519 166.367 183.621 167.483 183.813 168.154C184.02 168.809 184.383 169.345 184.902 169.764C185.436 170.166 186.234 170.364 187.297 170.357C188.25 170.35 189.24 170.109 190.268 169.633C191.296 169.142 192.214 168.479 193.02 167.646L192.949 157.123L183.457 157.187ZM220.444 175.381C219.23 176.092 218.085 176.592 217.009 176.881C215.933 177.154 214.77 177.294 213.52 177.303C210.676 177.322 208.358 176.565 206.566 175.03C204.775 173.495 203.87 171.384 203.851 168.697C203.833 166.088 204.757 163.98 206.621 162.373C208.485 160.751 210.948 159.929 214.01 159.909C216.12 159.894 217.745 160.016 218.888 160.274L218.432 165.621C217.555 165.377 216.414 165.259 215.008 165.269C213.508 165.279 212.346 165.584 211.522 166.183C210.713 166.783 210.313 167.614 210.32 168.676C210.327 169.77 210.677 170.603 211.368 171.177C212.06 171.735 212.983 172.01 214.14 172.002C216.39 171.986 218.476 170.964 220.4 168.935L220.318 156.936L202.014 157.061L201.978 151.764L242.172 151.489L242.208 156.786L226.763 156.892L226.809 163.571C228.318 162.655 230.057 162.19 232.026 162.176C234.354 162.16 236.234 162.866 237.666 164.294C239.113 165.706 239.845 167.631 239.861 170.068C239.872 171.646 239.587 173.304 239.005 175.043C238.439 176.781 237.63 178.459 236.578 180.075L230.956 177.02C232.627 174.68 233.456 172.557 233.443 170.651C233.429 168.526 232.531 167.47 230.75 167.482C229.5 167.49 228.2 168.187 226.85 169.571L226.931 181.454L220.486 181.498L220.444 175.381ZM255.141 156.698L250.617 156.729L250.785 181.291L244.34 181.335L244.172 156.773L240.329 156.799L240.292 151.502L255.105 151.401L255.141 156.698ZM263.942 169.482C267.057 172.554 270.217 175.283 273.42 177.667L269.278 181.961C266.402 179.528 263.855 177.264 261.637 175.17C259.42 173.075 257.854 171.445 256.94 170.28C256.026 169.098 255.441 168.18 255.187 167.526C254.948 166.856 254.826 166.208 254.822 165.583C254.815 164.536 255.137 163.675 255.789 162.998C256.456 162.306 257.399 161.956 258.617 161.948C260.164 161.937 261.52 162.514 262.684 163.678C264.379 162.557 265.221 161.051 265.208 159.16C265.202 158.27 265.094 157.427 264.886 156.631L253.285 156.711L253.248 151.414L274.974 151.265L275.011 156.562L271.167 156.588C271.487 157.664 271.651 158.866 271.66 160.194C271.675 162.304 271.039 164.136 269.753 165.692C268.466 167.232 266.529 168.495 263.942 169.482Z" fill="#264092"/>
<path d="M26.1724 118.644L20.5241 118.682C16.618 118.709 13.7713 118.283 11.984 117.404C11.5793 117.642 11.1667 117.855 10.7461 118.046C13.2655 120.872 16.3004 123.688 19.8509 126.492L15.7779 130.691C12.7748 127.962 10.2663 125.58 8.25239 123.547C6.25408 121.514 4.82928 119.946 3.97797 118.842C3.14218 117.723 2.60491 116.844 2.36617 116.205C2.14294 115.55 2.02925 114.918 2.02509 114.308C2.01794 113.262 2.34018 112.4 2.99183 111.724C3.65899 111.031 4.60194 110.681 5.82066 110.673C7.25813 110.663 8.51927 111.147 9.60409 112.124C10.2367 110.948 10.5475 109.555 10.5365 107.945C10.5306 107.086 10.4076 106.227 10.1674 105.37L0.487891 105.436L0.451716 100.139L37.0134 99.8894L37.0495 105.186L32.5262 105.217L32.694 129.779L26.2488 129.823L26.1724 118.644ZM16.4953 105.327C16.8152 106.402 16.9796 107.605 16.9887 108.933C16.9998 110.558 16.6817 112.029 16.0345 113.345C16.4566 113.389 17.4099 113.406 18.8943 113.396L26.1363 113.347L26.081 105.261L16.4953 105.327ZM54.0929 123.609C53.019 124.226 51.9284 124.687 50.8211 124.991C49.7136 125.28 48.4256 125.429 46.9568 125.439C43.9725 125.46 41.5767 124.71 39.7694 123.191C37.9622 121.672 37.0492 119.554 37.0307 116.835C37.0125 114.179 37.9355 112.055 39.7997 110.464C41.6639 108.873 44.1663 108.067 47.3068 108.046C49.6036 108.03 51.3467 108.151 52.536 108.409L52.0803 113.756C51.1255 113.512 49.9137 113.395 48.445 113.405C46.7575 113.417 45.5096 113.722 44.7012 114.322C43.8927 114.921 43.4922 115.752 43.4994 116.814C43.507 117.924 43.8486 118.757 44.5243 119.315C45.2157 119.873 46.2019 120.147 47.4832 120.139C49.9987 120.121 52.1872 119.114 54.0486 117.117L53.9663 105.071L35.1933 105.199L35.1572 99.9021L64.8987 99.6989L64.9348 104.996L60.4115 105.027L60.5792 129.588L54.1341 129.633L54.0929 123.609ZM51.9123 100.139C50.4267 97.6805 49.6773 95.4747 49.6639 93.5216C49.6491 91.3498 50.4032 89.6571 51.9262 88.4435C53.4491 87.2143 55.5464 86.5906 58.2182 86.5724C60.2025 86.5588 62.0713 86.7882 63.8246 87.2607L62.6841 91.8623C61.7444 91.5406 60.7199 91.3835 59.6105 91.3911C58.3762 91.3995 57.4799 91.7103 56.9215 92.3235C56.3475 92.9212 56.0644 93.806 56.0725 94.9778C56.0776 95.7278 56.263 96.5703 56.6288 97.5054C56.9945 98.4248 57.4769 99.2887 58.0762 100.097L51.9123 100.139ZM88.5784 119.295L74.0389 128.442L70.7272 123.988L81.7014 117.889C80.3239 117.524 79.04 117.142 77.8497 116.744C76.6595 116.346 75.5629 115.931 74.5599 115.5C73.1596 116.369 70.2489 118.022 65.828 120.459L62.5162 116.005C65.4447 114.672 67.8121 113.554 69.6185 112.651C68.2523 111.661 67.2216 110.605 66.5265 109.485C65.8468 108.349 65.5027 107.156 65.4942 105.906C65.4807 103.937 66.2666 102.322 67.8518 101.062C69.437 99.8007 71.5811 99.1611 74.2841 99.1426C77.0809 99.1235 79.288 99.6866 80.9052 100.832C82.5223 101.961 83.3376 103.511 83.3511 105.479C83.3605 106.854 83.0406 108.06 82.3914 109.095C81.7578 110.131 80.7649 111.169 79.4126 112.209C80.8689 112.668 82.3558 113.041 83.8734 113.327C85.3909 113.598 86.9469 113.783 88.5414 113.882L88.4796 104.835L85.9484 104.852L85.9122 99.5554L99.4119 99.4632L99.4481 104.76L94.9248 104.791L95.0925 129.353L88.6473 129.397L88.5784 119.295ZM74.382 110.041C75.3308 109.409 76.0377 108.811 76.5026 108.245C76.983 107.663 77.2208 107.013 77.2159 106.295C77.2107 105.545 76.9646 104.968 76.4775 104.565C76.0059 104.147 75.3326 103.94 74.4576 103.946C73.5826 103.952 72.8888 104.184 72.3763 104.64C71.8794 105.097 71.6336 105.708 71.6388 106.473C71.6431 107.098 71.8738 107.706 72.331 108.297C72.7882 108.887 73.4718 109.469 74.382 110.041ZM87.6208 99.8953C86.6775 96.7611 85.788 94.6343 84.9522 93.5149C84.1007 92.3801 82.9406 91.8177 81.4718 91.8277C80.425 91.8349 79.3327 92.0533 78.195 92.4829L76.4494 87.4088C78.1168 86.7568 79.7943 86.425 81.4817 86.4135C83.0286 86.4029 84.3111 86.5895 85.3294 86.9732C86.3476 87.3412 87.3208 87.9908 88.249 88.922C89.1772 89.8376 90.0695 91.2221 90.9259 93.0757C91.7822 94.9136 92.5867 97.1738 93.3394 99.8563L87.6208 99.8953ZM122.626 112.664L120.647 114.647C122.028 115.512 123.067 116.536 123.762 117.719C124.473 118.902 124.834 120.196 124.843 121.603C124.86 124.071 123.787 125.954 121.624 127.25C119.477 128.53 116.34 129.184 112.215 129.212C108.2 129.24 105.039 128.504 102.731 127.004C100.44 125.488 99.2848 123.402 99.2666 120.746C99.2531 118.762 100.023 117.1 101.576 115.761C100.915 115 100.432 114.089 100.128 113.029C99.8394 111.953 99.6891 110.54 99.6772 108.79L99.6496 104.759L96.3919 104.781L96.3557 99.4841L127.41 99.272L127.446 104.569L122.571 104.602L122.626 112.664ZM116.383 111.418L116.337 104.645L109.142 104.694L116.383 111.418ZM105.911 108.724C105.921 110.224 106.022 111.278 106.214 111.886C106.421 112.478 106.714 112.945 107.091 113.286C108.417 113.011 109.83 112.869 111.33 112.859L113.041 112.847L105.894 106.263L105.911 108.724ZM114.245 117.526L113.331 117.533C111.347 117.546 109.84 117.681 108.81 117.939C107.796 118.18 107.017 118.552 106.474 119.056C105.946 119.544 105.684 120.124 105.689 120.796C105.704 123.046 107.837 124.156 112.087 124.127C114.149 124.113 115.718 123.852 116.793 123.345C117.883 122.822 118.424 122.053 118.418 121.037C118.412 120.193 118.04 119.469 117.301 118.865C116.578 118.245 115.559 117.799 114.245 117.526ZM158.359 122.897C157.223 123.53 156.054 123.991 154.853 124.28C153.667 124.57 152.223 124.72 150.52 124.732C147.598 124.752 145.218 123.995 143.379 122.46C141.541 120.91 140.612 118.799 140.594 116.128C140.576 113.518 141.515 111.41 143.41 109.804C145.305 108.181 147.792 107.36 150.87 107.339C153.511 107.32 155.488 107.432 156.802 107.673L156.345 112.809C155.296 112.566 153.983 112.45 152.405 112.461L152.1 112.463C151.991 112.464 151.882 112.472 151.772 112.489L156.287 118.036C156.894 117.626 157.569 117.051 158.314 116.311L158.233 104.358L138.757 104.491L138.72 99.1947L169.165 98.9868L169.201 104.284L164.678 104.314L164.846 128.876L158.4 128.92L158.359 122.897ZM153.086 119.488L148.169 113.427C147.734 113.712 147.408 114.081 147.193 114.536C146.977 114.975 146.871 115.499 146.875 116.108C146.883 117.311 147.257 118.207 147.995 118.796C148.733 119.385 149.837 119.674 151.306 119.664C152.009 119.659 152.602 119.6 153.086 119.488ZM186.808 116.023L179.191 116.075L179.2 117.317C179.208 118.551 178.949 119.467 178.422 120.065C177.91 120.646 177.123 120.941 176.06 120.948C175.107 120.955 174.05 120.579 172.889 119.821C171.727 119.064 170.768 118.14 170.01 117.052C169.268 115.947 168.894 114.934 168.888 114.012C168.88 112.903 169.156 112.097 169.715 111.593C170.274 111.089 171.116 110.833 172.241 110.825L186.772 110.726L186.727 104.164L167.321 104.296L167.285 98.9996L197.636 98.7924L197.672 104.089L193.149 104.12L193.317 128.682L186.895 128.726L186.808 116.023ZM215.28 115.829L207.662 115.881L207.671 117.123C207.679 118.357 207.42 119.273 206.893 119.87C206.381 120.452 205.594 120.746 204.532 120.754C203.579 120.76 202.521 120.384 201.36 119.627C200.198 118.869 199.239 117.946 198.481 116.857C197.74 115.753 197.365 114.74 197.359 113.818C197.352 112.709 197.627 111.902 198.186 111.398C198.745 110.894 199.587 110.639 200.712 110.631L215.243 110.532L215.199 103.969L195.793 104.102L195.757 98.8052L226.107 98.5979L226.144 103.895L221.62 103.926L221.788 128.487L215.366 128.531L215.28 115.829ZM214.293 99.0302C213.35 95.8959 212.46 93.7691 211.624 92.6498C210.773 91.515 209.613 90.9526 208.144 90.9626C207.097 90.9697 206.005 91.1881 204.867 91.6178L203.121 86.5437C204.789 85.8916 206.466 85.5599 208.154 85.5483C209.701 85.5378 210.983 85.7243 212.001 86.108C213.02 86.4761 213.993 87.1257 214.921 88.0569C215.849 88.9724 216.742 90.357 217.598 92.2106C218.454 94.0485 219.259 96.3087 220.011 98.9911L214.293 99.0302ZM257.091 117.652L248.138 117.714L248.144 118.51C248.153 119.792 247.894 120.754 247.367 121.399C246.84 122.027 245.99 122.345 244.819 122.353C243.928 122.36 242.918 121.984 241.787 121.226C240.673 120.452 239.737 119.521 238.979 118.432C238.222 117.344 237.84 116.346 237.834 115.44C237.827 114.424 238.103 113.68 238.662 113.208C239.221 112.72 240.071 112.472 241.212 112.464L241.681 112.461L241.621 103.789L236.254 103.826L236.218 98.5288L267.928 98.3123L267.964 103.609L263.441 103.64L263.609 128.202L257.164 128.246L257.091 117.652ZM257.055 112.356L256.996 103.684L248.043 103.745L248.102 112.417L257.055 112.356ZM256.114 98.7445C255.17 95.6103 254.281 93.4835 253.445 92.3642C252.594 91.2293 251.434 90.6669 249.965 90.677C248.918 90.6841 247.826 90.9025 246.688 91.3322L244.942 86.258C246.61 85.606 248.287 85.2742 249.975 85.2627C251.522 85.2521 252.804 85.4387 253.822 85.8224C254.841 86.1904 255.814 86.8401 256.742 87.7712C257.67 88.6868 258.562 90.0714 259.419 91.9249C260.275 93.7629 261.08 96.0231 261.832 98.7055L256.114 98.7445ZM263.263 85.172C264.248 85.1652 265.086 85.5033 265.778 86.1861C266.455 86.8533 266.796 87.7026 266.803 88.7338C266.811 89.765 266.48 90.6267 265.813 91.3187C265.13 91.9953 264.297 92.3369 263.312 92.3437C262.328 92.3504 261.498 92.0201 260.821 91.3528C260.129 90.6701 259.779 89.813 259.772 88.7818C259.765 87.7506 260.103 86.8967 260.786 86.2201C261.453 85.5281 262.279 85.1787 263.263 85.172ZM298.421 120.909C297.41 121.572 296.288 122.072 295.056 122.409C293.824 122.745 292.481 122.919 291.028 122.929C288.06 122.949 285.568 121.974 283.555 120.003C281.557 118.017 280.217 115.174 279.536 111.475C281.346 111.104 282.693 110.548 283.579 109.807C284.48 109.051 284.926 108.017 284.917 106.704C284.91 105.626 284.559 104.558 283.864 103.5L278.075 103.54L278.039 98.2432L309.21 98.0303L309.246 103.327L304.723 103.358L304.891 127.92L298.469 127.964L298.421 120.909ZM286.445 114.217C286.968 115.308 287.638 116.155 288.455 116.758C289.271 117.347 290.305 117.636 291.555 117.628C292.914 117.619 294.162 117.329 295.299 116.759C296.435 116.188 297.461 115.33 298.375 114.183L298.301 103.402L290.098 103.458C290.936 104.874 291.36 106.356 291.371 107.902C291.381 109.371 290.975 110.632 290.155 111.684C289.334 112.737 288.097 113.581 286.445 114.217ZM321.728 119.531C319.962 119.543 318.582 119.897 317.586 120.591C316.607 121.285 316.121 122.257 316.13 123.507C316.135 124.257 316.288 124.967 316.589 125.637C316.906 126.291 317.537 127.084 318.481 128.015C319.44 128.961 320.917 130.17 322.912 131.641L318.769 135.935C315.328 133.052 312.959 130.638 311.665 128.694C310.37 126.765 309.717 124.817 309.703 122.848C309.695 121.739 309.907 120.714 310.338 119.773C310.785 118.833 311.459 117.976 312.36 117.205C310.928 115.777 310.206 114.086 310.192 112.133C310.185 111.071 310.382 110.155 310.783 109.387C311.2 108.619 311.789 107.974 312.551 107.453C313.329 106.916 314.24 106.535 315.286 106.309C316.331 106.083 317.775 105.964 319.619 105.952L324.517 105.918L324.499 103.223L307.39 103.34L307.354 98.043L335.385 97.8516L335.421 103.148L330.897 103.179L330.952 111.171L319.726 111.248C318.819 111.254 318.164 111.329 317.758 111.472C317.353 111.6 317.034 111.821 316.802 112.135C316.585 112.449 316.478 112.817 316.481 113.239C316.485 113.77 316.739 114.307 317.242 114.851C318.818 114.434 320.496 114.219 322.277 114.207C325.621 114.184 328.235 114.862 330.119 116.24C332.004 117.617 332.954 119.423 332.969 121.658C332.983 123.689 332.361 125.342 331.104 126.616C329.863 127.874 327.971 128.809 325.428 129.42L323.659 124.323C325.656 123.84 326.65 123.037 326.642 121.912C326.637 121.115 326.219 120.516 325.388 120.116C324.573 119.715 323.353 119.52 321.728 119.531ZM26.9374 230.641L21.2891 230.68C17.3829 230.706 14.5362 230.28 12.7489 229.402C12.3442 229.639 11.9316 229.853 11.511 230.043C14.0304 232.87 17.0653 235.685 20.6158 238.489L16.5428 242.689C13.5398 239.959 11.0312 237.578 9.01731 235.545C7.019 233.511 5.59419 231.943 4.74289 230.839C3.9071 229.72 3.36983 228.841 3.13109 228.202C2.90786 227.547 2.79417 226.915 2.79 226.306C2.78285 225.259 3.1051 224.397 3.75675 223.721C4.42391 223.029 5.36685 222.679 6.58558 222.67C8.02304 222.661 9.28419 223.144 10.369 224.121C11.0016 222.945 11.3124 221.552 11.3014 219.943C11.2956 219.083 11.1725 218.225 10.9323 217.367L1.25281 217.433L1.21663 212.136L37.7783 211.887L37.8145 217.184L33.2911 217.214L33.4589 241.776L27.0137 241.82L26.9374 230.641ZM17.2602 217.324C17.5801 218.4 17.7446 219.602 17.7536 220.93C17.7647 222.555 17.4467 224.026 16.7994 225.343C17.2216 225.387 18.1748 225.404 19.6592 225.394L26.9012 225.344L26.846 217.258L17.2602 217.324ZM63.7991 226.967C61.6506 228.107 58.8263 228.689 55.3264 228.713C54.1077 228.721 52.8882 228.62 51.668 228.409C50.4633 228.183 49.2578 227.84 48.0515 227.379C46.8068 228.154 45.8743 228.894 45.2541 229.602C44.6338 230.293 44.3261 230.999 44.3311 231.717C44.3377 232.686 44.7255 233.426 45.4947 233.936C46.2794 234.446 47.4296 234.696 48.9452 234.686L49.5077 234.682C49.459 234.417 49.4336 234.136 49.4316 233.839C49.4251 232.886 49.748 232.126 50.4004 231.559C51.0683 230.976 52.0117 230.681 53.2304 230.672C54.746 230.662 55.9753 231.068 56.9185 231.889C57.8771 232.695 58.3603 233.661 58.368 234.786C58.3746 235.754 58.1925 236.545 57.8216 237.157C57.4507 237.753 56.9072 238.241 56.191 238.621C57.3881 240.019 58.5447 241.222 59.661 242.23L55.203 244.956C53.5661 243.217 52.1949 241.5 51.0896 239.804C50.2306 239.873 49.5199 239.909 48.9574 239.913C45.4419 239.937 42.7104 239.229 40.7631 237.789C38.8157 236.349 37.8336 234.403 37.8169 231.949C37.8067 230.465 38.1807 229.173 38.9389 228.075C39.6969 226.96 41.0094 225.81 42.8763 224.626C41.6827 223.728 40.7852 222.734 40.184 221.644C39.5828 220.554 39.2779 219.369 39.2691 218.088C39.2557 216.119 40.0337 214.504 41.6033 213.243C43.1728 211.983 45.3482 211.343 48.1294 211.324C50.8949 211.305 53.0785 211.868 54.6801 213.014C56.2972 214.143 57.1125 215.692 57.126 217.661C57.1338 218.802 56.8675 219.858 56.3273 220.831C55.8027 221.803 55.0355 222.722 54.0258 223.589C54.4947 223.617 54.9558 223.629 55.4089 223.626C56.9713 223.615 58.4153 223.418 59.7409 223.034C61.0819 222.634 62.4213 221.992 63.7591 221.108L63.731 217.007L60.1686 217.031L60.1324 211.734L74.6634 211.635L74.6995 216.932L70.1762 216.962L70.344 241.524L63.8988 241.568L63.7991 226.967ZM48.0853 222.035C49.0503 221.482 49.773 220.914 50.2534 220.333C50.7494 219.736 50.9952 219.117 50.9908 218.476C50.9858 217.742 50.7396 217.166 50.2524 216.747C49.7808 216.328 49.1075 216.122 48.2325 216.128C47.3731 216.134 46.6872 216.365 46.1747 216.822C45.6622 217.278 45.4085 217.889 45.4137 218.655C45.418 219.28 45.6408 219.872 46.0821 220.432C46.5235 220.991 47.1912 221.526 48.0853 222.035ZM93.657 230.771L84.7041 230.832L84.7095 231.629C84.7183 232.91 84.4592 233.873 83.9324 234.517C83.4054 235.146 82.556 235.464 81.3841 235.472C80.4935 235.478 79.4831 235.102 78.3529 234.345C77.2382 233.571 76.3022 232.64 75.5447 231.551C74.7873 230.463 74.4054 229.465 74.3992 228.559C74.3923 227.543 74.6685 226.799 75.2278 226.327C75.787 225.838 76.6368 225.59 77.7774 225.583L78.2462 225.579L78.187 216.908L72.8199 216.944L72.7837 211.648L104.494 211.431L104.53 216.728L100.007 216.759L100.175 241.321L93.7293 241.365L93.657 230.771ZM93.6208 225.474L93.5616 216.803L84.6087 216.864L84.6679 225.536L93.6208 225.474ZM130.178 232.842C128.413 232.854 127.032 233.207 126.037 233.902C125.057 234.596 124.572 235.568 124.58 236.818C124.585 237.568 124.739 238.278 125.04 238.948C125.357 239.602 125.988 240.394 126.931 241.325C127.891 242.272 129.368 243.481 131.363 244.952L127.22 249.246C123.778 246.363 121.41 243.949 120.116 242.005C118.821 240.076 118.167 238.127 118.154 236.159C118.146 235.049 118.358 234.024 118.789 233.084C119.236 232.143 119.91 231.287 120.811 230.515C119.379 229.088 118.656 227.397 118.643 225.444C118.636 224.382 118.833 223.466 119.234 222.698C119.65 221.929 120.24 221.285 121.002 220.764C121.779 220.227 122.691 219.846 123.736 219.62C124.782 219.394 126.226 219.275 128.07 219.262L132.968 219.229L132.95 216.534L115.841 216.651L115.805 211.354L143.835 211.162L143.871 216.459L139.348 216.49L139.403 224.482L128.176 224.559C127.27 224.565 126.614 224.64 126.209 224.783C125.804 224.911 125.485 225.132 125.253 225.446C125.036 225.76 124.929 226.128 124.932 226.55C124.936 227.081 125.189 227.618 125.693 228.162C127.268 227.745 128.947 227.53 130.728 227.518C134.072 227.495 136.686 228.173 138.57 229.55C140.454 230.928 141.404 232.734 141.42 234.969C141.433 237 140.812 238.652 139.555 239.927C138.314 241.185 136.421 242.12 133.879 242.731L132.109 237.634C134.106 237.151 135.101 236.348 135.093 235.223C135.088 234.426 134.669 233.827 133.839 233.427C133.023 233.026 131.803 232.831 130.178 232.842ZM131.716 211.597C130.866 210.696 130.143 210.029 129.546 209.596C128.934 209.163 128.361 208.862 127.829 208.694C127.281 208.525 126.569 208.444 125.694 208.45C124.507 208.458 123.181 208.842 121.718 209.602L120.072 205.442C121.848 204.648 123.486 204.247 124.986 204.236C126.283 204.227 127.425 204.462 128.413 204.939C129.385 205.417 130.359 206.192 131.335 207.263L131.592 207.215C130.8 205.533 129.971 204.296 129.106 203.505C128.241 202.714 127.059 202.324 125.559 202.334C124.465 202.341 123.412 202.56 122.399 202.988L120.918 198.897C122.555 198.386 124.077 198.125 125.483 198.116C127.139 198.104 128.461 198.251 129.447 198.557C130.434 198.863 131.391 199.442 132.319 200.296C133.246 201.133 134.162 202.478 135.065 204.332C135.968 206.185 136.852 208.593 137.716 211.556L131.716 211.597ZM151.319 229.307L158.567 229.258C158.532 224.17 166.59 223.251 166.538 215.571C166.499 209.907 161.485 206.725 154.285 206.774C147.805 206.819 143.311 209.345 140.745 213.299L146.577 216.667C148.097 214.449 150.44 213.089 153.512 213.068C156.632 213.046 158.706 214.52 158.722 216.872C158.751 221.048 151.273 222.587 151.319 229.307ZM155.049 241.33C157.737 241.312 159.644 239.33 159.627 236.931C159.611 234.483 157.678 232.672 154.99 232.69C152.302 232.708 150.395 234.546 150.412 236.993C150.428 239.393 152.361 241.348 155.049 241.33Z" fill="#EF951E"/>
<g clip-path="url(#clip0_344_275)">
<path d="M463.57 322.24C463.183 322.355 462.822 321.704 462.091 320.658C461.614 319.62 461.032 317.94 460.212 315.74C458.818 311.606 456.85 305.536 454.159 298.164C453.806 297.258 453.454 296.352 453.101 295.446C452.748 294.54 452.272 293.502 451.919 292.596C451.681 292.077 451.566 291.69 451.328 291.171C451.09 290.652 450.852 290.133 450.737 289.746C450.261 288.708 449.785 287.67 449.564 286.641C447.791 282.366 445.764 278.082 443.489 273.535C442.89 272.365 442.29 271.195 441.691 270.025C441.091 268.856 440.492 267.686 439.892 266.516C439.531 265.865 439.293 265.346 438.932 264.695C438.57 264.045 438.332 263.526 437.971 262.875C437.371 261.705 436.517 260.527 435.917 259.357C433.009 254.66 429.978 249.832 426.559 245.119C424.85 242.762 422.771 240.01 420.436 237.249C417.978 234.356 415.274 231.199 412.051 228.281C408.836 225.107 405.234 222.048 400.981 219.35C396.861 216.529 392.344 214.078 387.3 212.121C386.041 211.567 384.774 211.269 383.515 210.716C382.881 210.567 382.124 210.286 381.491 210.137C381.112 209.997 380.857 209.988 380.478 209.848C380.1 209.707 379.845 209.699 379.466 209.558C379.088 209.418 378.832 209.409 378.454 209.269L377.944 209.252L377.433 209.234C376.799 209.085 376.166 208.936 375.4 208.911C374.766 208.762 374.001 208.736 373.367 208.587C372.989 208.447 372.733 208.438 372.223 208.421L371.202 208.387L370.181 208.352C369.803 208.212 369.416 208.327 369.161 208.318C368.395 208.292 367.761 208.143 367.119 208.25C366.353 208.224 365.711 208.33 364.946 208.304C364.69 208.296 364.18 208.279 363.925 208.27L362.772 208.359L361.619 208.448C361.364 208.44 361.232 208.563 361.109 208.431L360.599 208.414C359.956 208.52 359.191 208.494 358.417 208.724C356.877 208.928 355.592 209.14 354.176 209.476C348.51 210.818 343.057 213.446 338.343 216.864C333.63 220.283 329.524 224.616 326.669 229.758C325.861 231.008 325.307 232.267 324.877 233.657C324.737 234.036 324.597 234.414 324.588 234.67C324.448 235.048 324.307 235.427 324.299 235.682C324.15 236.316 323.869 237.073 323.72 237.706C322.63 239.714 322.149 242.636 321.8 245.434C321.45 248.233 321.224 251.163 321.13 253.97C321.035 256.778 320.809 259.708 320.592 262.383C320.242 265.182 320.025 267.857 319.42 270.647C319.271 271.281 319.122 271.915 318.973 272.548C318.965 272.804 318.824 273.182 318.684 273.561C318.543 273.939 318.535 274.194 318.394 274.573C318.096 275.84 317.543 277.099 317.122 278.235C316.568 279.494 316.024 280.497 315.347 281.624C314.671 282.751 313.747 283.614 312.824 284.478C310.855 286.072 308.655 286.892 306.465 287.458C306.078 287.572 305.823 287.564 305.435 287.679C305.18 287.67 304.793 287.785 304.538 287.776C304.283 287.768 304.028 287.759 303.764 288.006C303.509 287.997 303.253 287.989 302.998 287.98C302.488 287.963 301.846 288.069 301.335 288.052C301.08 288.043 300.825 288.035 300.57 288.026C300.314 288.018 300.059 288.009 299.804 288.001C299.294 287.983 298.783 287.966 298.405 287.826C297.894 287.809 297.516 287.668 297.005 287.651C296.882 287.519 296.75 287.642 296.627 287.511L296.248 287.37C295.993 287.362 295.87 287.23 295.615 287.221C295.615 287.221 295.359 287.213 295.104 287.204C294.849 287.195 294.726 287.064 294.471 287.055C291.055 286.046 288.555 284.429 286.565 282.83C286.318 282.566 286.195 282.434 285.816 282.293C285.57 282.03 285.446 281.898 285.2 281.634C285.076 281.502 284.83 281.238 284.706 281.107C284.583 280.975 284.336 280.711 284.213 280.579C283.596 279.92 283.112 279.137 282.742 278.741C282.495 278.477 282.504 278.222 282.257 277.958C282.134 277.827 282.011 277.695 282.019 277.44C281.772 277.176 281.781 276.921 281.781 276.921C281.781 276.921 281.904 277.052 282.151 277.316C282.274 277.448 282.398 277.58 282.521 277.712C282.644 277.844 282.891 278.108 283.137 278.371C284.001 279.294 285.225 280.868 287.224 282.213C289.223 283.558 291.855 285.051 295.024 285.796C295.279 285.805 295.402 285.937 295.657 285.945C295.913 285.954 296.036 286.086 296.291 286.094C296.546 286.103 296.67 286.235 296.925 286.243L297.18 286.252L297.435 286.26C297.946 286.277 298.324 286.418 298.835 286.435C299.345 286.452 299.855 286.469 300.111 286.478C300.366 286.486 300.621 286.495 300.876 286.504C301.131 286.512 301.387 286.521 301.642 286.529C302.152 286.546 302.539 286.432 303.05 286.449C303.305 286.457 303.56 286.466 303.692 286.343C303.947 286.351 304.079 286.228 304.466 286.113C304.589 286.245 304.853 285.998 305.108 286.007C305.364 286.016 305.495 285.892 305.883 285.777C307.818 285.204 309.762 284.375 311.344 282.895C312.927 281.415 314.14 279.54 314.851 277.392C315.272 276.256 315.561 275.244 315.859 273.977C315.868 273.722 316.008 273.343 316.017 273.088C316.026 272.833 316.166 272.454 316.175 272.199C316.324 271.565 316.473 270.932 316.49 270.421C316.831 267.878 317.048 265.202 317.134 262.651C317.228 259.843 317.19 257.159 317.161 254.22C317.132 251.281 317.226 248.474 317.329 245.412C317.432 242.349 317.79 239.296 318.535 236.127C318.816 235.37 318.842 234.604 319.123 233.847C319.263 233.469 319.404 233.09 319.544 232.712C319.684 232.333 319.825 231.955 319.965 231.576C320.527 230.062 321.089 228.548 321.906 227.043C324.787 221.136 329.182 215.79 334.431 211.623C339.681 207.456 345.794 204.212 352.119 202.253C353.667 201.794 355.471 201.344 357.011 201.14C357.908 201.042 358.682 200.813 359.58 200.715L359.984 200.09C360.239 200.099 360.371 199.975 360.626 199.984L361.911 199.771L363.195 199.559C363.582 199.444 364.093 199.461 364.348 199.47C365.114 199.496 366.011 199.398 366.777 199.424C367.542 199.449 368.44 199.352 369.205 199.378C369.716 199.395 369.971 199.403 370.481 199.42L371.757 199.463L373.033 199.506C373.544 199.523 373.799 199.532 374.177 199.672C374.943 199.698 375.832 199.856 376.597 199.881C377.363 199.907 378.12 200.188 378.886 200.214L379.519 200.363L380.153 200.512C380.532 200.652 381.042 200.669 381.297 200.678C381.676 200.818 382.186 200.835 382.441 200.844C382.82 200.984 383.198 201.125 383.585 201.01C384.342 201.291 385.108 201.317 385.865 201.597C387.256 202.027 388.902 202.466 390.292 202.896C396.102 204.879 401.375 207.611 406.13 210.581C410.885 213.551 414.988 216.882 418.713 220.073C422.307 223.387 425.521 226.561 428.226 229.718C430.93 232.874 433.133 235.759 434.965 238.247C438.63 243.225 441.9 248.572 444.8 253.523C445.522 254.825 446.245 256.127 446.845 257.296C447.206 257.947 447.567 258.598 447.805 259.117C448.167 259.768 448.528 260.419 448.766 260.938C449.366 262.108 449.957 263.533 450.556 264.702C451.155 265.872 451.623 267.165 452.222 268.335C454.356 273.261 456.112 278.046 457.621 282.568C457.965 283.729 458.309 284.891 458.785 285.928C459.023 286.447 459.13 287.09 459.368 287.609C459.606 288.128 459.589 288.638 459.827 289.157C460.048 290.186 460.392 291.348 460.745 292.254C460.966 293.283 461.187 294.312 461.539 295.218C463.447 303.075 464.122 309.612 464.355 314.091C464.533 316.396 464.473 318.183 464.307 319.327C464.106 321.492 463.826 322.249 463.57 322.24Z" fill="#454444" fill-opacity="0.2"/>
<path d="M464.877 336.591L475.183 318.798L485.357 301.128L463.248 316.609L438.722 305.183L451.866 320.825L464.877 336.591Z" fill="#454444" fill-opacity="0.2"/>
</g>
<g clip-path="url(#clip1_344_275)">
<path d="M695.332 110.822C695.332 110.822 664.621 190.839 661.865 210.613C659.11 230.386 666.195 241.618 672.099 245.213C678.003 248.807 686.674 244.762 692.971 242.069C699.268 239.377 706.758 237.123 710.694 239.827C714.63 242.52 735.896 251.511 742.981 246.114C750.065 240.717 755.981 237.574 760.704 239.827C765.427 242.069 771.724 243.421 772.118 247.917C772.118 247.917 769.339 255.793 771.331 254.654C777.628 251.06 784.725 245.663 790.235 246.114C790.235 246.114 798.5 245.213 779.215 214.657C759.929 184.102 755.981 161.625 754.407 152.645C752.832 143.654 743.112 116.788 724.482 109.031L695.332 110.822Z" fill="#C0272D"/>
<path opacity="0.39" d="M687.985 243.35C686.745 243.196 685.373 243.054 684.133 242.662C682.988 242.307 681.867 241.69 680.805 241.144C679.35 240.397 678.026 239.163 676.857 237.965C676.547 237.645 676.261 237.289 675.987 236.91C675.247 235.878 674.472 234.822 673.864 233.671C671.133 228.547 670.596 222.403 670.632 216.555C670.667 209.699 671.085 202.926 671.896 196.13C672.623 190.092 673.864 184.15 675.689 178.421C677.692 172.11 680.054 165.966 682.356 159.786C683.405 156.928 684.407 154.033 685.29 151.104C687.031 145.303 688.283 139.337 689.715 133.43C690.192 131.437 690.705 129.456 691.253 127.499C692.088 123.395 692.947 119.303 693.818 115.211C694.175 113.515 694.974 112.02 696.024 110.786L695.344 110.834C695.344 110.834 664.632 190.851 661.877 210.625C659.122 230.398 666.207 241.63 672.111 245.224C677.072 248.249 683.978 245.877 689.786 243.445C689.19 243.445 688.594 243.433 687.985 243.35Z" fill="#9A1C21"/>
<path opacity="0.39" d="M732.604 236.198C728.024 230.089 723.898 223.494 720.355 216.555C716.718 209.426 713.855 201.906 711.148 194.267C708.321 186.261 705.709 178.148 703.574 169.868C703.443 169.358 703.312 168.848 703.181 168.338C702.966 169.928 702.763 171.517 702.572 173.118C702.155 176.784 701.809 180.461 701.511 184.15C700.402 197.826 700.437 211.633 701.773 225.285C702.775 225.582 703.801 225.819 704.803 226.104C707.188 226.756 709.096 228.713 710.384 231.002C711.756 233.422 711.875 236.494 711.327 239.222C711.267 239.519 711.184 239.804 711.1 240.088C715.644 242.899 734.214 250.574 741.919 246.79C738.544 243.552 735.431 239.993 732.604 236.198Z" fill="#9A1C21"/>
<path opacity="0.39" d="M773.454 209.035C769.065 205.299 764.365 202.084 759.69 198.87C755.027 195.655 750.47 192.322 746.022 188.728C740.917 184.612 735.86 180.425 730.91 176.06C728.203 173.676 725.519 171.28 722.872 168.813C723.563 171.339 724.291 173.842 725.066 176.345C726.784 181.86 728.668 187.305 730.636 192.702C731.364 194.623 732.151 196.521 732.974 198.395C736.003 205.299 739.557 211.917 743.624 218.097C747.203 223.233 751.174 228.037 755.659 232.165C756.828 233.149 758.02 234.087 759.249 234.964C761.288 236.423 762.66 238.475 763.447 241.014C767.562 242.686 771.796 244.264 772.118 247.917C772.118 247.917 769.339 255.793 771.331 254.654C777.628 251.06 784.725 245.663 790.235 246.114C790.235 246.114 798.119 245.26 780.526 216.769C778.403 213.922 776.006 211.372 773.454 209.035Z" fill="#9A1C21"/>
<path opacity="0.56" d="M710.885 112.66C712.149 115.116 712.412 118.14 711.827 120.88C711.004 124.759 710.193 128.638 709.394 132.516C709.37 132.635 709.346 132.742 709.323 132.86C710.265 132.101 711.326 131.532 712.4 131.129C713.64 130.69 714.881 130.619 716.121 130.939C717.361 130.998 718.518 131.425 719.592 132.208C720.677 132.884 721.56 133.798 722.216 134.96C723.039 135.992 723.599 137.202 723.885 138.59C723.969 139.313 724.112 140.013 724.303 140.701C724.613 141.365 724.959 142.006 725.34 142.634C727.332 145.291 729.682 147.557 731.984 149.846C734.93 152.752 737.959 155.551 741.024 158.28C745.091 161.838 749.23 165.29 753.393 168.682C755.408 170.319 757.412 171.944 759.451 173.533C756.362 164.009 755.11 156.868 754.371 152.669C752.796 143.678 743.076 116.812 724.446 109.054L708.857 110.015C709.716 110.691 710.384 111.581 710.885 112.66Z" fill="#5B151E"/>
<path d="M779.215 214.657C759.917 184.102 755.981 161.625 754.407 152.645C752.832 143.654 743.112 116.788 724.482 109.031L711.243 109.849C711.684 110.122 712.114 110.419 712.543 110.727C713.593 111.427 714.63 112.127 715.632 112.886C716.086 113.23 716.527 113.586 716.956 113.965C719.151 115.863 721.381 117.749 723.504 119.754C723.695 119.931 723.874 120.121 724.065 120.299C724.399 120.655 724.721 121.023 725.031 121.402C725.174 121.58 725.305 121.77 725.448 121.96C727.142 124.332 728.883 126.87 730.446 129.349C730.72 129.777 730.97 130.227 731.185 130.702C731.292 130.927 731.4 131.164 731.495 131.39C732.664 134.201 733.69 137.166 734.715 140.049C735.145 141.247 735.419 142.468 735.658 143.726C735.813 144.532 735.956 145.351 736.063 146.169C736.576 149.811 736.97 153.476 737.363 157.141C737.697 160.308 737.733 163.487 737.971 166.654C738.067 167.959 738.174 169.263 738.282 170.568C738.747 173.462 739.343 176.321 740.13 179.12C740.798 180.532 741.538 181.896 742.325 183.236C743.207 184.387 744.126 185.502 745.092 186.569C746.177 187.317 747.298 188.016 748.407 188.728C750.316 189.938 752.224 191.172 753.965 192.678C756.47 194.849 759.845 197.411 762.219 200.257C764.7 203.247 766.99 206.556 768.85 210.091C769.363 211.051 769.781 212.071 770.186 213.103C771.438 216.33 772.691 219.556 773.776 222.854C773.967 223.423 774.134 224.004 774.277 224.597C774.766 226.626 774.897 228.832 775.136 230.86C775.303 232.319 775.827 234.94 775.732 236.826C775.732 236.945 775.72 237.052 775.708 237.17C775.35 240.183 775.005 243.196 774.647 246.209C774.623 246.339 774.611 246.482 774.587 246.612C774.539 246.849 774.48 247.063 774.408 247.288C773.538 249.661 772.655 252.021 771.784 254.393C777.974 250.799 784.868 245.663 790.259 246.102C790.235 246.114 798.513 245.212 779.215 214.657Z" fill="#9A1C21"/>
<path d="M715.131 100.455L701.248 102.448C701.248 102.448 699.638 104.251 699.757 105.983C699.865 107.702 701.928 109.588 701.928 109.588L710.742 107.94L715.131 100.455Z" fill="#BABABE"/>
<path d="M715.346 87.5852C715.346 87.5852 713.199 100.147 713.927 102.922C714.654 105.698 720.2 108.023 720.2 108.023C720.2 108.023 708.225 116.456 703.693 113.894C699.161 111.332 697.658 110.063 697.658 110.063C697.658 110.063 700.771 107.987 701.308 105.971C701.833 103.966 701.928 88.202 701.928 88.202L715.346 87.5852Z" fill="#DF8867"/>
<path d="M696.584 75.4985C696.584 75.4985 694.032 83.1847 693.615 86.0196C693.197 88.8545 697.038 95.2004 698.123 96.4933C699.208 97.7862 701.498 98.237 701.498 98.237C701.498 98.237 710.014 96.4459 711.755 95.0106C713.497 93.5754 718.339 86.3399 718.339 86.3399C718.339 86.3399 724.422 76.8982 723.694 73.5532C722.955 70.2083 719.961 62.5813 712.984 61.4782C706.019 60.3632 703.693 60.3158 701.152 65.1197C700.031 67.231 696.584 75.4985 696.584 75.4985Z" fill="#EE9E78"/>
<path d="M699.244 71.9636L703.204 75.5932C703.204 75.5932 703.753 75.6762 703.943 75.0239C704.134 74.3715 701.725 71.5484 700.854 71.3587C699.972 71.1807 699.22 71.5366 699.244 71.9636Z" fill="#31141E"/>
<path d="M661.567 105.401L659.575 100.289L657.834 93.1246C657.512 91.7961 657.858 90.3846 658.752 89.3526C660.625 87.2057 663.917 83.8015 666.04 83.8015C669.129 83.8015 671.097 83.5168 671.932 86.0314C672.778 88.546 672.778 92.4603 672.218 93.8481C671.657 95.2478 669.976 97.2049 669.976 97.2049L669.773 101.333C669.725 102.258 669.284 103.136 668.556 103.717L665.288 106.362C664.024 107.382 662.152 106.884 661.567 105.401Z" fill="#EE9E78"/>
<path d="M671.168 89.9456L667.853 94.619C667.459 95.1765 667.59 95.9475 668.151 96.3389L668.914 96.8727C669.475 97.2641 670.25 97.1336 670.644 96.5762L673.959 91.9027C674.353 91.3452 674.222 90.5742 673.661 90.1828L672.898 89.649C672.337 89.2576 671.562 89.3881 671.168 89.9456Z" fill="#DF8867"/>
<path d="M658.812 92.745C659.122 92.5908 659.456 92.4722 659.79 92.3773C660.124 92.2706 660.47 92.2112 660.84 92.1757C661.018 92.1519 661.197 92.1519 661.388 92.1638C661.579 92.1757 661.77 92.1994 661.949 92.2587C662.14 92.318 662.33 92.3892 662.509 92.5078C662.688 92.6264 662.843 92.7925 662.951 92.9704C663.01 93.0653 663.058 93.1483 663.094 93.2432C663.13 93.3381 663.165 93.4211 663.201 93.516C663.261 93.7058 663.308 93.8956 663.332 94.0854C663.38 94.4649 663.356 94.8445 663.308 95.2122C663.249 95.5799 663.165 95.9358 663.058 96.2797C662.998 96.4577 662.939 96.6237 662.867 96.7898C662.831 96.8728 662.796 96.9558 662.76 97.0389C662.724 97.1219 662.688 97.2049 662.641 97.2998L662.617 97.3354L662.581 97.3829C662.569 97.4066 662.533 97.4422 662.509 97.4659C662.486 97.5015 662.462 97.537 662.438 97.5726C662.39 97.6438 662.354 97.715 662.33 97.7743C662.307 97.8336 662.295 97.8929 662.295 97.9166C662.295 97.9522 662.295 97.9403 662.283 97.9285C662.271 97.9166 662.283 97.9285 662.319 97.9522C662.354 97.9759 662.426 97.9878 662.497 97.9997L662.557 98.0115C662.581 98.0115 662.593 98.0234 662.617 98.0234L662.76 98.0352C662.855 98.0471 662.951 98.059 663.046 98.059C663.428 98.0945 663.821 98.0945 664.203 98.0827C664.585 98.059 664.966 97.9996 665.348 97.9285C666.099 97.7624 666.839 97.4777 667.531 97.0982C668.234 96.7305 668.89 96.256 669.546 95.7578C669.057 96.4102 668.461 97.0033 667.793 97.5133C667.125 98.0115 666.362 98.4267 665.539 98.6758C665.336 98.7351 665.121 98.7944 664.907 98.83C664.799 98.8537 664.692 98.8774 664.585 98.8893L664.263 98.9367C663.833 98.9842 663.404 98.996 662.975 98.9723C662.867 98.9604 662.76 98.9604 662.652 98.9486L662.497 98.9367C662.474 98.9367 662.438 98.9367 662.414 98.9248L662.319 98.913C662.187 98.8893 662.056 98.8537 661.913 98.7944C661.77 98.7232 661.603 98.6165 661.484 98.4385C661.364 98.2606 661.329 98.0352 661.341 97.8692C661.352 97.6912 661.4 97.5608 661.448 97.4303C661.496 97.3117 661.567 97.1931 661.627 97.0982C661.663 97.0507 661.698 96.9914 661.734 96.944C661.77 96.8965 661.806 96.8491 661.853 96.7898L661.794 96.8728C661.83 96.8135 661.865 96.7423 661.901 96.6712C661.937 96.6 661.973 96.5288 661.996 96.4577C662.056 96.3153 662.116 96.1611 662.175 96.0069C662.283 95.6985 662.378 95.402 662.438 95.0817C662.497 94.7733 662.533 94.4649 662.521 94.1684C662.521 94.0142 662.497 93.8719 662.462 93.7295C662.45 93.6583 662.426 93.5872 662.402 93.516C662.378 93.4448 662.354 93.3737 662.319 93.3262C662.211 93.1009 661.996 92.9229 661.722 92.8043C661.448 92.6857 661.126 92.6383 660.804 92.6027C660.172 92.5434 659.492 92.6264 658.812 92.745Z" fill="#DF8867"/>
<path d="M713.783 76.7912L707.712 77.2775C707.712 77.2775 707.164 76.9691 707.45 76.2575C707.736 75.5339 711.863 74.6799 712.769 75.1306C713.688 75.5814 714.105 76.4117 713.783 76.7912Z" fill="#31141E"/>
<path d="M700.465 76.9042C700.858 76.01 700.659 75.0594 700.019 74.7809C699.379 74.5025 698.542 75.0016 698.148 75.8958C697.755 76.79 697.954 77.7406 698.594 78.0191C699.233 78.2975 700.071 77.7984 700.465 76.9042Z" fill="#2B203D"/>
<path d="M709.931 80.3734C709.537 81.263 708.702 81.7612 708.058 81.4884C707.414 81.2156 707.211 80.2666 707.605 79.3652C707.999 78.4756 708.834 77.9774 709.478 78.2502C710.122 78.5349 710.324 79.4838 709.931 80.3734Z" fill="#2B203D"/>
<path d="M695.368 107.916L673.458 123.371L671.001 101.783C670.918 101.024 670.13 100.028 669.498 100.455C667.578 101.772 664.775 102.542 660.613 103.527L664.441 131.2C664.441 131.2 665.431 134.616 667.185 135.778C668.938 136.941 672.79 137.131 672.79 137.131L689.524 128.626L695.368 107.916Z" fill="#282247"/>
<path d="M701.439 86.5769C700.866 86.2092 700.21 85.7111 700.199 85.1298C700.187 84.6672 700.556 84.264 701.355 83.8844C702.727 83.2201 704.278 77.5504 704.755 75.4153L705.244 75.5576C705.244 75.5813 704.79 77.5266 704.146 79.5549C703.264 82.3187 702.417 83.9081 701.642 84.2758C701.01 84.5842 700.699 84.8807 700.711 85.1773C700.723 85.462 701.033 85.8059 701.713 86.2448L701.439 86.5769Z" fill="#EF7A6D"/>
<path d="M685.743 258.924C685.743 258.924 678.301 270.205 674.019 271.213C674.019 271.213 670.238 274.475 672.254 276.729C674.269 278.982 677.8 278.982 680.066 278.484C682.332 277.986 689.894 270.466 689.894 270.466L690.395 269.208L691.146 270.466L693.925 268.461L692.41 258.177L685.743 258.924Z" fill="#4C2421"/>
<path d="M732.246 274.676L732.497 282.956L735.276 287.214L735.776 287.463C735.776 287.463 736.79 297.237 737.041 297.747C737.291 298.245 737.291 299.503 738.806 300.76C740.321 302.017 744.101 303.773 746.618 301.258C749.135 298.755 749.397 296.241 749.397 296.241C749.397 296.241 742.336 279.943 742.086 278.437C741.835 276.93 740.822 273.419 740.822 273.419L732.246 274.676Z" fill="#4C2421"/>
<path d="M689.918 162.716C689.918 162.716 687.711 171.173 687.508 180.449C687.329 188.847 682.928 246.114 684.729 258.047C684.896 259.174 685.827 260.04 686.972 260.134L689.906 260.384C691.79 260.538 693.388 259.031 693.329 257.157L705.399 190.46L731.745 275.187C731.745 275.187 739.45 278.496 741.573 274.178C742.551 272.198 728.716 180.319 727.01 172.502C725.305 164.685 719.103 159.288 719.103 159.288L689.918 162.716Z" fill="#282247"/>
<path d="M738.281 246.292C740.428 261.664 741.919 273.479 741.573 274.178C739.45 278.484 731.745 275.187 731.745 275.187L721.882 243.469C727.094 245.331 732.568 246.268 738.281 246.292Z" fill="#161330"/>
<path d="M694.903 227.468C695.941 228.583 697.026 229.638 698.135 230.635L693.341 257.145C693.4 259.019 691.79 260.526 689.918 260.372L686.984 260.122C685.839 260.028 684.908 259.162 684.741 258.035C683.799 251.808 684.55 233.232 685.505 215.701C687.95 220.019 691.086 223.945 694.903 227.468Z" fill="#161330"/>
<path d="M691.289 163.036C691.289 163.036 691.289 166.88 695.571 169.133C699.853 171.387 706.162 172.644 709.442 171.897C712.722 171.15 722.299 166.381 722.8 163.618L722.717 163.701L691.289 163.036Z" fill="#262727"/>
<path d="M712.162 167.018L710.686 167.355L711.757 172.002L713.233 171.666L712.162 167.018Z" fill="#212A4E"/>
<path d="M699.266 166.378L697.884 165.762L695.922 170.113L697.304 170.729L699.266 166.378Z" fill="#212A4E"/>
<path d="M716.414 165.288L715.047 165.938L717.116 170.24L718.482 169.59L716.414 165.288Z" fill="#212A4E"/>
<path d="M694.988 164.766L693.877 163.741L690.616 167.236L691.726 168.261L694.988 164.766Z" fill="#212A4E"/>
<path d="M698.851 106.196L704.289 112.755L716.348 105.105L731.9 112.661C731.9 112.661 725.352 137.166 725.054 142.184C724.863 145.268 725.018 152.61 725.162 157.817C725.257 161.328 723.062 164.495 719.723 165.634C715.525 167.069 709.847 168.635 705.876 168.315C702.608 168.054 699.077 167.247 696.227 166.452C692.804 165.503 690.335 162.538 690.049 159.003C689.285 149.49 687.997 130.631 689.178 124.012C690.776 114.997 694.82 108.45 694.82 108.45L698.851 106.196Z" fill="#D9DDE9"/>
<path d="M704.147 112.72L699.865 110.964L696.585 112.72L699.865 107.702L704.147 112.72Z" fill="#BABABE"/>
<path d="M705.172 113.396L705.971 109.138L715.131 100.455L719.103 106.516L710.694 115.46L705.172 113.396Z" fill="#D9DDE9"/>
<path d="M701.248 102.448L698.863 104.44C697.837 106.682 696.597 112.72 696.597 112.72L699.626 108.96L704.17 112.72C704.146 112.72 699.686 107.572 701.248 102.448Z" fill="#D9DDE9"/>
<path d="M711.207 113.218L705.912 109.209L704.397 112.72L707.176 111.712L711.207 113.218Z" fill="#BABABE"/>
<path d="M705.685 172.917L700.52 172.359C700.043 172.312 699.697 171.873 699.745 171.399L700.019 168.884C700.067 168.41 700.508 168.066 700.986 168.113L706.15 168.67C706.627 168.718 706.973 169.157 706.925 169.631L706.651 172.146C706.591 172.62 706.162 172.964 705.685 172.917Z" fill="#CDD0D7"/>
<path d="M705.446 172.478L700.843 171.98C700.437 171.932 700.139 171.565 700.187 171.161L700.401 169.145C700.449 168.742 700.819 168.445 701.224 168.493L705.828 168.991C706.234 169.038 706.532 169.406 706.484 169.809L706.269 171.826C706.222 172.229 705.852 172.525 705.446 172.478Z" fill="#262727"/>
<path d="M685.23 260.324C683.966 261.285 682.38 261.712 681.068 262.602C680.472 263.005 678.48 264.476 679.16 265.401C679.434 265.781 680.042 265.425 680.376 265.306C681.032 265.069 681.664 264.784 682.237 264.393C682.738 264.049 683.191 263.634 683.537 263.135C684.002 262.471 684.264 261.688 684.897 261.143C684.801 261.083 684.694 261.024 684.598 260.965C684.348 261.973 684.312 263.005 684.551 264.013C684.658 264.452 685.04 266.148 685.731 266.006C686.423 265.864 686.292 264.239 686.292 263.776C686.292 262.59 686.089 261.416 685.719 260.277C685.648 260.063 685.302 260.158 685.374 260.372C685.636 261.166 685.815 261.985 685.886 262.815C685.922 263.242 685.934 263.669 685.922 264.084C685.91 264.381 685.97 265.223 685.779 265.425C685.779 265.579 685.696 265.603 685.541 265.52C685.505 265.46 685.481 265.401 685.445 265.342C685.314 265.176 685.195 264.832 685.135 264.666C685.004 264.322 684.908 263.966 684.849 263.61C684.694 262.756 684.741 261.89 684.956 261.048C685.004 260.87 684.789 260.763 684.658 260.87C683.811 261.605 683.549 262.744 682.738 263.527C682.308 263.942 681.807 264.274 681.271 264.535C680.984 264.677 680.674 264.808 680.376 264.915C680.257 264.962 679.673 265.235 679.589 265.176C679.446 265.093 679.613 264.511 679.696 264.369C679.78 264.227 679.911 264.084 680.018 263.966C680.209 263.752 680.412 263.562 680.627 263.373C681.104 262.969 681.629 262.637 682.165 262.341C683.251 261.748 684.443 261.356 685.421 260.597C685.588 260.49 685.421 260.182 685.23 260.324Z" fill="#3F1D1B"/>
<path d="M738.496 276.634C738.222 278.71 737.113 280.595 736.695 282.648C736.504 283.585 736.433 284.545 736.564 285.506C736.635 286.016 736.779 286.763 737.327 286.989C737.971 287.25 738.21 286.419 738.424 285.969C738.842 285.127 739.188 284.237 739.367 283.324C739.546 282.47 739.569 281.592 739.414 280.726C739.212 279.694 738.747 278.733 738.83 277.654C738.723 277.689 738.603 277.713 738.496 277.749C739.152 278.887 740.07 279.848 741.168 280.572C741.704 280.928 742.277 281.212 742.885 281.438C743.231 281.568 743.947 281.912 744.245 281.497C744.507 281.117 744.149 280.619 743.923 280.335C743.493 279.777 743.028 279.255 742.527 278.757C741.442 277.689 740.19 276.812 738.83 276.124C738.627 276.017 738.448 276.325 738.651 276.432C739.689 276.966 740.667 277.595 741.549 278.354C741.967 278.71 742.372 279.101 742.754 279.504C742.957 279.718 743.148 279.943 743.338 280.168C743.505 280.37 743.875 280.714 743.911 280.987C743.994 281.639 742.611 280.963 742.36 280.833C741.907 280.619 741.466 280.358 741.06 280.062C740.142 279.397 739.379 278.543 738.818 277.559C738.723 277.393 738.496 277.476 738.484 277.654C738.365 279.22 739.259 280.643 739.164 282.232C739.116 283.063 738.902 283.869 738.615 284.652C738.448 285.103 738.246 285.554 738.031 285.981C737.959 286.123 737.9 286.348 737.78 286.455C737.482 286.752 737.184 286.419 737.077 286.135C736.492 284.605 737.005 282.636 737.47 281.153C737.947 279.647 738.651 278.211 738.866 276.646C738.89 276.408 738.532 276.408 738.496 276.634Z" fill="#3F1D1B"/>
<path d="M719.711 106.647C719.711 106.647 702.798 129.528 702.25 133.667C702.25 133.667 697.694 116.065 697.503 108.545C697.479 107.821 697.944 107.038 697.574 106.67C697.539 106.635 694.497 108.568 694.497 108.568C694.497 108.568 688.116 114.914 688.403 135.862C688.617 151.709 690.454 164.092 688.677 167.84C684.24 177.211 688.403 183.829 688.403 183.829C688.403 183.829 700.043 184.933 702.262 169.216C704.981 177.804 711.422 181.86 715.572 182.454C727.213 184.102 728.883 181.623 728.883 181.623L725.006 160.949C725.006 160.949 725.901 138.946 727.535 133.964C729.169 128.982 734.464 115.353 730.827 111.332L719.711 106.647Z" fill="#362D55"/>
<path d="M701.976 169.275C698.97 153.215 699.745 144.271 700.878 141.733C703.955 134.853 718.017 126.716 720.093 125.542L712.698 122.624L721.393 119.078L722.216 107.857L722.49 107.88L721.655 119.267L713.437 122.612L720.737 125.483L720.474 125.625C720.319 125.708 704.397 134.509 701.129 141.828C700.008 144.343 699.244 153.191 702.25 169.204L701.976 169.275Z" fill="#4E4575"/>
<path d="M700.866 141.828C699.435 134.877 697.264 130.168 695.69 127.44C693.985 124.487 692.601 123.158 692.589 123.146L692.41 122.98L698.409 121.355L692.828 118.342L695.905 107.631L696.167 107.703L693.162 118.2L699.149 121.438L692.947 123.122C693.364 123.561 694.533 124.878 695.917 127.286C697.503 130.026 699.698 134.77 701.129 141.769L700.866 141.828Z" fill="#4E4575"/>
<path d="M718.948 82.8762C718.948 82.8762 721.095 77.1116 719.806 75.6051L721.727 69.6151C721.727 69.6151 712.972 70.4691 708.655 69.6032C704.337 68.7373 700.008 67.1598 700.008 67.1598L697.217 73.6836L698.779 65.9024C698.779 65.9024 698.672 60.885 699.638 59.3668C700.604 57.8485 703.526 52.1787 714.296 56.4251C725.066 60.6715 732.151 63.3522 732.759 68.7373C733.355 74.1225 732.222 79.4245 730.529 81.1207C728.835 82.8169 718.077 89.5305 714.225 95.5799L714.749 91.4402L718.948 82.8762Z" fill="#4C2B2C"/>
<path d="M718.948 82.8762C718.948 82.8762 721.095 77.1115 719.806 75.6051L720.522 73.3515C720.665 73.3159 720.796 73.2921 720.939 73.2566C724.005 73.1498 726.879 72.3314 729.563 70.7894C730.612 69.9828 731.662 69.1762 732.711 68.3696C732.735 68.4882 732.747 68.6069 732.759 68.7255C733.355 74.1106 732.222 79.4127 730.529 81.1089C728.835 82.8051 718.077 89.5187 714.225 95.568L714.749 91.4284L718.948 82.8762Z" fill="#3A1D1E"/>
<path d="M697.765 72.4262L697.229 73.6717L697.503 72.3076C697.586 72.3432 697.67 72.3906 697.765 72.4262Z" fill="#3A1D1E"/>
<path d="M718.924 83.5404C718.924 83.5404 720.796 81.4765 722.382 83.5286C723.957 85.5925 721.977 88.8425 720.307 89.4949C718.637 90.1473 715.536 91.5351 715.179 91.1081C714.821 90.6811 714.654 89.7796 714.654 89.7796L718.924 83.5404Z" fill="#EE9E78"/>
<path d="M762.051 106.327L764.747 101.736L766.679 93.8126C767.037 92.3418 766.655 90.7879 765.665 89.6492C763.59 87.2769 759.94 83.505 757.591 83.505C754.168 83.505 751.997 83.1966 751.067 85.9841C750.136 88.7715 750.136 93.1009 750.756 94.6429C751.377 96.1849 753.249 98.3556 753.249 98.3556L753.428 101.867C753.512 103.551 754.382 105.105 755.79 106.054L757.686 107.335C759.141 108.307 761.157 107.857 762.051 106.327Z" fill="#EE9E78"/>
<path d="M748.86 93.2552L753.655 96.4222C754.227 96.8018 755.003 96.6476 755.384 96.0782L755.897 95.3072C756.279 94.7379 756.124 93.9669 755.551 93.5873L750.757 90.4203C750.184 90.0407 749.409 90.1949 749.027 90.7643L748.514 91.5353C748.133 92.1046 748.288 92.8756 748.86 93.2552Z" fill="#DF8867"/>
<path d="M764.401 93.4213C764.091 93.2671 763.757 93.1485 763.423 93.0536C763.089 92.9468 762.743 92.8875 762.374 92.8519C762.195 92.8282 762.016 92.8282 761.825 92.8401C761.634 92.8519 761.443 92.8757 761.264 92.935C761.074 92.9943 760.883 93.0654 760.704 93.184C760.525 93.3027 760.37 93.4687 760.263 93.6466C760.203 93.7415 760.155 93.8246 760.119 93.9195C760.084 94.0144 760.048 94.0974 760.012 94.1923C759.952 94.3821 759.905 94.5718 759.881 94.7616C759.833 95.1412 759.857 95.5208 759.905 95.8885C759.964 96.2562 760.048 96.612 760.155 96.956C760.215 97.1339 760.275 97.3 760.346 97.466C760.382 97.5491 760.418 97.6321 760.453 97.7151C760.489 97.7982 760.525 97.8812 760.573 97.9761L760.597 98.0117L760.632 98.0591C760.644 98.0828 760.68 98.1184 760.704 98.1422C760.728 98.1777 760.752 98.2133 760.775 98.2489C760.823 98.3201 760.859 98.3912 760.883 98.4506C760.907 98.5099 760.919 98.5692 760.919 98.5929C760.919 98.6285 760.919 98.6166 760.93 98.6047C760.942 98.5929 760.931 98.6047 760.895 98.6285C760.859 98.6522 760.787 98.6641 760.716 98.6759L760.656 98.6878C760.632 98.6878 760.62 98.6996 760.597 98.6996L760.453 98.7115C760.358 98.7234 760.263 98.7352 760.167 98.7352C759.786 98.7708 759.392 98.7708 759.01 98.7589C758.629 98.7352 758.247 98.6759 757.865 98.6047C757.114 98.4387 756.374 98.154 755.683 97.7744C754.979 97.4067 754.323 96.9323 753.667 96.4341C754.156 97.0865 754.752 97.6796 755.42 98.1896C756.088 98.6878 756.851 99.1029 757.674 99.352C757.877 99.4113 758.092 99.4706 758.307 99.5062C758.414 99.5299 758.521 99.5537 758.629 99.5655L758.951 99.613C759.38 99.6604 759.809 99.6723 760.239 99.6486C760.346 99.6367 760.453 99.6367 760.561 99.6248L760.716 99.613C760.74 99.613 760.775 99.613 760.799 99.6011L760.895 99.5893C761.026 99.5655 761.157 99.5299 761.3 99.4706C761.443 99.3995 761.61 99.2927 761.73 99.1148C761.849 98.9369 761.885 98.7115 761.873 98.5454C761.861 98.3675 761.813 98.237 761.765 98.1066C761.718 97.9879 761.646 97.8693 761.586 97.7744C761.551 97.727 761.515 97.6677 761.479 97.6202C761.443 97.5728 761.408 97.5254 761.36 97.466L761.419 97.5491C761.384 97.4898 761.348 97.4186 761.312 97.3474C761.276 97.2763 761.241 97.2051 761.217 97.1339C761.157 96.9916 761.097 96.8374 761.038 96.6832C760.93 96.3748 760.835 96.0783 760.775 95.758C760.716 95.4496 760.68 95.1412 760.692 94.8447C760.692 94.6905 760.716 94.5481 760.752 94.4058C760.764 94.3346 760.787 94.2634 760.811 94.1923C760.835 94.1211 760.859 94.0499 760.895 94.0025C761.002 93.7771 761.217 93.5992 761.491 93.4806C761.765 93.362 762.087 93.3145 762.409 93.2789C763.03 93.2196 763.721 93.3027 764.401 93.4213Z" fill="#DF8867"/>
<path d="M728.322 113.265C726.998 117.31 727.093 121.675 728.489 125.684L729.3 128.009C729.3 128.009 751.591 139.503 752.736 139.61C753.881 139.728 756.756 140.013 758.175 138.827C759.594 137.641 762.874 106.67 762.874 106.67C762.874 106.67 760.048 102.993 752.617 102.032L749.337 124.403L730.791 111.332" fill="#362D55"/>
<path d="M706.281 110.715C706.281 110.715 703.419 111.652 701.51 109.885L699.864 110.122L701.2 113.586C701.2 113.586 698.6 119.255 695.499 120.702C692.41 122.15 682.654 120.394 678.921 122.553C675.188 124.712 670.107 130.595 670.524 134.402L672.075 138.625L677.156 135.529C677.156 135.529 678.086 128.009 684.622 126.254C691.146 124.498 695.094 125.53 697.372 123.573C699.65 121.616 703.49 113.574 703.49 113.574L707.533 111.617L706.281 110.715Z" fill="#BE1E2D"/>
<path d="M697.372 123.608C696.573 124.296 695.559 124.617 694.307 124.818C693.376 124.249 692.386 123.786 691.325 123.442C689.154 122.304 686.817 121.794 684.312 121.877C682.296 121.889 680.376 122.197 678.527 122.814C678.659 122.731 678.79 122.648 678.921 122.577C682.654 120.418 692.41 122.161 695.499 120.726C698.588 119.279 701.2 113.609 701.2 113.609L699.865 110.146L701.511 109.908C703.407 111.676 706.281 110.739 706.281 110.739L707.522 111.664L703.478 113.621C703.478 113.609 699.65 121.639 697.372 123.608Z" fill="#9A1420"/>
<path d="M700.222 88.1783L709.728 88.0122C709.728 88.0122 710.754 88.2732 709.191 90.0524C707.629 91.8197 702.25 91.2623 702.25 91.2623C702.25 91.2623 699.948 90.2184 700.222 88.1783Z" fill="#C0272D"/>
<path d="M700.223 88.0241L709.728 88.0122C709.728 88.0122 710.754 88.1308 709.203 88.8662C707.653 89.6016 702.262 89.3407 702.262 89.3407C702.262 89.3407 699.96 88.8781 700.223 88.0241Z" fill="white"/>
<path d="M762.719 291.982L761.3 295.054L743.731 219.224L750.709 217.623L764.27 277.108C765.403 282.113 764.866 287.333 762.719 291.982Z" fill="white"/>
<path d="M761.3 295.066H741.955L743.601 289.563H754.573L746.057 254.109L748.025 238.096L761.3 295.066Z" fill="#7E8081"/>
<path opacity="0.28" d="M735.383 303.595L644.571 290.322L666.922 28.8472L758.652 31.4686L735.383 303.595Z" fill="#F1F1F2"/>
<path d="M742.718 306.121L739.223 310L643.462 288.875L665.92 26.2138L763.506 25.9529L766.333 29.9028L742.718 306.121ZM648.304 283.525L738.853 299.894L761.479 35.276L669.773 32.4648L648.304 283.525Z" fill="#929497"/>
<path d="M739.223 310L639.991 292.552L663.094 22.4419L763.518 25.9529L739.223 310ZM644.845 287.024L735.383 303.595L758.652 31.4685L666.922 28.8352L644.845 287.024Z" fill="white"/>
<path opacity="0.5" d="M662.557 75.1426L687.436 29.3928L707.438 30.1994L659.11 120.631L662.557 75.1426Z" fill="#F1F1F2"/>
<path opacity="0.65" d="M739.343 255.295L715.047 299.633L694.092 296.086L743.41 207.979L739.343 255.295Z" fill="#F1F1F2"/>
<path opacity="0.5" d="M712.233 30.0095L658.502 129.693L657.393 142.717L718.685 30.2586L712.233 30.0095Z" fill="#F1F1F2"/>
<path d="M589.624 21.9436H586.797V19.1325C586.797 18.7766 586.511 18.4919 586.153 18.4919C585.796 18.4919 585.509 18.7766 585.509 19.1325V21.9436H582.683C582.325 21.9436 582.039 22.2283 582.039 22.5842C582.039 22.94 582.325 23.2247 582.683 23.2247H585.509V26.0359C585.509 26.3917 585.796 26.6764 586.153 26.6764C586.511 26.6764 586.797 26.3917 586.797 26.0359V23.2247H589.624C589.982 23.2247 590.268 22.94 590.268 22.5842C590.268 22.2283 589.982 21.9436 589.624 21.9436Z" fill="white"/>
<path d="M564.005 58.7974H561.178V55.9862C561.178 55.6304 560.892 55.3457 560.534 55.3457C560.176 55.3457 559.89 55.6304 559.89 55.9862V58.7974H557.063C556.706 58.7974 556.419 59.0821 556.419 59.4379C556.419 59.7938 556.706 60.0784 557.063 60.0784H559.89V62.8896C559.89 63.2455 560.176 63.5301 560.534 63.5301C560.892 63.5301 561.178 63.2455 561.178 62.8896V60.0784H564.005C564.363 60.0784 564.649 59.7938 564.649 59.4379C564.649 59.0939 564.363 58.7974 564.005 58.7974Z" fill="white"/>
<path d="M676.595 2.5858H674.472V0.47446C674.472 0.213507 674.258 0 673.995 0C673.733 0 673.518 0.213507 673.518 0.47446V2.5858H671.395C671.133 2.5858 670.918 2.79931 670.918 3.06026C670.918 3.32122 671.133 3.53472 671.395 3.53472H673.518V5.64607C673.518 5.90702 673.733 6.12053 673.995 6.12053C674.258 6.12053 674.472 5.90702 674.472 5.64607V3.54658H676.595C676.858 3.54658 677.072 3.33308 677.072 3.07213C677.084 2.81117 676.858 2.5858 676.595 2.5858Z" fill="white"/>
<path d="M643.688 158.422H641.565V156.311C641.565 156.05 641.351 155.836 641.088 155.836C640.826 155.836 640.611 156.05 640.611 156.311V158.422H638.488C638.226 158.422 638.011 158.635 638.011 158.896C638.011 159.157 638.226 159.371 638.488 159.371H640.611V161.482C640.611 161.743 640.826 161.957 641.088 161.957C641.351 161.957 641.565 161.743 641.565 161.482V159.371H643.688C643.951 159.371 644.166 159.157 644.166 158.896C644.166 158.635 643.951 158.422 643.688 158.422Z" fill="white"/>
<path d="M635.28 104.274H633.157V102.163C633.157 101.902 632.943 101.688 632.68 101.688C632.418 101.688 632.203 101.902 632.203 102.163V104.274H630.08C629.818 104.274 629.603 104.488 629.603 104.749C629.603 105.01 629.818 105.223 630.08 105.223H632.203V107.346C632.203 107.607 632.418 107.821 632.68 107.821C632.943 107.821 633.157 107.607 633.157 107.346V105.235H635.28C635.543 105.235 635.757 105.022 635.757 104.761C635.757 104.5 635.543 104.274 635.28 104.274Z" fill="white"/>
<path d="M766.75 165.539H764.627V163.428C764.627 163.167 764.413 162.953 764.15 162.953C763.888 162.953 763.673 163.167 763.673 163.428V165.539H761.55C761.288 165.539 761.073 165.752 761.073 166.013C761.073 166.274 761.288 166.488 761.55 166.488H763.673V168.599C763.673 168.86 763.888 169.074 764.15 169.074C764.413 169.074 764.627 168.86 764.627 168.599V166.488H766.75C767.013 166.488 767.228 166.274 767.228 166.013C767.228 165.752 767.013 165.539 766.75 165.539Z" fill="white"/>
<path d="M636.533 40.7679H634.41V38.6566C634.41 38.3956 634.195 38.1821 633.933 38.1821C633.67 38.1821 633.456 38.3956 633.456 38.6566V40.7679H631.333C631.07 40.7679 630.855 40.9814 630.855 41.2424C630.855 41.5033 631.07 41.7169 631.333 41.7169H633.456V43.8282C633.456 44.0892 633.67 44.3027 633.933 44.3027C634.195 44.3027 634.41 44.0892 634.41 43.8282V41.7169H636.533C636.795 41.7169 637.01 41.5033 637.01 41.2424C637.01 40.9814 636.795 40.7679 636.533 40.7679Z" fill="white"/>
<path d="M743.827 10.4144H741.704V8.30307C741.704 8.04212 741.489 7.82861 741.227 7.82861C740.965 7.82861 740.75 8.04212 740.75 8.30307V10.4144H738.627C738.365 10.4144 738.15 10.6279 738.15 10.8889C738.15 11.1498 738.365 11.3633 738.627 11.3633H740.75V13.4747C740.75 13.7356 740.965 13.9491 741.227 13.9491C741.489 13.9491 741.704 13.7356 741.704 13.4747V11.3752H743.827C744.09 11.3752 744.304 11.1617 744.304 10.9007C744.304 10.6398 744.09 10.4144 743.827 10.4144Z" fill="white"/>
<path d="M770.794 85.1061H768.671V82.9947C768.671 82.7338 768.456 82.5203 768.194 82.5203C767.931 82.5203 767.717 82.7338 767.717 82.9947V85.1061H765.594C765.331 85.1061 765.117 85.3196 765.117 85.5805C765.117 85.8415 765.331 86.055 765.594 86.055H767.717V88.1663C767.717 88.4273 767.931 88.6408 768.194 88.6408C768.456 88.6408 768.671 88.4273 768.671 88.1663V86.055H770.794C771.056 86.055 771.271 85.8415 771.271 85.5805C771.271 85.3196 771.056 85.1061 770.794 85.1061Z" fill="white"/>
<path d="M560.689 149.17H558.566V147.059C558.566 146.798 558.351 146.584 558.089 146.584C557.827 146.584 557.612 146.798 557.612 147.059V149.17H555.477C555.215 149.17 555 149.384 555 149.644C555 149.905 555.215 150.119 555.477 150.119H557.6V152.23C557.6 152.491 557.815 152.705 558.077 152.705C558.34 152.705 558.554 152.491 558.554 152.23V150.119H560.677C560.94 150.119 561.154 149.905 561.154 149.644C561.154 149.384 560.952 149.17 560.689 149.17Z" fill="white"/>
<path d="M595.48 85.1182C595.48 85.1182 597.663 97.8693 596.923 100.68C596.184 103.492 590.554 105.852 590.554 105.852C590.554 105.852 602.708 114.416 607.3 111.818C611.891 109.221 613.418 107.928 613.418 107.928C613.418 107.928 609.816 107.453 609.279 105.413C608.743 103.373 609.077 85.7468 609.077 85.7468L595.48 85.1182Z" fill="#DF8867"/>
<path d="M619.703 80.9191C619.703 80.9191 619.012 89.0917 618.272 91.9148C617.533 94.7259 611.414 99.1384 609.876 99.9094C608.337 100.692 606.023 100.206 606.023 100.206C606.023 100.206 598.784 95.1648 597.734 93.1365C596.684 91.1082 595.062 82.4374 595.062 82.4374C595.062 82.4374 593.154 71.2164 595.182 68.3934C597.209 65.5585 603.053 59.6278 610.007 61.3477C616.96 63.0676 619.143 63.9335 619.584 69.4254C619.787 71.8451 619.703 80.9191 619.703 80.9191Z" fill="#EE9E78"/>
<path d="M618.189 75.6052L612.965 77.1946C612.965 77.1946 612.428 77.0286 612.548 76.3525C612.667 75.6645 616.114 74.1344 616.996 74.3479C617.879 74.5733 618.404 75.2256 618.189 75.6052Z" fill="#31141E"/>
<path d="M600.334 75.2493L606.035 77.6216C606.035 77.6216 606.656 77.503 606.608 76.7202C606.56 75.9373 602.851 73.8259 601.825 73.9683C600.811 74.1106 600.143 74.7867 600.334 75.2493Z" fill="#31141E"/>
<path d="M616.516 82.1448C617.228 82.1378 617.796 81.3302 617.787 80.341C617.777 79.3518 617.192 78.5556 616.48 78.5627C615.769 78.5697 615.2 79.3773 615.21 80.3665C615.22 81.3557 615.805 82.1519 616.516 82.1448Z" fill="#2B203D"/>
<path d="M603.662 80.4802C603.674 81.4647 604.258 82.2594 604.962 82.2594C605.666 82.2476 606.238 81.441 606.226 80.4565C606.214 79.472 605.63 78.6772 604.926 78.6772C604.222 78.6891 603.65 79.4957 603.662 80.4802Z" fill="#2B203D"/>
<path d="M610.448 87.5262C611.128 87.4075 611.939 87.194 612.189 86.6603C612.38 86.2333 612.201 85.7114 611.617 85.0471C610.603 83.8847 611.426 77.9777 611.82 75.7951L611.307 75.7358C611.307 75.7596 610.937 77.7523 610.734 79.8992C610.46 82.829 610.615 84.6438 611.188 85.2962C611.653 85.83 611.832 86.2333 611.7 86.5061C611.581 86.767 611.14 86.9568 610.341 87.0991L610.448 87.5262Z" fill="#EF7A6D"/>
<path d="M613.251 90.3135L603.745 90.1475C603.745 90.1475 602.719 90.4084 604.282 92.1876C605.844 93.9669 611.223 93.3975 611.223 93.3975C611.223 93.3975 613.525 92.3537 613.251 90.3135Z" fill="#C0272D"/>
<path d="M613.251 90.1593L603.745 90.1475C603.745 90.1475 602.72 90.2661 604.27 91.0015C605.821 91.7369 611.212 91.4759 611.212 91.4759C611.212 91.4759 613.513 91.0133 613.251 90.1593Z" fill="white"/>
<path d="M611.319 265.532C611.319 265.532 618.869 276.978 623.21 277.998C623.21 277.998 627.051 281.307 624.999 283.597C622.948 285.886 619.37 285.886 617.068 285.376C614.766 284.866 607.097 277.239 607.097 277.239L606.584 275.97L605.821 277.239L603.006 275.199L604.544 264.772L611.319 265.532Z" fill="#4C2421"/>
<path d="M589.457 270.11L589.206 278.508L586.392 282.837L585.879 283.086C585.879 283.086 584.853 293.003 584.603 293.513C584.352 294.023 584.352 295.292 582.814 296.561C581.275 297.83 577.446 299.609 574.882 297.071C572.318 294.533 572.067 291.983 572.067 291.983C572.067 291.983 579.224 275.448 579.486 273.917C579.736 272.387 580.762 268.829 580.762 268.829L589.457 270.11Z" fill="#4C2421"/>
<path d="M621.29 161.34C621.29 161.34 623.532 169.916 623.735 179.334C623.914 187.862 614.193 252.543 612.357 264.642C612.178 265.792 611.247 266.658 610.079 266.765L607.097 267.014C605.188 267.18 603.566 265.65 603.614 263.74L605.57 189.487L589.958 270.62C589.958 270.62 582.134 273.977 579.987 269.6C578.997 267.583 581.919 179.192 583.648 171.268C585.378 163.345 591.675 157.865 591.675 157.865L621.29 161.34Z" fill="#282247"/>
<path d="M612.81 228.109C614.492 228.109 616.15 228.002 617.784 227.8C615.458 244.062 613.156 259.364 612.357 264.642C612.178 265.793 611.248 266.658 610.079 266.765L607.097 267.014C605.189 267.18 603.567 265.65 603.614 263.74L604.676 227.385C607.3 227.966 610.007 228.215 612.81 228.109Z" fill="#181633"/>
<path d="M584.089 216.271C587.763 220.209 592.128 222.996 597.161 224.621C597.913 225.013 597.555 225.368 598.33 225.701L589.958 270.62C589.958 270.62 582.133 273.977 579.987 269.6C579.426 268.461 580.118 239.472 581.144 213.175C582.05 214.254 583.028 215.286 584.089 216.271Z" fill="#181633"/>
<path d="M619.894 161.66C619.894 161.66 619.894 165.563 615.541 167.852C611.188 170.141 604.795 171.411 601.467 170.651C598.14 169.892 588.419 165.053 587.906 162.253L587.99 162.336L619.894 161.66Z" fill="#262727"/>
<path d="M597.618 170.425L599.117 170.767L600.202 166.061L598.702 165.72L597.618 170.425Z" fill="#212A4E"/>
<path d="M613.795 169.484L615.199 168.858L613.213 164.453L611.809 165.079L613.795 169.484Z" fill="#212A4E"/>
<path d="M592.311 168.299L593.699 168.959L595.793 164.603L594.405 163.943L592.311 168.299Z" fill="#212A4E"/>
<path d="M619.442 166.974L620.569 165.934L617.267 162.395L616.14 163.436L619.442 166.974Z" fill="#212A4E"/>
<path d="M612.214 104.002L606.691 110.656L594.466 102.887L578.687 110.549C578.687 110.549 585.33 135.411 585.64 140.499C585.831 143.631 589.552 151.471 587.68 156.667C586.475 160.012 587.668 163.131 591.043 164.294C595.301 165.753 601.062 167.342 605.093 167.022C608.409 166.749 611.987 165.942 614.885 165.136C618.368 164.175 621.564 161.15 621.159 157.58C620.097 148.209 623.246 128.804 622.041 122.079C620.419 112.933 616.316 106.291 616.316 106.291L612.214 104.002Z" fill="#D9DDE9"/>
<path d="M606.846 110.62L611.188 108.841L614.515 110.62L611.188 105.532L606.846 110.62Z" fill="#BABABE"/>
<path d="M605.809 111.308L604.998 106.991L595.707 98.1777L591.675 104.322L600.203 113.396L605.809 111.308Z" fill="#D9DDE9"/>
<path d="M609.792 100.194L612.214 102.222C613.263 104.5 614.515 110.62 614.515 110.62L611.45 106.801L607.335 110.395C607.335 110.395 611.379 105.401 609.792 100.194Z" fill="#D9DDE9"/>
<path d="M599.678 111.13L605.057 107.05L606.584 110.62L603.781 109.6L599.678 111.13Z" fill="#BABABE"/>
<path d="M605.296 171.683L610.532 171.114C611.021 171.067 611.367 170.628 611.319 170.141L611.045 167.591C610.997 167.105 610.556 166.761 610.067 166.808L604.831 167.378C604.342 167.425 603.996 167.864 604.043 168.35L604.318 170.901C604.365 171.387 604.807 171.731 605.296 171.683Z" fill="#CDD0D7"/>
<path d="M605.523 171.245L610.198 170.735C610.615 170.687 610.914 170.319 610.866 169.904L610.639 167.864C610.592 167.449 610.222 167.152 609.804 167.2L605.129 167.71C604.712 167.757 604.413 168.125 604.461 168.54L604.688 170.58C604.735 170.984 605.117 171.292 605.523 171.245Z" fill="#262727"/>
<path d="M611.665 267.251C612.643 268.011 613.847 268.402 614.921 268.983C615.481 269.28 616.018 269.624 616.507 270.027C616.722 270.205 616.913 270.395 617.103 270.596C617.235 270.739 618.141 271.866 617.497 271.854C616.996 271.854 616.28 271.427 615.851 271.213C615.302 270.94 614.79 270.608 614.36 270.169C613.561 269.387 613.287 268.236 612.44 267.501C612.309 267.382 612.094 267.489 612.142 267.678C612.345 268.473 612.404 269.292 612.285 270.11C612.237 270.395 611.748 272.506 611.331 272.257C611.104 272.115 611.164 271.154 611.152 270.881C611.14 270.49 611.14 270.086 611.164 269.695C611.223 268.77 611.414 267.88 611.7 267.002C611.772 266.789 611.426 266.694 611.355 266.907C610.973 268.058 610.77 269.244 610.77 270.454C610.77 270.917 610.639 272.613 611.355 272.72C612.023 272.814 612.392 271.213 612.512 270.774C612.774 269.731 612.75 268.651 612.476 267.607C612.38 267.667 612.273 267.726 612.178 267.785C612.774 268.295 613.036 269.019 613.454 269.659C613.812 270.205 614.277 270.668 614.813 271.035C615.362 271.427 615.982 271.711 616.614 271.949C616.948 272.079 617.676 272.482 617.974 272.115C618.702 271.213 616.71 269.719 616.125 269.315C614.778 268.378 613.132 267.951 611.832 266.955C611.653 266.813 611.474 267.121 611.665 267.251Z" fill="#3F1D1B"/>
<path d="M582.754 272.091C582.969 273.728 583.72 275.211 584.197 276.776C584.46 277.607 584.662 278.461 584.746 279.338C584.782 279.777 584.794 280.216 584.758 280.655C584.734 281.011 584.71 281.639 584.472 281.948C583.935 282.612 583.696 281.794 583.506 281.414C583.315 281.023 583.136 280.619 582.981 280.204C582.683 279.41 582.48 278.579 582.432 277.737C582.349 276.148 583.255 274.712 583.124 273.147C583.112 272.981 582.885 272.898 582.79 273.052C582.205 274.048 581.442 274.902 580.512 275.59C580.094 275.887 579.653 276.159 579.188 276.373C578.902 276.503 578.604 276.622 578.305 276.729C578.019 276.824 577.375 276.919 577.661 276.409C578.162 275.471 579.14 274.606 579.939 273.918C580.858 273.123 581.872 272.459 582.957 271.913C583.16 271.806 582.981 271.498 582.778 271.605C581.442 272.281 580.202 273.147 579.116 274.19C578.604 274.689 578.115 275.222 577.685 275.792C577.447 276.1 577.041 276.586 577.268 277.002C577.518 277.452 578.15 277.168 578.496 277.049C579.14 276.824 579.76 276.527 580.333 276.159C581.478 275.424 582.432 274.416 583.112 273.242C583.005 273.206 582.885 273.182 582.778 273.147C582.861 274.167 582.444 275.08 582.229 276.065C582.039 276.907 582.038 277.761 582.182 278.603C582.337 279.516 582.647 280.382 583.028 281.224C583.231 281.663 583.541 282.826 584.221 282.636C584.841 282.458 585.008 281.651 585.08 281.118C585.211 280.181 585.14 279.232 584.961 278.306C584.555 276.183 583.398 274.238 583.124 272.103C583.088 271.866 582.73 271.866 582.754 272.091Z" fill="#3F1D1B"/>
<path d="M610.842 107.536C610.842 107.536 607.657 108.936 605.129 106.979L602.791 108.841L605.415 113.408L604.294 127.108L609.625 135.221C609.625 135.221 612.154 129.623 612.154 129.065C612.154 128.508 609.339 113.123 609.339 113.123L611.307 108.924L610.842 107.536Z" fill="#C62026"/>
<path d="M591.067 104.464C591.067 104.464 608.218 127.677 608.779 131.876C608.779 131.876 613.394 114.013 613.597 106.398C613.621 105.662 613.156 104.868 613.526 104.5C613.561 104.464 616.65 106.433 616.65 106.433C616.65 106.433 622.84 118.817 622.84 134.118C622.84 152.017 619.573 142.042 622.554 166.559C623.83 176.997 623.89 182.738 623.89 182.738C623.89 182.738 611.021 183.901 608.779 167.959C606.024 176.665 599.488 180.781 595.277 181.386C583.47 183.059 581.776 180.544 581.776 180.544L585.784 159.905C585.784 159.905 584.806 137.25 583.16 132.185C581.502 127.12 576.135 113.313 579.82 109.221L591.067 104.464Z" fill="#362D55"/>
<path d="M609.053 167.995C612.106 151.709 611.319 142.635 610.174 140.061C607.049 133.074 592.785 124.831 590.686 123.644L598.188 120.691L589.374 117.097L588.539 105.722L588.252 105.745L589.099 117.298L597.436 120.691L590.03 123.609L590.292 123.751C590.459 123.846 606.596 132.766 609.912 140.191C611.057 142.741 611.82 151.721 608.779 167.959L609.053 167.995Z" fill="#4E4575"/>
<path d="M610.186 140.144C611.629 133.086 613.836 128.318 615.434 125.554C617.163 122.565 618.571 121.213 618.582 121.201L618.761 121.035L612.667 119.386L618.32 116.326L615.207 105.461L614.933 105.532L617.986 116.183L611.915 119.469L618.213 121.177C617.783 121.628 616.615 122.956 615.195 125.4C613.585 128.187 611.367 132.991 609.912 140.084L610.186 140.144Z" fill="#4E4575"/>
<path d="M595.874 78.962C595.874 78.962 596.172 72.7348 597.985 71.8333L598.593 65.4755C598.593 65.4755 606.429 69.7338 610.794 70.6353C615.16 71.5368 619.835 71.774 619.835 71.774V78.962L621.493 71.086C621.493 71.086 623.604 66.4363 623.306 64.6452C623.007 62.8423 622.554 56.4015 610.794 56.105C599.046 55.8084 591.353 55.5 588.646 60.3039C585.939 65.096 584.877 70.4929 585.783 72.7466C586.69 74.9884 592.558 84.2879 594.824 89.3764C597.078 94.4769 596.565 92.235 596.565 92.235L595.874 78.962Z" fill="#31141E"/>
<path d="M595.635 79.6026C595.635 79.6026 594.705 76.9337 592.415 78.2266C590.113 79.5314 590.674 83.3508 591.962 84.62C593.262 85.8891 595.599 88.4156 596.1 88.1547C596.613 87.8937 597.114 87.1227 597.114 87.1227L595.635 79.6026Z" fill="#EE9E78"/>
<path d="M616.567 106.445C616.567 106.445 631.034 135.695 631.845 138.447C632.656 141.199 631.523 145.552 629.221 147.415C626.919 149.277 604.401 145.197 604.401 145.197L621.039 138.435L624.355 136.431L616.567 106.445Z" fill="#362D55"/>
<path d="M619.453 131.01C619.453 131.01 622.769 129.967 625.381 132.778C627.993 135.589 626.383 136.692 626.383 136.692L621.063 137.593L619.453 131.01Z" fill="#EE9E78"/>
<path opacity="0.45" d="M619 144.272C619.238 142.635 619.859 141.176 620.861 139.906C621.433 138.851 622.184 137.949 623.115 137.19L621.039 138.448L604.401 145.209C604.401 145.209 612.047 146.596 618.893 147.379C618.809 146.347 618.857 145.292 619 144.272Z" fill="#0F131F"/>
<path d="M578.544 112.067C578.556 112.02 578.568 111.973 578.591 111.925C580.118 107.026 586.845 106.433 589.218 110.976L598.808 134.581L619.226 130.571C619.226 130.571 623.103 133.442 622.292 137.866C622.292 137.866 599.821 146.988 598.748 147.45C597.686 147.913 593.584 148.791 590.125 146.217L578.663 115.792C578.21 114.582 578.174 113.289 578.544 112.067Z" fill="#2D2749"/>
<path d="M603.757 133.062C603.757 133.062 597.925 127.345 595.838 126.811C593.751 126.277 589.552 127.843 588.455 128.733C587.358 129.622 586.881 130.465 587.405 131.034C587.405 131.034 586.797 132.635 588.193 132.73C588.193 132.73 588.217 134.284 588.825 134.403C588.825 134.403 588.789 135.482 589.97 135.85C589.97 135.85 596.458 134.225 598.032 134.509C598.784 134.64 603.757 133.062 603.757 133.062Z" fill="#EE9E78"/>
</g>
<defs>
<clipPath id="clip0_344_275">
<rect width="180.915" height="139.568" fill="white" transform="translate(396.562 400.469) rotate(-133.077)"/>
</clipPath>
<clipPath id="clip1_344_275">
<rect width="237" height="310" fill="white" transform="translate(555)"/>
</clipPath>
</defs>
</svg>
